<svg width="50" height="54" viewBox="0 0 50 54" fill="none" xmlns="http://www.w3.org/2000/svg">
<path d="M43.4714 0L40.7383 2.34375H43.4714V0Z" fill="#005A94"/>
<path d="M18.9785 10.9375H31.8887L43.4714 0H31.0225C30.5763 0 30.1474 0.173034 29.8261 0.48272L18.9785 10.9375Z" fill="#106CA6"/>
<path d="M7.55273 0L10.2857 2.34375H7.55273V0Z" fill="#0A649E"/>
<path d="M34.2833 16.7709H15.959V9.61207C15.959 9.13599 16.345 8.75 16.8211 8.75H33.4211C33.8972 8.75 34.2832 9.13595 34.2832 9.61207L34.2833 16.7709ZM18.0413 14.6876H32.2009V10.8334H18.0413V14.6876Z" fill="#A9A9A9"/>
<path d="M31.8882 10.9375H18.978L7.52539 0H20.018C20.3527 0 20.6744 0.129774 20.9153 0.362035L31.8882 10.9375Z" fill="url(#paint0_linear_128_460)"/>
<path d="M25.1992 48.2762C15.2009 48.2762 7.0957 40.1711 7.0957 30.1728C7.0957 20.1745 15.2009 12.0693 25.1992 12.0693C35.1974 12.0693 43.3027 20.1745 43.3027 30.1728C43.3027 40.1711 35.1974 48.2762 25.1992 48.2762Z" fill="url(#paint1_linear_128_460)"/>
<path d="M15.6191 45.3559C18.3067 47.0977 21.6118 48.1253 25.186 48.1253C28.7602 48.1253 32.0652 47.0977 34.7528 45.3559V18.3103C32.0652 16.5688 28.7602 15.541 25.186 15.541C21.6118 15.541 18.3068 16.5688 15.6191 18.3103V45.3559Z" fill="url(#paint2_linear_128_460)"/>
<path d="M25.1983 14.2246C34.0063 14.2246 41.1466 21.3649 41.1466 30.1729C41.1466 38.9809 34.0063 46.1212 25.1983 46.1212C16.3903 46.1212 9.25 38.9809 9.25 30.1729C9.25 21.3649 16.3903 14.2246 25.1983 14.2246Z" fill="url(#paint3_linear_128_460)"/>
<path d="M38.9685 30.5047C38.9511 30.4903 38.9258 30.4858 38.9061 30.4924C38.882 30.4998 38.86 30.5062 38.8391 30.5123L38.829 30.5153C38.7777 30.5303 38.7334 30.5431 38.6894 30.5608C37.9958 30.8364 37.4497 31.3086 37.0199 32.0042C36.9138 32.1761 36.8315 32.3548 36.766 32.533C36.8734 31.9337 36.8983 31.7001 36.9173 31.0295C36.9182 31.0014 36.9182 30.9727 36.9182 30.9443C36.9182 30.8667 36.9182 30.7934 36.9352 30.7266C36.9555 30.6473 36.9964 30.5683 37.0359 30.4918C37.0471 30.4702 37.0582 30.4486 37.0674 30.4295C37.0706 30.4258 37.0809 30.4195 37.0849 30.4189C37.2832 30.3886 37.4587 30.3044 37.6213 30.1615C37.7852 30.0168 37.92 29.8396 38.0219 29.6348C38.388 28.9007 38.5712 28.0894 38.5665 27.2236C38.5661 27.14 38.5563 27.0587 38.5455 26.9703C38.5406 26.9307 38.5356 26.8902 38.5315 26.8482C38.5291 26.8252 38.5149 26.8047 38.4944 26.7947C38.4741 26.7849 38.4497 26.7856 38.4292 26.798C38.4168 26.8057 38.4063 26.812 38.3966 26.8176C38.378 26.8287 38.3638 26.8373 38.3504 26.847C38.0382 27.0708 37.7628 27.3495 37.5318 27.675C37.1548 28.2071 36.9355 28.8087 36.8765 29.4706C36.8706 29.3968 36.8647 29.323 36.8587 29.2492L36.8566 29.2225C36.8335 28.9332 36.8095 28.6341 36.79 28.34C36.7851 28.2655 36.7708 28.193 36.757 28.1229C36.7303 27.9882 36.705 27.8609 36.7454 27.7275C36.7547 27.6974 36.7624 27.667 36.7701 27.6367C36.7892 27.5617 36.8814 27.4462 37.0229 27.3198L37.0282 27.315C37.0804 27.2708 37.3486 27.0255 37.5007 26.5402C37.6551 26.0472 37.6434 25.5321 37.6349 25.1559L37.6347 25.1459C37.6234 24.6288 37.5675 24.2392 37.4535 23.8824C37.4388 23.8367 37.4213 23.7917 37.4028 23.7444C37.3932 23.7198 37.3834 23.6943 37.3733 23.6677C37.365 23.6452 37.3451 23.6288 37.3218 23.6249L37.3103 23.6239C37.2902 23.6239 37.2713 23.633 37.2585 23.6486L37.1478 23.7835C36.617 24.4308 36.3563 25.19 36.3726 26.0401C36.3754 26.1898 36.3866 26.3434 36.4065 26.5019C36.2716 26.0364 36.1134 25.5832 35.9335 25.1472C35.9297 25.1377 35.9273 25.1259 35.927 25.1158L35.9258 25.0562C35.9239 24.9702 35.922 24.8812 35.9256 24.7937C35.9262 24.7792 35.9356 24.7531 35.9552 24.7274C35.983 24.6907 36.0138 24.6548 36.0458 24.6175C36.1002 24.5542 36.1564 24.4887 36.2009 24.4141C36.3443 24.1739 36.4117 23.8901 36.4128 23.5209C36.4147 23.0864 36.3477 22.629 36.2017 22.0816C36.1219 21.783 36.0014 21.395 35.7772 21.0433C35.7619 21.0196 35.7449 20.9974 35.7268 20.9738C35.7186 20.9634 35.71 20.9522 35.7013 20.9402C35.6886 20.9232 35.6711 20.9132 35.6427 20.9132C35.6201 20.9149 35.5999 20.9277 35.5887 20.9477C35.3071 21.4559 35.1669 21.9987 35.1602 22.6073C35.1546 23.1148 35.2338 23.5514 35.3331 23.8965C35.0803 23.4346 34.7993 22.9882 34.4947 22.5649L34.4877 22.5552C34.4808 22.5461 34.4779 22.5416 34.4784 22.5447C34.4592 22.4078 34.4459 22.2982 34.4368 22.2027C34.437 22.2013 34.4388 22.1933 34.453 22.1695C34.4731 22.1352 34.4952 22.1016 34.5186 22.0661C34.5656 21.9946 34.6142 21.9206 34.6453 21.8377C34.7392 21.5877 34.7603 21.3042 34.7096 20.9712C34.5984 20.2341 34.2734 19.5705 33.7166 18.9422C33.6592 18.8777 33.5959 18.8206 33.5289 18.7603L33.5103 18.7435C33.4841 18.7198 33.4572 18.6955 33.4301 18.6699C33.4128 18.6534 33.3881 18.6473 33.3641 18.6543C33.3414 18.6615 33.3239 18.6803 33.3185 18.7037L33.3063 18.7571C33.298 18.7925 33.2916 18.8204 33.2868 18.8485C33.2119 19.2959 33.2173 19.775 33.3036 20.3135C33.3892 20.8476 33.5598 21.3082 33.8215 21.7084C33.4291 21.2459 33.0473 20.8576 32.6483 20.5135C32.6465 20.5111 32.6439 20.504 32.6437 20.5022C32.6749 20.2336 32.6086 19.9805 32.441 19.7286C32.2209 19.3974 31.9151 19.145 31.5321 18.9785C31.3028 18.8791 31.0653 18.7911 30.8328 18.7049C30.7214 18.6635 30.61 18.6223 30.4953 18.5781C30.38 18.5323 30.3307 18.5241 30.304 18.5489C30.2695 18.5809 30.2778 18.6084 30.2928 18.6581L30.2977 18.6744C30.4382 19.1479 30.6248 19.5224 30.8681 19.8192C31.3148 20.3647 31.8372 20.6418 32.4644 20.6663C32.4863 20.6676 32.5037 20.6737 32.5109 20.6792C32.5992 20.7453 32.6642 20.7982 32.7216 20.8506C32.9033 21.0167 33.0823 21.1937 33.2574 21.38C32.9969 21.2182 32.6787 21.1452 32.3202 21.1633C32.1241 21.1732 31.9294 21.202 31.7411 21.2297L31.7339 21.2309C31.6782 21.239 31.6228 21.2471 31.5676 21.2549C31.4466 21.2713 31.3246 21.2927 31.2169 21.3115C31.1733 21.3193 31.0691 21.3431 31.0451 21.3936C31.0368 21.4109 31.0375 21.4299 31.0469 21.4471C31.0552 21.4621 31.0643 21.4762 31.0742 21.489C31.3852 21.8925 31.7399 22.1582 32.1587 22.3013C32.6692 22.4766 33.1381 22.4622 33.5595 22.2559C33.624 22.2205 33.7017 22.2025 33.7905 22.2025C33.8575 22.2025 33.9077 22.213 33.9244 22.2168C33.9494 22.221 33.9832 22.235 33.9902 22.244C34.2522 22.5885 34.5009 22.9565 34.7332 23.3431C34.5369 23.1523 34.281 23.0236 33.9324 22.9398C33.6269 22.867 33.3145 22.8513 33.0125 22.8361L32.9113 22.831C32.8166 22.8262 32.7218 22.8202 32.6243 22.814L32.4607 22.8039C32.4395 22.8039 32.4194 22.8141 32.4071 22.8312C32.3934 22.8495 32.3902 22.8733 32.3982 22.8946C32.4048 22.9124 32.4168 22.9439 32.4229 22.9544C32.7415 23.4873 33.1156 23.8558 33.5664 24.0812C34.0071 24.3014 34.4053 24.3596 34.807 24.2636C34.8534 24.2524 34.9073 24.2464 34.963 24.2464C35.1338 24.2464 35.2529 24.2985 35.278 24.3468C35.499 24.8027 35.6962 25.2764 35.8662 25.7596C35.6879 25.5136 35.4384 25.3139 35.1225 25.1644C34.8088 25.0163 34.4821 24.8809 34.1606 24.7477C34.0225 24.6906 33.8837 24.6333 33.7456 24.5746C33.7251 24.5656 33.7009 24.5675 33.6817 24.5802C33.6629 24.5927 33.6517 24.6136 33.6517 24.636C33.6517 24.6792 34.1101 25.9515 34.7759 26.4529C35.0475 26.6574 35.382 26.8678 35.8039 26.8777C35.9302 26.8802 36.0607 26.8981 36.1593 27.0102C36.1744 27.028 36.1944 27.0419 36.2161 27.0493C36.2498 27.0604 36.2591 27.081 36.2757 27.1512C36.4123 27.7249 36.5118 28.3161 36.5731 28.9165C36.5545 28.8556 36.533 28.794 36.5084 28.7318C36.3594 28.3539 36.1085 28.0232 35.7191 27.6911C35.5184 27.5192 35.3082 27.3528 35.1049 27.1918L35.0952 27.1842C35.0026 27.1108 34.9103 27.0377 34.8181 26.9637C34.7991 26.9484 34.7806 26.9327 34.7591 26.9143L34.7016 26.865C34.6816 26.8481 34.6516 26.8445 34.6281 26.8563C34.604 26.8685 34.5895 26.8938 34.5914 26.9209C34.5942 26.9615 34.5965 26.9998 34.5986 27.0367L34.5997 27.0539C34.6043 27.1297 34.6086 27.2013 34.6163 27.272C34.6883 27.96 34.8929 28.5345 35.2418 29.0281C35.4577 29.3332 35.7675 29.7062 36.2505 29.8826C36.3681 29.9257 36.4533 29.9911 36.5447 30.1084C36.6308 30.2181 36.6469 30.3185 36.6449 30.4447C36.6367 30.9736 36.599 31.4983 36.5325 32.0121C36.517 31.8691 36.4841 31.7219 36.4335 31.569C36.3289 31.2523 36.1659 30.9444 35.935 30.6277C35.7357 30.3535 35.5284 30.0783 35.3278 29.812L35.3145 29.7942C35.235 29.6888 35.1555 29.5832 35.0781 29.4799C35.0636 29.4587 35.0427 29.4511 35.0306 29.4468C35.0134 29.4385 34.993 29.4377 34.9748 29.4454C34.9569 29.453 34.9432 29.468 34.9372 29.4864L34.9349 29.4936C34.9316 29.5033 34.9289 29.5118 34.9275 29.5204C34.7893 30.345 34.8741 31.0839 35.1869 31.7793C35.3396 32.1193 35.5445 32.5043 35.9057 32.7814C36.0706 32.9078 36.2008 33.0852 36.2723 33.2809C36.2874 33.323 36.2869 33.3412 36.2851 33.3483C36.1323 33.9815 35.9326 34.5922 35.6898 35.1703C35.7523 34.8656 35.748 34.5456 35.6767 34.2141C35.5754 33.7442 35.4013 33.2888 35.2459 32.8988L35.1994 32.7821C35.1266 32.5993 35.0533 32.4151 34.9776 32.2242C34.968 32.1998 34.9448 32.1831 34.9139 32.1816C34.8896 32.1816 34.8672 32.1955 34.8556 32.2181L34.8312 32.264C34.8204 32.2841 34.8104 32.3028 34.8019 32.3221C34.4894 33.027 34.3839 33.7496 34.4884 34.4698C34.5631 34.9848 34.6896 35.3535 34.8987 35.6655C35.0069 35.8268 35.1097 36.0064 35.1284 36.2273C35.1328 36.2796 35.1308 36.3156 35.1075 36.3566C34.8437 36.8184 34.5481 37.2543 34.2243 37.6592C34.2255 37.657 34.2267 37.6547 34.2279 37.6525C34.4609 37.2268 34.4679 36.7665 34.4442 36.3723C34.4236 36.0344 34.3849 35.697 34.3476 35.3708L34.3455 35.3519C34.3305 35.2212 34.3156 35.0906 34.3019 34.9597C34.2941 34.8855 34.2853 34.8113 34.2762 34.736L34.2642 34.6341C34.2616 34.6115 34.2478 34.5921 34.2281 34.5822C34.1913 34.563 34.1318 34.5927 34.0675 34.6687C33.6256 35.1914 33.3513 35.782 33.2523 36.4243C33.1496 37.0902 33.2053 37.6601 33.4227 38.1665C33.4285 38.18 33.4284 38.2076 33.4283 38.2168L33.4166 38.5081C33.4149 38.5291 33.4038 38.5527 33.3947 38.5615C32.9534 38.9865 32.4676 39.3559 31.9462 39.6634C32.193 39.4403 32.3704 39.1493 32.4854 38.7805C32.6128 38.3717 32.6783 37.9462 32.7417 37.5337L32.7472 37.497C32.7697 37.3521 32.7931 37.2074 32.817 37.0596L32.8441 36.8925C32.8479 36.8681 32.8383 36.8438 32.8195 36.8292C32.8007 36.8143 32.7736 36.8107 32.752 36.8199L32.7284 36.8297C32.7033 36.84 32.6814 36.8492 32.6607 36.8598C31.6751 37.352 31.0263 38.5001 31.118 39.5896C31.1324 39.7602 31.1168 39.9205 31.0702 40.0793C31.0658 40.0937 31.0519 40.1094 31.0462 40.112C30.5781 40.3094 30.133 40.4534 29.6851 40.5523C29.6621 40.5577 29.6438 40.5741 29.6364 40.5963C29.6288 40.6187 29.6334 40.6429 29.6487 40.6612C29.6974 40.7188 29.7398 40.7809 29.7747 40.8458C29.789 40.8723 29.8231 40.8859 29.8486 40.8793C30.2134 40.7961 30.5688 40.6883 30.905 40.5587C30.9322 40.5477 30.953 40.5426 30.9724 40.5458C31.0472 40.5557 31.1262 40.5711 31.214 40.5928C31.2321 40.5973 31.2474 40.6049 31.2474 40.6049C31.4391 40.987 31.7684 41.2304 32.2547 41.3488C32.3606 41.3742 32.4697 41.3929 32.5791 41.4044C32.6935 41.4165 32.8213 41.4227 32.9585 41.4227C33.1487 41.4227 33.2843 41.4109 33.2859 41.4108C33.7074 41.3636 34.0674 41.2687 34.3862 41.1207C34.517 41.0601 34.6661 40.9784 34.7807 40.8326C34.8026 40.8046 34.7989 40.7643 34.7723 40.7409C34.4484 40.4551 34.1187 40.2474 33.7641 40.1062C33.2386 39.8973 32.76 39.8408 32.2909 39.931C32.2207 39.9446 32.1523 39.9618 32.0858 39.9815C32.5246 39.7191 32.9448 39.4108 33.3416 39.0596C33.3493 39.0527 33.3618 39.0465 33.3715 39.0448C33.4364 39.034 33.5227 39.0208 33.6109 39.0144C33.6191 39.0144 33.6294 39.0184 33.6306 39.0188C33.8697 39.2864 34.1778 39.4164 34.5724 39.4164C34.5925 39.4164 34.6127 39.416 34.6328 39.4153C35.0619 39.4015 35.4931 39.2836 35.915 39.0647C36.2216 38.9048 36.5412 38.7186 36.8003 38.4409C36.8578 38.3792 36.9091 38.3093 36.9544 38.2477L36.9588 38.2417C36.9789 38.2146 36.9991 38.1871 37.02 38.1601C37.0313 38.1455 37.0361 38.1267 37.0331 38.1078C37.0299 38.0895 37.0193 38.0733 37.0013 38.0615C36.9967 38.059 36.887 38.0002 36.7868 37.9614C36.1159 37.7022 35.4387 37.6756 34.7926 37.8838C34.5811 37.9518 34.382 38.0539 34.1882 38.1949C34.5466 37.7782 34.8785 37.3215 35.1799 36.83C35.1831 36.8248 35.1917 36.8108 35.1944 36.8082C35.2208 36.7914 35.2478 36.7755 35.2747 36.7598C35.3228 36.7315 35.3728 36.7023 35.4197 36.6674C35.4592 36.6379 35.4703 36.6371 35.5103 36.6629C35.5669 36.6996 35.6326 36.7187 35.69 36.7337C36.0253 36.8196 36.3634 36.7768 36.7373 36.6012C37.0789 36.4411 37.3415 36.1879 37.5745 35.9383C37.9134 35.5742 38.1349 35.2457 38.2716 34.9044C38.3002 34.8327 38.3207 34.7587 38.342 34.6812C38.3508 34.6487 38.3598 34.6162 38.3693 34.5843C38.3797 34.55 38.3615 34.5137 38.3276 34.5018L38.2995 34.4996C38.1613 34.4996 36.9283 34.5199 36.2072 35.2196C36.0503 35.3718 35.9096 35.5337 35.7812 35.7108C36.0665 35.1066 36.3084 34.4699 36.5034 33.8089L36.5062 33.7992C36.5086 33.7912 36.5122 33.7789 36.5145 33.7756L36.7031 33.5166C36.7102 33.5062 36.711 33.5062 36.7221 33.5062C36.727 33.5062 36.7324 33.5065 36.7385 33.5069L36.7788 33.5093C36.9192 33.518 37.0018 33.5168 37.0698 33.5061C37.3384 33.4637 37.5808 33.3285 37.8108 33.0926C38.3488 32.5408 38.7192 31.8524 38.9429 30.9882C38.9669 30.8956 38.9736 30.8021 38.9808 30.703C38.984 30.658 38.9875 30.6117 38.9927 30.5639C38.9948 30.5409 38.9858 30.519 38.9685 30.5047Z" fill="url(#paint4_linear_128_460)"/>
<path d="M20.714 40.5512C20.2665 40.4524 19.8215 40.3084 19.3533 40.111C19.3477 40.1084 19.3338 40.0926 19.3294 40.0785C19.2827 39.9194 19.2671 39.7592 19.2815 39.5885C19.3732 38.499 18.7244 37.351 17.739 36.8588C17.7181 36.8482 17.6962 36.839 17.671 36.8287L17.6477 36.819C17.6255 36.8095 17.5985 36.8135 17.5805 36.8279C17.5612 36.8428 17.5516 36.8671 17.5555 36.8915L17.5825 37.0586C17.6064 37.2064 17.6298 37.3511 17.6523 37.4959L17.658 37.5338C17.7213 37.9452 17.7866 38.3707 17.9141 38.7795C18.0291 39.1483 18.2065 39.4394 18.4533 39.6624C17.9319 39.355 17.4461 38.9855 17.0049 38.5606C16.9957 38.5517 16.9847 38.528 16.9831 38.5085L16.9712 38.2169C16.9712 38.2066 16.971 38.1791 16.9769 38.1654C17.1942 37.6592 17.2499 37.0893 17.1472 36.4233C17.0482 35.781 16.774 35.1904 16.3321 34.6678C16.2803 34.6066 16.2347 34.5756 16.1964 34.5756C16.1871 34.5756 16.1786 34.5775 16.172 34.5809C16.1516 34.591 16.1379 34.6106 16.1352 34.6332L16.1234 34.7349C16.1143 34.8104 16.1055 34.8845 16.0976 34.9588C16.084 35.0896 16.069 35.2202 16.054 35.3509L16.0519 35.3698C16.0145 35.6961 15.9758 36.0335 15.9553 36.3713C15.9316 36.7655 15.9386 37.2258 16.1716 37.6516C16.1728 37.6537 16.1739 37.656 16.1752 37.6582C15.8514 37.2532 15.5558 36.8175 15.292 36.3557C15.2688 36.3147 15.2667 36.2786 15.2711 36.2263C15.2898 36.0053 15.3926 35.8257 15.5008 35.6645C15.7098 35.3526 15.8363 34.9838 15.9111 34.4688C16.0156 33.7486 15.91 33.0261 15.5977 32.3213C15.5891 32.3018 15.5791 32.2831 15.5684 32.263L15.5439 32.2169C15.5322 32.1944 15.5073 32.1797 15.481 32.1808C15.4547 32.1822 15.4315 32.1989 15.422 32.2231C15.3462 32.4142 15.2729 32.5983 15.2001 32.7811L15.1535 32.8979C14.9982 33.2879 14.8241 33.7433 14.7228 34.2132C14.6515 34.5447 14.6471 34.8647 14.7097 35.1693C14.4669 34.5913 14.2672 33.9806 14.1144 33.3473C14.1126 33.3403 14.1121 33.322 14.1272 33.2799C14.1988 33.0842 14.3289 32.9068 14.4939 32.7803C14.855 32.5033 15.0599 32.1183 15.2127 31.7783C15.5254 31.0828 15.6103 30.344 15.472 29.5194C15.4705 29.5108 15.4679 29.5022 15.4648 29.4929L15.4623 29.4854C15.4563 29.467 15.4426 29.452 15.4244 29.4442C15.4068 29.4368 15.3845 29.4382 15.3707 29.445C15.3569 29.45 15.336 29.4577 15.3223 29.4777C15.2441 29.5822 15.1646 29.6878 15.0851 29.7932L15.0718 29.811C14.8713 30.0772 14.6639 30.3524 14.4646 30.6266C14.2337 30.9434 14.0707 31.2513 13.9661 31.5679C13.9156 31.7209 13.8826 31.8681 13.867 32.0111C13.8006 31.4972 13.7629 30.9727 13.7547 30.4437C13.7528 30.3175 13.7688 30.2171 13.855 30.1072C13.9463 29.9901 14.0316 29.9247 14.1491 29.8816C14.6321 29.7051 14.9419 29.3322 15.1578 29.0271C15.5067 28.5335 15.7113 27.9591 15.7833 27.2711C15.791 27.2003 15.7953 27.1286 15.7998 27.0529L15.801 27.0356C15.8031 26.9988 15.8054 26.9604 15.8083 26.9197C15.8101 26.8928 15.7957 26.8675 15.7715 26.8552C15.7482 26.8435 15.7182 26.8469 15.6978 26.8641L15.6405 26.9132C15.619 26.9316 15.6005 26.9474 15.5813 26.9628C15.4893 27.0367 15.3969 27.1098 15.3044 27.1832L15.2947 27.1908C15.0915 27.3518 14.8813 27.5182 14.6805 27.6901C14.291 28.0222 14.0403 28.3529 13.8913 28.7308C13.8666 28.7931 13.845 28.8547 13.8265 28.9157C13.8878 28.3152 13.9873 27.7239 14.1239 27.1502C14.1405 27.08 14.1498 27.0594 14.1839 27.0482C14.2053 27.041 14.2253 27.027 14.2399 27.0097C14.339 26.8971 14.4694 26.8792 14.5958 26.8767C15.0176 26.8668 15.3521 26.6564 15.6237 26.4519C16.2894 25.9504 16.7479 24.6782 16.7479 24.635C16.7479 24.6125 16.7367 24.5916 16.7177 24.5789C16.6989 24.5666 16.6736 24.5648 16.6545 24.5733C16.5158 24.6322 16.3772 24.6895 16.2335 24.7489C15.9175 24.8799 15.5908 25.0153 15.277 25.1633C14.9613 25.3128 14.7117 25.5126 14.5333 25.7585C14.7034 25.2754 14.9005 24.8017 15.1212 24.3465C15.1466 24.2974 15.2658 24.2453 15.4367 24.2453C15.4923 24.2453 15.5462 24.2513 15.5927 24.2624C15.9943 24.3587 16.3925 24.3004 16.8332 24.0801C17.2841 23.8547 17.6582 23.4862 17.9768 22.9531C17.9829 22.9428 17.9948 22.9113 18.0013 22.8937C18.0094 22.8722 18.0061 22.8484 17.9927 22.8303C17.9803 22.8132 17.9603 22.8029 17.935 22.8029H17.9344L17.7753 22.813C17.6777 22.8191 17.5829 22.8251 17.4882 22.83L17.3871 22.8351C17.085 22.8503 16.7726 22.8659 16.467 22.9387C16.1185 23.0225 15.8625 23.1512 15.6663 23.3421C15.8986 22.9555 16.1473 22.5876 16.4093 22.2431C16.4163 22.2339 16.4502 22.22 16.4779 22.2153C16.4917 22.2121 16.542 22.2015 16.609 22.2015C16.6978 22.2015 16.7755 22.2196 16.8414 22.2558C17.26 22.4605 17.7302 22.4757 18.2407 22.3004C18.6595 22.1573 19.0141 21.8916 19.325 21.4883C19.3351 21.4753 19.3442 21.4611 19.3525 21.4462C19.362 21.429 19.3626 21.41 19.3543 21.3927C19.3303 21.3422 19.2261 21.3185 19.1823 21.3107C19.0747 21.2919 18.9528 21.2704 18.8319 21.254C18.7765 21.2463 18.7211 21.2382 18.6655 21.23L18.6584 21.2288C18.47 21.201 18.2753 21.1723 18.0791 21.1624C17.7207 21.1441 17.4024 21.2172 17.1419 21.3792C17.3171 21.1928 17.496 21.0159 17.6778 20.8497C17.7352 20.7973 17.8002 20.7445 17.8888 20.6782C17.8956 20.6729 17.9131 20.6668 17.9344 20.6655C18.5622 20.641 19.0846 20.3638 19.5313 19.8185C19.7746 19.5215 19.9611 19.147 20.1017 18.6735L20.1065 18.6573C20.1216 18.6075 20.1298 18.5801 20.0953 18.548C20.0687 18.5233 20.0218 18.5306 19.9 18.5789C19.7894 18.6214 19.678 18.6627 19.5638 18.705C19.3341 18.7902 19.0966 18.8782 18.8674 18.9776C18.4843 19.1441 18.1784 19.3965 17.9583 19.7276C17.7907 19.9796 17.7245 20.2328 17.7557 20.5002C17.7555 20.5032 17.7528 20.5103 17.7524 20.5111C17.3525 20.8564 16.9703 21.245 16.5778 21.7076C16.8396 21.3075 17.0102 20.8468 17.0958 20.3127C17.1821 19.7743 17.1875 19.295 17.1125 18.8476C17.1078 18.8197 17.1013 18.7916 17.0932 18.7566L17.0809 18.7026C17.0753 18.6794 17.0579 18.6607 17.035 18.6535C17.0122 18.6467 16.9865 18.6527 16.9694 18.669C16.9421 18.6947 16.9152 18.7191 16.889 18.7428L16.8706 18.7594C16.8035 18.8198 16.7401 18.8769 16.6828 18.9414C16.1259 19.5697 15.801 20.2334 15.6898 20.9703C15.6391 21.3034 15.6601 21.5869 15.7541 21.837C15.7852 21.9198 15.8337 21.9938 15.8821 22.0672C15.9042 22.1008 15.9263 22.1344 15.9466 22.169C15.9615 22.1938 15.9628 22.2003 15.9627 22.1991C15.9535 22.2976 15.9403 22.4074 15.9225 22.5392C15.9217 22.5409 15.9192 22.5447 15.9113 22.5553L15.9048 22.5642C15.6002 22.9875 15.3192 23.4339 15.0664 23.8958C15.1658 23.5508 15.245 23.1141 15.2394 22.6066C15.2326 21.9979 15.0924 21.4551 14.8107 20.9468C14.7996 20.927 14.7794 20.9142 14.7511 20.9122C14.7306 20.9122 14.7108 20.9224 14.6979 20.9397C14.6894 20.9515 14.6809 20.9626 14.6727 20.9731C14.6545 20.9966 14.6375 21.0188 14.6223 21.0426C14.398 21.3944 14.2777 21.7822 14.1978 22.0809C14.0519 22.6285 13.9848 23.0859 13.9867 23.5202C13.9878 23.8893 14.0551 24.1731 14.1985 24.4132C14.2431 24.488 14.2993 24.5534 14.3557 24.6192C14.3856 24.6541 14.4164 24.69 14.4443 24.7268C14.4638 24.7524 14.4732 24.7785 14.4737 24.793C14.4774 24.8805 14.4754 24.9695 14.4736 25.0555L14.4723 25.115C14.4721 25.1252 14.4697 25.137 14.4662 25.146C14.2861 25.5822 14.1278 26.0356 13.9929 26.5012C14.0127 26.3427 14.0239 26.1891 14.0268 26.0394C14.0431 25.1893 13.7823 24.4302 13.2516 23.7828L13.141 23.648C13.1282 23.6322 13.1092 23.6232 13.089 23.6232L13.078 23.6241C13.0543 23.6281 13.0344 23.6445 13.0262 23.6668C13.0161 23.6937 13.0062 23.7191 12.9966 23.7436C12.9781 23.7911 12.9606 23.836 12.9458 23.8817C12.8319 24.2385 12.776 24.6282 12.7647 25.1451L12.7644 25.1552C12.756 25.5313 12.7443 26.0464 12.8988 26.5394C13.0508 27.0248 13.3189 27.27 13.371 27.3141L13.3765 27.3191C13.518 27.4454 13.6102 27.5609 13.6293 27.636C13.6369 27.6662 13.6447 27.6966 13.6539 27.7266C13.6943 27.8601 13.669 27.9873 13.6418 28.1247C13.6282 28.1941 13.6141 28.2657 13.6092 28.3392C13.5897 28.6334 13.5658 28.9325 13.5426 29.2217L13.5406 29.2485C13.5346 29.3222 13.5287 29.396 13.5228 29.4698C13.4637 28.8079 13.2445 28.2063 12.8674 27.6742C12.6365 27.3487 12.3611 27.0702 12.0489 26.8463C12.0354 26.8366 12.0212 26.8279 12.0023 26.8166C11.9931 26.8113 11.9824 26.805 11.9695 26.7969C11.95 26.7852 11.925 26.7841 11.9049 26.794C11.8843 26.804 11.8701 26.8244 11.8677 26.8475C11.8635 26.8893 11.8586 26.9298 11.8534 26.9719C11.843 27.058 11.8331 27.1393 11.8327 27.2228C11.828 28.0886 12.0112 28.9 12.3772 29.634C12.4792 29.8388 12.614 30.016 12.7779 30.1608C12.9405 30.3035 13.1159 30.3878 13.3139 30.4181C13.3182 30.4188 13.3286 30.4251 13.3302 30.4263C13.3409 30.4479 13.3521 30.4694 13.3632 30.4911C13.4027 30.5675 13.4436 30.6465 13.4639 30.7257C13.4809 30.7928 13.4809 30.866 13.4809 30.9435C13.4809 30.972 13.4809 31.0006 13.4818 31.0287C13.5008 31.6994 13.5257 31.9329 13.6331 32.5322C13.5676 32.3541 13.4853 32.1754 13.3792 32.0035C12.9494 31.3078 12.4034 30.8356 11.7099 30.5601C11.6658 30.5423 11.6216 30.5295 11.5703 30.5146L11.56 30.5116C11.5392 30.5054 11.5172 30.499 11.4936 30.4918C11.4723 30.4848 11.448 30.4895 11.4307 30.5039C11.4134 30.5182 11.4043 30.5402 11.4066 30.563C11.4117 30.6106 11.4153 30.6568 11.4185 30.7019C11.4256 30.801 11.4323 30.8944 11.4563 30.987C11.68 31.8512 12.0504 32.5396 12.5884 33.0914C12.8185 33.3273 13.0609 33.4625 13.3295 33.505C13.3973 33.5155 13.4801 33.5169 13.6203 33.5082L13.6607 33.5057C13.6669 33.5054 13.6722 33.505 13.6772 33.505C13.6882 33.505 13.6891 33.505 13.6968 33.5163L13.8847 33.7744C13.8871 33.7777 13.8906 33.79 13.8931 33.7984L13.8958 33.8077C14.0908 34.4687 14.3327 35.1054 14.618 35.7096C14.4896 35.5324 14.3489 35.3706 14.1921 35.2184C13.4709 34.5187 12.2379 34.4984 12.0997 34.4984L12.0825 34.4985L12.0716 34.5006C12.0378 34.5126 12.0194 34.5488 12.0299 34.5829C12.0395 34.6151 12.0485 34.6475 12.0588 34.6857C12.0785 34.7574 12.0989 34.8315 12.1276 34.9031C12.2643 35.2446 12.4857 35.573 12.8247 35.9371C13.0577 36.1867 13.3203 36.4399 13.6618 36.6C14.0358 36.7756 14.3735 36.8185 14.7094 36.7324C14.7665 36.7174 14.8322 36.6984 14.8887 36.6618C14.9289 36.636 14.9399 36.6368 14.9794 36.6663C15.0263 36.7011 15.0762 36.7303 15.1246 36.7587C15.1513 36.7744 15.1783 36.7902 15.2035 36.8061C15.2075 36.8095 15.2161 36.8235 15.2192 36.8288C15.5206 37.3202 15.8525 37.777 16.211 38.1937C16.0171 38.0526 15.818 37.9506 15.6066 37.8826C14.9604 37.6744 14.2831 37.7009 13.6124 37.9602C13.5122 37.999 13.4025 38.0578 13.3952 38.0619C13.3798 38.072 13.3693 38.0884 13.366 38.1071C13.3631 38.1255 13.3678 38.1443 13.379 38.1587C13.4 38.1859 13.4202 38.2133 13.4403 38.2405L13.4447 38.2464C13.49 38.3081 13.5413 38.3779 13.5988 38.4397C13.8579 38.7174 14.1774 38.9036 14.4841 39.0635C14.906 39.2823 15.3373 39.4002 15.7663 39.4141C15.7864 39.4147 15.8066 39.4152 15.8267 39.4152C16.2213 39.4152 16.5294 39.2851 16.7669 39.0191C16.7697 39.017 16.78 39.0131 16.7857 39.013C16.8764 39.0195 16.9627 39.0327 17.0271 39.0435C17.0372 39.0453 17.0498 39.0513 17.0576 39.0584C17.4543 39.4096 17.8744 39.7178 18.3133 39.9801C18.2467 39.9604 18.1782 39.9433 18.1081 39.9295C17.6391 39.8394 17.1605 39.896 16.6349 40.1047C16.2803 40.2461 15.9506 40.4537 15.6268 40.7395C15.6001 40.7629 15.5963 40.8032 15.6184 40.8312C15.7329 40.977 15.882 41.0587 16.0128 41.1192C16.3316 41.2674 16.6916 41.3623 17.1136 41.4094C17.1148 41.4095 17.2504 41.4213 17.4406 41.4213C17.5778 41.4213 17.7056 41.4151 17.82 41.403C17.9294 41.3916 18.0385 41.3728 18.1444 41.3473C18.6306 41.229 18.96 40.9856 19.1488 40.6077C19.1522 40.6044 19.1667 40.596 19.1851 40.5915C19.2728 40.5697 19.3518 40.5544 19.4269 40.5444C19.4446 40.5416 19.4667 40.5463 19.4944 40.5575C19.8302 40.6869 20.1856 40.7947 20.5499 40.8778C20.555 40.879 20.5603 40.8797 20.5656 40.8797C20.5901 40.8797 20.6127 40.8662 20.6246 40.8442C20.6594 40.7795 20.7017 40.7174 20.7505 40.6596C20.7657 40.6415 20.7703 40.6172 20.7628 40.5948C20.7556 40.5732 20.7373 40.5567 20.714 40.5512Z" fill="url(#paint5_linear_128_460)"/>
<path d="M21.1072 35.1503H29.6941V32.7534H25.3242V32.6886L26.373 31.8249C28.9239 29.725 29.5739 28.6345 29.5739 27.3551C29.5739 25.2929 27.8642 23.9434 25.1821 23.9434C22.5766 23.9434 20.8832 25.3739 20.8887 27.7006H23.7728C23.7674 26.7721 24.3409 26.2538 25.1821 26.2538C26.0179 26.2538 26.6133 26.7667 26.6133 27.6142C26.6133 28.3969 26.1053 28.9044 25.2805 29.5792L21.1072 32.9909V35.1503Z" fill="url(#paint6_linear_128_460)"/>
<path d="M23.0425 43.5755H21.2422C21.2628 43.3979 21.3252 43.2306 21.4293 43.0746C21.5344 42.9175 21.7309 42.7324 22.0186 42.5192C22.1944 42.3886 22.3069 42.2894 22.356 42.2216C22.4051 42.1539 22.4296 42.0895 22.4296 42.0286C22.4296 41.9628 22.4051 41.9068 22.356 41.8607C22.3079 41.8135 22.247 41.7899 22.1733 41.7899C22.0967 41.7899 22.0338 41.814 21.9847 41.8621C21.9366 41.9102 21.9042 41.9952 21.8875 42.117L21.2864 42.0684C21.31 41.8995 21.3532 41.7678 21.416 41.6736C21.4789 41.5783 21.5673 41.5056 21.6812 41.4555C21.7962 41.4044 21.9548 41.3789 22.1571 41.3789C22.3683 41.3789 22.5323 41.403 22.6492 41.4511C22.767 41.4992 22.8593 41.5734 22.9262 41.6736C22.9939 41.7727 23.0278 41.8843 23.0278 42.008C23.0278 42.1396 22.989 42.2653 22.9114 42.3852C22.8348 42.505 22.6948 42.6366 22.4915 42.78C22.3707 42.8635 22.2897 42.9219 22.2484 42.9553C22.2082 42.9887 22.1606 43.0324 22.1056 43.0864H23.0425V43.5755Z" fill="url(#paint7_linear_128_460)"/>
<path d="M23.2988 42.4868C23.2988 42.0762 23.3725 41.7889 23.5198 41.6249C23.6681 41.4609 23.8935 41.3789 24.1961 41.3789C24.3414 41.3789 24.4608 41.3971 24.554 41.4334C24.6474 41.4688 24.7235 41.5154 24.7824 41.5734C24.8413 41.6303 24.8875 41.6908 24.9209 41.7546C24.9553 41.8174 24.9828 41.8911 25.0034 41.9756C25.0437 42.1367 25.0638 42.3046 25.0638 42.4794C25.0638 42.8713 24.9975 43.1582 24.8649 43.3397C24.7323 43.5216 24.504 43.6125 24.1799 43.6125C23.9981 43.6125 23.8513 43.5832 23.7393 43.5255C23.6274 43.4677 23.5356 43.3824 23.4638 43.2707C23.4118 43.191 23.371 43.0825 23.3415 42.945C23.3131 42.8065 23.2988 42.6538 23.2988 42.4868ZM23.894 42.4883C23.894 42.7633 23.9181 42.9514 23.9662 43.0525C24.0153 43.1526 24.086 43.2026 24.1784 43.2026C24.2393 43.2026 24.2918 43.1815 24.336 43.1393C24.3812 43.0962 24.4141 43.0285 24.4347 42.9361C24.4563 42.8438 24.4671 42.6999 24.4671 42.5045C24.4671 42.2177 24.4426 42.0252 24.3935 41.927C24.3453 41.8277 24.2727 41.7782 24.1754 41.7782C24.0762 41.7782 24.0045 41.8287 23.9603 41.9299C23.9161 42.0301 23.894 42.2162 23.894 42.4883Z" fill="url(#paint8_linear_128_460)"/>
<path d="M27.066 43.5755H25.2656C25.2863 43.3979 25.3486 43.2306 25.4527 43.0746C25.5578 42.9175 25.7542 42.7324 26.042 42.5192C26.2179 42.3886 26.3303 42.2894 26.3794 42.2216C26.4285 42.1539 26.4531 42.0895 26.4531 42.0286C26.4531 41.9628 26.4285 41.9068 26.3794 41.8607C26.3313 41.8135 26.2704 41.7899 26.1967 41.7899C26.1201 41.7899 26.0573 41.814 26.0082 41.8621C25.96 41.9102 25.9276 41.9952 25.9109 42.117L25.3098 42.0684C25.3334 41.8995 25.3766 41.7678 25.4395 41.6736C25.5023 41.5783 25.5908 41.5056 25.7047 41.4555C25.8196 41.4044 25.9782 41.3789 26.1805 41.3789C26.3917 41.3789 26.5557 41.403 26.6726 41.4511C26.7905 41.4992 26.8828 41.5734 26.9496 41.6736C27.0173 41.7727 27.0512 41.8843 27.0512 42.008C27.0512 42.1396 27.0124 42.2653 26.9348 42.3852C26.8582 42.505 26.7183 42.6366 26.515 42.78C26.3942 42.8635 26.3131 42.9219 26.2719 42.9553C26.2316 42.9887 26.184 43.0324 26.1289 43.0864H27.066V43.5755Z" fill="url(#paint9_linear_128_460)"/>
<path d="M29.0796 43.5755H27.2793C27.2999 43.3979 27.3623 43.2306 27.4664 43.0746C27.5715 42.9175 27.7679 42.7324 28.0557 42.5192C28.2315 42.3886 28.344 42.2894 28.393 42.2216C28.4422 42.1539 28.4667 42.0895 28.4667 42.0286C28.4667 41.9628 28.4422 41.9068 28.393 41.8607C28.3449 41.8135 28.284 41.7899 28.2104 41.7899C28.1338 41.7899 28.0709 41.814 28.0218 41.8621C27.9737 41.9102 27.9413 41.9952 27.9246 42.117L27.3235 42.0684C27.3471 41.8995 27.3903 41.7678 27.4531 41.6736C27.516 41.5783 27.6044 41.5056 27.7183 41.4555C27.8332 41.4044 27.9918 41.3789 28.1942 41.3789C28.4053 41.3789 28.5694 41.403 28.6862 41.4511C28.8041 41.4992 28.8965 41.5734 28.9632 41.6736C29.031 41.7727 29.0649 41.8843 29.0649 42.008C29.0649 42.1396 29.0261 42.2653 28.9485 42.3852C28.8719 42.505 28.7319 42.6366 28.5286 42.78C28.4078 42.8635 28.3268 42.9219 28.2855 42.9553C28.2452 42.9887 28.1976 43.0324 28.1426 43.0864H29.0796V43.5755Z" fill="url(#paint10_linear_128_460)"/>
<defs>
<linearGradient id="paint0_linear_128_460" x1="19.7068" y1="0" x2="19.7068" y2="10.9375" gradientUnits="userSpaceOnUse">
<stop stop-color="#117DC1"/>
<stop offset="1" stop-color="#1599EC"/>
</linearGradient>
<linearGradient id="paint1_linear_128_460" x1="7.0957" y1="30.1728" x2="43.3023" y2="30.1728" gradientUnits="userSpaceOnUse">
<stop stop-color="#EBEBEB"/>
<stop offset="1" stop-color="#A0A0A0"/>
</linearGradient>
<linearGradient id="paint2_linear_128_460" x1="24.6842" y1="36.9174" x2="23.1043" y2="52.9602" gradientUnits="userSpaceOnUse">
<stop offset="0.416667" stop-color="#C0C0C0"/>
<stop offset="1" stop-color="#EDEDED"/>
</linearGradient>
<linearGradient id="paint3_linear_128_460" x1="38.57" y1="36.0548" x2="7.00297" y2="13.0395" gradientUnits="userSpaceOnUse">
<stop stop-color="#EBEBEB"/>
<stop offset="1" stop-color="#979797"/>
</linearGradient>
<linearGradient id="paint4_linear_128_460" x1="29.0071" y1="20.8396" x2="40.0075" y2="39.8789" gradientUnits="userSpaceOnUse">
<stop stop-color="#767676"/>
<stop offset="1" stop-color="#AEAEAE"/>
</linearGradient>
<linearGradient id="paint5_linear_128_460" x1="7.64095" y1="22.1084" x2="23.0839" y2="39.8784" gradientUnits="userSpaceOnUse">
<stop stop-color="#7A7A7A"/>
<stop offset="1" stop-color="#AAAAAA"/>
</linearGradient>
<linearGradient id="paint6_linear_128_460" x1="21.2783" y1="24.41" x2="30.385" y2="35.8462" gradientUnits="userSpaceOnUse">
<stop stop-color="#6F6F6F"/>
<stop offset="1" stop-color="#BAB9B9"/>
</linearGradient>
<linearGradient id="paint7_linear_128_460" x1="21.2426" y1="41.1664" x2="29.1248" y2="43.9423" gradientUnits="userSpaceOnUse">
<stop stop-color="#878787"/>
<stop offset="1" stop-color="#9E9E9E"/>
</linearGradient>
<linearGradient id="paint8_linear_128_460" x1="21.2426" y1="41.1664" x2="29.1247" y2="43.9423" gradientUnits="userSpaceOnUse">
<stop stop-color="#878787"/>
<stop offset="1" stop-color="#9E9E9E"/>
</linearGradient>
<linearGradient id="paint9_linear_128_460" x1="21.2411" y1="41.1664" x2="29.1233" y2="43.9423" gradientUnits="userSpaceOnUse">
<stop stop-color="#878787"/>
<stop offset="1" stop-color="#9E9E9E"/>
</linearGradient>
<linearGradient id="paint10_linear_128_460" x1="21.2423" y1="41.1664" x2="29.1244" y2="43.9423" gradientUnits="userSpaceOnUse">
<stop stop-color="#878787"/>
<stop offset="1" stop-color="#9E9E9E"/>
</linearGradient>
</defs>
</svg>
