<svg width="63" height="60" viewBox="0 0 63 60" fill="none" xmlns="http://www.w3.org/2000/svg">
<path fill-rule="evenodd" clip-rule="evenodd" d="M31.0188 0C37.2399 0 42.283 5.04314 42.283 11.2642C42.283 17.4852 37.2399 22.5283 31.0188 22.5283C24.7977 22.5283 19.7547 17.4852 19.7547 11.2642C19.7547 5.04314 24.7977 0 31.0188 0ZM12.2008 57.8479C7.16785 54.1914 6.05215 47.1471 9.70878 42.1141C13.3654 37.0812 20.4096 35.9655 25.4426 39.6222C30.4755 43.2787 31.5911 50.323 27.9347 55.356C24.278 60.3889 17.2337 61.5046 12.2008 57.8479ZM52.3654 42.1141C56.0221 47.1471 54.9064 54.1914 49.8735 57.8479C44.8405 61.5046 37.7962 60.3889 34.1397 55.356C30.483 50.323 31.5987 43.2787 36.6316 39.6222C41.6645 35.9655 48.7089 37.0812 52.3654 42.1141ZM0.55435 22.0789C2.47675 16.1624 8.83146 12.9245 14.748 14.8469C20.6646 16.7693 23.9025 23.1241 21.9801 29.0406C20.0577 34.957 13.7029 38.1949 7.78638 36.2725C1.86983 34.3501 -1.36805 27.9955 0.55435 22.0789ZM47.282 14.8469C53.1987 12.9245 59.5533 16.1624 61.4757 22.0789C63.3981 27.9955 60.1602 34.3501 54.2437 36.2725C48.327 38.1949 41.9725 34.957 40.0501 29.0406C38.1277 23.1241 41.3656 16.7693 47.282 14.8469Z" fill="white"/>
</svg>
