<svg width="20" height="19" viewBox="0 0 20 19" fill="none" xmlns="http://www.w3.org/2000/svg">
<path fill-rule="evenodd" clip-rule="evenodd" d="M10 13.541C9.586 13.541 9.25 13.205 9.25 12.791V0.75C9.25 0.336 9.586 0 10 0C10.414 0 10.75 0.336 10.75 0.75V12.791C10.75 13.205 10.414 13.541 10 13.541Z" fill="white"/>
<path fill-rule="evenodd" clip-rule="evenodd" d="M10.0013 13.541C9.80231 13.541 9.61031 13.462 9.47031 13.32L6.55431 10.393C6.26231 10.099 6.26331 9.62403 6.55631 9.33203C6.85031 9.04003 7.32431 9.04003 7.61631 9.33403L10.0013 11.729L12.3863 9.33403C12.6783 9.04003 13.1523 9.04003 13.4463 9.33203C13.7393 9.62403 13.7403 10.099 13.4483 10.393L10.5323 13.32C10.3923 13.462 10.2003 13.541 10.0013 13.541Z" fill="white"/>
<mask id="mask0_561_46" style="mask-type:luminance" maskUnits="userSpaceOnUse" x="0" y="4" width="20" height="15">
<path fill-rule="evenodd" clip-rule="evenodd" d="M0 4.73254H19.9998V18.4765H0V4.73254Z" fill="white"/>
</mask>
<g mask="url(#mask0_561_46)">
<path fill-rule="evenodd" clip-rule="evenodd" d="M15.575 18.4765H4.435C1.99 18.4765 0 16.4875 0 14.0415V9.15654C0 6.71654 1.985 4.73254 4.426 4.73254H5.367C5.781 4.73254 6.117 5.06854 6.117 5.48254C6.117 5.89654 5.781 6.23254 5.367 6.23254H4.426C2.812 6.23254 1.5 7.54354 1.5 9.15654V14.0415C1.5 15.6605 2.816 16.9765 4.435 16.9765H15.575C17.187 16.9765 18.5 15.6635 18.5 14.0515V9.16754C18.5 7.54854 17.183 6.23254 15.566 6.23254H14.634C14.22 6.23254 13.884 5.89654 13.884 5.48254C13.884 5.06854 14.22 4.73254 14.634 4.73254H15.566C18.011 4.73254 20 6.72254 20 9.16754V14.0515C20 16.4915 18.014 18.4765 15.575 18.4765Z" fill="white"/>
</g>
</svg>
