<svg width="24" height="16" viewBox="0 0 24 16" fill="none" xmlns="http://www.w3.org/2000/svg">
<path fill-rule="evenodd" clip-rule="evenodd" d="M23.9905 8C23.9905 8 18.6222 15.5 12 15.5C5.37791 15.5 0.00958252 8 0.00958252 8C0.00958252 8 5.37791 0.5 12 0.5C18.6222 0.5 23.9905 8 23.9905 8ZM17.4725 8C17.4725 11.0137 15.0225 13.4568 12 13.4568C8.97758 13.4568 6.52748 11.0137 6.52748 8C6.52748 4.98634 8.97758 2.54324 12 2.54324C15.0225 2.54324 17.4725 4.98634 17.4725 8ZM12 11.1269C13.732 11.1269 15.136 9.72691 15.136 8C15.136 6.27309 13.732 4.87312 12 4.87312C10.2681 4.87312 8.86407 6.27309 8.86407 8C8.86407 9.72691 10.2681 11.1269 12 11.1269Z" fill="#005FCD"/>
</svg>
