<svg width="54" height="12" viewBox="0 0 54 12" fill="none" xmlns="http://www.w3.org/2000/svg">
<path d="M13.9515 7.10267V0.761719H16.2286V7.0233C16.2286 8.49458 17.0833 9.50596 18.7123 9.50596C20.3413 9.50596 21.1787 8.49357 21.1787 7.0233V0.761719H23.4721V7.08741C23.4721 9.71251 21.9214 11.4992 18.7123 11.4992C15.5011 11.4992 13.9515 9.69623 13.9515 7.10267Z" fill="#005FCD"/>
<path d="M28.883 9.82243L30.0999 8.1151C30.8437 8.89042 31.9975 9.53754 33.4525 9.53754C34.6867 9.53754 35.287 8.96877 35.287 8.36743C35.287 6.50137 29.2147 7.78238 29.2147 3.81318C29.2147 2.05803 30.7328 0.603027 33.2154 0.603027C34.8922 0.603027 36.2831 1.10872 37.3271 2.07431L36.0776 3.71856C35.225 2.92797 34.0854 2.56473 33.0099 2.56473C32.0453 2.56473 31.5081 2.99106 31.5081 3.62393C31.5081 5.29972 37.5642 4.17744 37.5642 8.1151C37.5642 10.0442 36.1885 11.4992 33.3426 11.4992C31.3188 11.4992 29.8638 10.8185 28.883 9.82243Z" fill="#005FCD"/>
<path d="M42.8331 6.00051C42.8331 2.79544 45.1764 0.5 48.3815 0.5C51.6018 0.5 53.9451 2.79544 53.9451 6.00051C53.9451 9.20456 51.6018 11.5 48.3815 11.5C45.1764 11.5 42.8331 9.20456 42.8331 6.00051ZM51.6171 6.00051C51.6171 4.00828 50.3421 2.50953 48.3815 2.50953C46.4208 2.50953 45.1611 4.00828 45.1611 6.00051C45.1611 7.97748 46.4208 9.49149 48.3815 9.49149C50.3421 9.49149 51.6171 7.97748 51.6171 6.00051Z" fill="#005FCD"/>
<path d="M6.16798 7.29192C7.30654 7.02331 8.47766 6.02719 8.47766 4.16113C8.47766 2.20044 7.13357 0.761719 4.93479 0.761719H0V2.73767H2.24558H2.41245H4.60309C5.50458 2.73767 6.18426 3.2749 6.18426 4.16113C6.18426 5.04634 5.50356 5.58458 4.60309 5.58458H2.41245H2.24558H0.00101731V11.3089H2.2466V7.56155H3.89187L5.96245 11.31H8.54075L6.16798 7.29192Z" fill="#005FCD"/>
</svg>
