<svg width="50" height="50" viewBox="0 0 50 50" fill="none" xmlns="http://www.w3.org/2000/svg">
<path fill-rule="evenodd" clip-rule="evenodd" d="M25 50C38.8071 50 50 38.8071 50 25C50 11.1929 38.8071 0 25 0C11.1929 0 0 11.1929 0 25C0 38.8071 11.1929 50 25 50ZM25.1523 7.0697C20.1918 7.0697 16.1706 11.091 16.1706 16.0514C16.1706 21.012 20.1918 25.0336 25.1523 25.0336C30.1129 25.0336 34.1341 21.012 34.1341 16.0514C34.1341 11.091 30.1129 7.0697 25.1523 7.0697ZM25.1523 19.7646C23.1018 19.7646 21.4395 18.1021 21.4395 16.0516C21.4395 14.0011 23.1018 12.3387 25.1523 12.3387C27.2028 12.3387 28.8652 14.0011 28.8652 16.0516C28.8652 18.1021 27.2028 19.7646 25.1523 19.7646ZM28.3233 32.1801C31.9191 31.4476 34.0738 29.7448 34.1878 29.6534C35.24 28.8096 35.409 27.2725 34.5652 26.2202C33.7215 25.168 32.1846 24.999 31.1322 25.8427C31.1099 25.8607 28.8117 27.6237 25.0304 27.6263C21.2491 27.6237 18.9024 25.8607 18.8801 25.8427C17.8277 24.999 16.2908 25.168 15.4471 26.2202C14.6032 27.2725 14.7723 28.8096 15.8245 29.6534C15.94 29.7461 18.1837 31.4932 21.8802 32.2085L16.7284 37.5926C15.7922 38.5635 15.8203 40.1096 16.7913 41.0458C17.2652 41.5027 17.876 41.7299 18.4863 41.7299C19.1261 41.7299 19.7653 41.4799 20.2445 40.9828L25.0305 35.8845L30.2999 41.0159C31.2547 41.9691 32.8007 41.9675 33.7536 41.0131C34.7066 40.0587 34.7054 38.5124 33.7509 37.5594L28.3233 32.1801Z" fill="white"/>
</svg>
