<svg width="20" height="17" viewBox="0 0 20 17" fill="none" xmlns="http://www.w3.org/2000/svg">
<path fill-rule="evenodd" clip-rule="evenodd" d="M9.99889 5.64111C8.66889 5.64111 7.58789 6.72311 7.58789 8.05311C7.58789 9.38211 8.66889 10.4631 9.99889 10.4631C11.3289 10.4631 12.4109 9.38211 12.4109 8.05311C12.4109 6.72311 11.3289 5.64111 9.99889 5.64111ZM9.99889 11.9631C7.84189 11.9631 6.08789 10.2091 6.08789 8.05311C6.08789 5.89611 7.84189 4.14111 9.99889 4.14111C12.1559 4.14111 13.9109 5.89611 13.9109 8.05311C13.9109 10.2091 12.1559 11.9631 9.99889 11.9631Z" fill="white"/>
<mask id="mask0_561_37" style="mask-type:luminance" maskUnits="userSpaceOnUse" x="0" y="0" width="20" height="17">
<path fill-rule="evenodd" clip-rule="evenodd" d="M0 0H19.9998V16.105H0V0Z" fill="white"/>
</mask>
<g mask="url(#mask0_561_37)">
<path fill-rule="evenodd" clip-rule="evenodd" d="M1.57031 8.05224C3.43031 12.1612 6.56331 14.6042 10.0003 14.6052C13.4373 14.6042 16.5703 12.1612 18.4303 8.05224C16.5703 3.94424 13.4373 1.50124 10.0003 1.50024C6.56431 1.50124 3.43031 3.94424 1.57031 8.05224ZM10.0017 16.1053H9.99775H9.99675C5.86075 16.1023 2.14675 13.2033 0.06075 8.34826C-0.02025 8.15926 -0.02025 7.94526 0.06075 7.75626C2.14675 2.90226 5.86175 0.00326172 9.99675 0.000261719C9.99875 -0.000738281 9.99875 -0.000738281 9.99975 0.000261719C10.0017 -0.000738281 10.0017 -0.000738281 10.0028 0.000261719C14.1388 0.00326172 17.8527 2.90226 19.9387 7.75626C20.0208 7.94526 20.0208 8.15926 19.9387 8.34826C17.8537 13.2033 14.1388 16.1023 10.0028 16.1053H10.0017Z" fill="white"/>
</g>
</svg>
