<svg width="1360" height="198" viewBox="0 0 1360 198" fill="none" xmlns="http://www.w3.org/2000/svg">
<path d="M1360 152.498V193.932H1182.8V4.34681H1355.9V45.7813H1244.6V77.7244H1342.66V117.803H1244.6V152.458H1360V152.498ZM924.204 4.34681H985.682V115.65L1076.83 4.34681H1135.48V193.932H1074V82.8689L983.177 193.932H924.204V4.34681ZM876.922 4.34681V193.932H814.489V119.996H729.35V193.932H666.917V4.34681H729.35V75.571H814.489V4.34681H876.922ZM631.287 152.498V193.932H454.049V4.34681H627.151V45.7813H515.846V77.7244H613.909V117.803H515.846V152.458H631.247L631.287 152.498ZM324.133 102.131C336.938 102.131 346.641 99.7378 353.123 94.9523C359.644 90.1668 362.905 83.3474 362.905 74.4942C362.905 65.6411 359.644 58.7818 353.123 53.9166C346.601 49.0513 336.938 46.6187 324.133 46.6187H289.457V102.131H324.133ZM327.911 4.34681C347.874 4.34681 365.212 7.17823 379.925 12.881C394.639 18.5837 405.972 26.6791 413.965 37.2471C421.958 47.8151 425.935 60.2175 425.935 74.4942C425.935 88.771 421.958 101.134 413.965 111.622C405.972 122.11 394.639 130.166 379.925 135.868C365.212 141.571 347.874 144.402 327.911 144.402H289.457V193.972H227.025V4.3867H327.951L327.911 4.34681ZM154.173 95.3511C166.381 99.339 175.925 105.281 182.884 113.217C189.804 121.153 193.303 130.285 193.303 140.574C193.303 152.299 188.69 162.508 179.425 171.201C170.159 179.855 157.673 186.515 141.885 191.101C126.098 195.687 108.76 198 89.8713 198C74.9591 198 59.7684 196.445 44.2994 193.414C28.8304 190.343 14.0772 185.717 0 179.616L18.6105 142.249C28.4725 146.596 39.0503 149.866 50.3041 152.139C61.5579 154.412 72.414 155.529 82.952 155.529C96.8304 155.529 108.164 153.575 116.992 149.706C125.82 145.838 130.234 140.375 130.234 133.316C130.234 127.733 127.49 123.546 122.042 120.874C116.594 118.162 109.198 116.806 99.9719 116.806H43.4643V77.5251H94.8819C103.312 77.5251 109.794 76.0894 114.447 73.1782C119.06 70.3069 121.366 66.3988 121.366 61.5335C121.366 55.3921 117.787 50.6465 110.629 47.2967C103.471 43.9468 94.2456 42.2719 82.8725 42.2719C73.6468 42.2719 63.8643 43.3885 53.5649 45.6616C43.2655 47.9347 33.483 51.1251 24.2573 55.2725L5.96491 14.6356C29.5064 4.90513 55.3544 0 83.5485 0C101.642 0 118.384 2.19334 133.853 6.61992C149.322 11.0465 161.609 17.4272 170.756 25.722C179.902 34.0169 184.475 43.867 184.475 55.2326C184.475 64.0858 181.811 71.9819 176.442 78.9208C171.074 85.8598 163.677 91.3232 154.213 95.3112L154.173 95.3511Z" fill="#005FCD"/>
</svg>
