<svg width="310" height="230" viewBox="0 0 310 230" fill="none" xmlns="http://www.w3.org/2000/svg">
<path d="M340.998 195.589L298.253 166.772C295.692 164.851 287.207 157.166 292.49 136.514C298.579 112.711 298.734 53.4257 231.014 14.5229C163.294 -24.3799 104.22 32.2933 98.4564 39.4975C92.6931 46.7018 75.8832 69.275 70.1199 72.637C64.3565 75.9989 52.3494 99.0524 54.7508 119.224C57.1523 139.396 63.5306 153.653 72.5212 161.009C83.0874 169.654 90.2916 185.023 98.4564 193.668C106.398 202.077 137.359 229.689 172.42 228.728C207.48 227.768 234.856 220.564 254.548 201.833C274.239 183.102 301.135 219.603 315.544 228.728" stroke="#9AA6BE"/>
<path d="M336.676 202.313C322.691 193.62 297.701 176.42 287.688 164.243M80.6858 86.0849C92.2125 27.4906 155.611 0.59476 208.921 13.0821C261.837 25.4772 281.924 80.8018 286.246 96.1708C290.569 111.54 283.365 142.278 283.365 155.726C283.365 158.018 284.978 160.946 287.688 164.243M80.6858 86.0849C79.405 92.9689 77.1692 103.457 80.6858 104.336C83.2524 104.977 84.319 97.4792 87.8913 92.7132M80.6858 86.0849C82.2871 79.3609 83.5688 67.8342 73.9631 75.999C62.8333 85.4593 59.5547 100.974 59.5547 114.902C59.5547 131.712 65.5365 149.118 75.8842 157.167C80.2068 160.529 82.8825 158.607 81.6475 154.285M81.6475 154.285C75.8841 134.113 78.7658 128.35 80.6858 127.869C82.6057 127.389 83.5686 130.751 85.0095 135.074C85.3931 136.224 86.0831 137.375 86.9527 138.436M81.6475 154.285C87.4109 174.457 121.511 225.847 184.428 222.485C247.345 219.123 258.391 172.536 277.122 186.944M277.122 186.944C292.666 198.901 314.904 215.281 323.709 222.485M277.122 186.944C273.44 183.262 264.251 177.627 256.95 184.543C247.825 193.188 199.797 244.097 125.834 201.833M287.688 164.243C284.166 161.884 277.602 154.381 279.524 143.238C281.925 129.31 289.359 97.5498 271.839 68.7947C251.94 36.1356 200.757 -9.97141 126.314 29.4117M86.9527 138.436C89.349 141.357 93.1087 143.591 95.5752 143.238C97.0773 143.024 99.0592 142.617 100.921 139.876M86.9527 138.436L91.7335 149.482M100.921 139.876C103.225 136.483 105.345 129.513 106.142 114.902C106.944 100.189 103.448 93.3139 99.8983 90.5486M100.921 139.876L97.4969 149.482M87.8913 92.7132C89.6682 90.3424 92.0652 88.6475 95.5752 88.9666C96.791 88.9179 98.3497 89.3421 99.8983 90.5486M87.8913 92.7132L92.2138 81.7623M99.8983 90.5486L97.4969 82.2426" stroke="#9AA6BE"/>
<path d="M332.355 208.076L288.649 176.378C281.765 171.095 268.958 157.839 272.8 147.081C276.642 136.322 277.603 124.347 277.604 119.704L280.485 115.862L277.604 112.5C277.123 94.2496 267.23 52.8493 231.497 33.2538C186.83 8.7595 147.447 25.0891 140.723 27.9708C135.344 30.2761 129.197 29.8919 126.795 29.4116C121.63 33.07 112.512 39.6211 103.891 49.5834M327.553 215.281C319.068 207.756 297.583 189.922 279.525 178.779C256.952 164.851 256.952 185.983 218.529 205.195C187.791 220.564 150.969 209.357 136.401 201.833H125.835C119.061 197.962 111.42 191.058 104.222 182.721M89.4943 72.1567C85.6398 80.9645 83.0046 91.1709 82.6094 102.895C82.9296 109.779 83.3778 124.603 82.6094 128.83C83.2 136.035 85.5592 149.562 89.4378 160.048M89.4943 72.1567C89.1205 75.8388 89.8136 83.1071 95.577 82.7228C102.781 82.2426 99.8995 73.1172 99.8995 66.8736C99.8995 60.6299 100.198 53.6258 103.891 49.5834M89.4943 72.1567C93.3965 63.2401 98.5483 55.7568 103.891 49.5834M89.4378 160.048C90.8158 163.774 92.3857 167.116 94.1361 169.654C97.2902 174.227 100.703 178.645 104.222 182.721M89.4378 160.048C88.7626 156.046 88.9491 148.233 95.0967 149.002C102.781 149.962 99.4192 157.166 99.4192 161.489C99.4192 165.812 99.4192 178.498 104.222 182.721" stroke="#9AA6BE"/>
<path opacity="0.2" d="M0 128.35V103.375C11.5268 103.375 182.027 107.217 270.879 107.217L209.883 115.382L272.8 122.106L225.252 124.988L270.879 133.152C202.198 130.271 78.2859 127.389 0 128.35Z" fill="#005FCD"/>
<circle cx="272.898" cy="106.834" r="3.47959" fill="#005FCD"/>
<circle cx="272.898" cy="121.746" r="3.47959" fill="#005FCD"/>
<circle cx="271.901" cy="133.676" r="3.47959" fill="#005FCD"/>
</svg>
