<svg width="310" height="237" viewBox="0 0 310 237" fill="none" xmlns="http://www.w3.org/2000/svg">
<path d="M334 201.789L289.893 172.054C287.25 170.072 278.494 162.142 283.946 140.832C290.229 116.271 290.388 55.0965 220.511 14.9542C150.634 -25.1881 89.677 33.2908 83.73 40.7245C77.783 48.1583 60.4376 71.4507 54.4906 74.9198C48.5436 78.3889 36.154 102.177 38.6319 122.991C41.1098 143.806 47.6914 158.517 56.9685 166.107C67.8713 175.028 75.3051 190.886 83.73 199.807C91.925 208.484 123.872 236.976 160.05 235.984C196.227 234.993 224.476 227.559 244.795 208.232C265.114 188.904 292.866 226.568 307.734 235.984" stroke="#9AA6BE"/>
<path d="M329.54 208.727C315.11 199.757 289.324 182.01 278.992 169.444M65.3942 88.7963C77.2882 28.3351 142.707 0.582403 197.715 13.4676C252.317 26.2576 273.044 83.3449 277.504 99.2036C281.964 115.062 274.53 146.78 274.53 160.656C274.53 163.021 276.195 166.043 278.992 169.444M65.3942 88.7963C64.0726 95.8997 61.7655 106.722 65.3942 107.628C68.0426 108.29 69.1432 100.554 72.8293 95.6357M65.3942 88.7963C67.0466 81.8581 68.369 69.9641 58.4573 78.389C46.9729 88.1508 43.5898 104.159 43.5898 118.531C43.5899 135.877 49.7622 153.838 60.4396 162.143C64.8999 165.612 67.6609 163.629 66.3865 159.169M66.3865 159.169C60.4395 138.355 63.413 132.408 65.3942 131.912C67.3753 131.416 68.3689 134.886 69.8556 139.346C70.2515 140.533 70.9635 141.721 71.8607 142.815M66.3865 159.169C72.3335 179.984 107.52 233.011 172.442 229.542C237.363 226.073 248.761 178.001 268.089 192.869M268.089 192.869C284.128 205.207 307.075 222.108 316.161 229.542M268.089 192.869C264.29 189.069 254.808 183.254 247.275 190.391C237.859 199.311 188.3 251.843 111.98 208.232M278.992 169.444C275.358 167.01 268.585 159.268 270.567 147.771C273.045 133.399 280.716 100.626 262.638 70.9553C242.105 37.2556 189.291 -10.3204 112.476 30.3174M71.8607 142.815C74.3334 145.83 78.2129 148.134 80.758 147.771C82.3079 147.549 84.3529 147.13 86.2738 144.302M71.8607 142.815L76.7939 154.213M86.2738 144.302C88.6515 140.801 90.8389 133.608 91.6613 118.531C92.4894 103.35 88.8812 96.2556 85.2189 93.4022M86.2738 144.302L82.7409 154.213M72.8293 95.6357C74.6628 93.1894 77.1361 91.4405 80.758 91.7698C82.0126 91.7196 83.6209 92.1572 85.2189 93.4022M72.8293 95.6357L77.2895 84.336M85.2189 93.4022L82.7409 84.8316" stroke="#9AA6BE"/>
<path d="M325.081 214.674L279.983 181.966C272.88 176.514 259.664 162.836 263.629 151.735C267.594 140.634 268.585 128.278 268.586 123.487L271.559 119.522L268.586 116.053C268.09 97.221 257.881 54.5017 221.01 34.2819C174.921 9.00715 134.283 25.857 127.345 28.8305C121.794 31.2093 115.451 30.8128 112.973 30.3172C107.643 34.0922 98.2345 40.852 89.3384 51.1318M320.126 222.108C311.371 214.344 289.202 195.941 270.568 184.444C247.276 170.072 247.276 191.877 207.629 211.701C175.912 227.559 137.917 215.996 122.884 208.232H111.981C104.991 204.237 97.1072 197.113 89.6802 188.511M74.4832 74.4242C70.5058 83.5126 67.7867 94.0442 67.3789 106.142C67.7093 113.245 68.1718 128.542 67.3789 132.903C67.9883 140.338 70.4227 154.296 74.4249 165.116M74.4832 74.4242C74.0975 78.2236 74.8127 85.7235 80.7597 85.327C88.1934 84.8314 85.2199 75.4153 85.2199 68.9728C85.2199 62.5302 85.5275 55.3029 89.3384 51.1318M74.4832 74.4242C78.5097 65.2235 83.8256 57.5018 89.3384 51.1318M74.4249 165.116C75.8468 168.96 77.4667 172.409 79.2729 175.028C82.5275 179.747 86.0492 184.306 89.6802 188.511M74.4249 165.116C73.7282 160.986 73.9206 152.925 80.2641 153.718C88.1934 154.709 84.7243 162.142 84.7243 166.603C84.7243 171.063 84.7243 184.153 89.6802 188.511" stroke="#9AA6BE"/>
<path fill-rule="evenodd" clip-rule="evenodd" d="M59.507 107.375H0.00168421V109.375H59.4666L176.224 118.818L0 119.115L0.00336841 121.115L174.387 120.821L59.4678 129.834H0.00168421V131.834H59.507H59.5461L59.5852 131.831L200.488 120.781L216.497 122.075C217.573 125.026 220.404 127.132 223.727 127.132C226.608 127.132 229.12 125.548 230.438 123.203L267.695 126.216L268.776 126.303V125.219V114.501V113.419L267.697 113.504L230.796 116.398C229.617 113.661 226.896 111.745 223.727 111.745C220.134 111.745 217.116 114.207 216.27 117.537L200.49 118.774L59.5876 107.379L59.5474 107.375H59.507ZM216.034 119.561L213.083 119.793L216.056 120.033C216.044 119.877 216.036 119.72 216.034 119.561ZM231.204 121.258L266.776 124.135V115.582L231.346 118.361C231.395 118.713 231.421 119.073 231.421 119.438C231.421 120.065 231.346 120.675 231.204 121.258Z" fill="#005FCD"/>
</svg>
