<svg width="521" height="350" viewBox="0 0 521 350" fill="none" xmlns="http://www.w3.org/2000/svg">
<path d="M520.002 311.472L447.872 262.845C443.55 259.603 429.232 246.636 438.147 211.787C448.422 171.621 448.683 71.5808 334.41 5.93495C220.138 -59.7109 120.454 35.9213 110.728 48.078C101.003 60.2346 72.6374 98.3254 62.9121 103.998C53.1868 109.672 32.9258 148.573 36.978 182.611C41.0302 216.65 51.7932 240.707 66.9643 253.12C84.794 267.708 96.9506 293.642 110.728 308.23C124.13 322.42 176.374 369.013 235.536 367.392C294.699 365.771 340.894 353.615 374.122 322.008C407.35 290.4 452.735 351.994 477.048 367.392" stroke="#9AA6BE"/>
<path d="M512.705 322.818C489.107 308.149 446.939 279.125 430.042 258.577M80.7393 126.691C100.19 27.8166 207.171 -17.5683 297.127 3.50329C386.42 24.4191 420.315 117.776 427.609 143.71C434.903 169.644 422.746 221.512 422.746 244.205C422.746 248.072 425.468 253.014 430.042 258.577M80.7393 126.691C78.5781 138.307 74.8053 156.004 80.7393 157.487C85.0704 158.57 86.8702 145.918 92.8981 137.875M80.7393 126.691C83.4415 115.344 85.6042 95.8937 69.3953 109.671C50.6145 125.635 45.082 151.814 45.082 175.317C45.0821 203.683 55.1759 233.055 72.637 246.636C79.931 252.309 84.4462 249.067 82.3622 241.773M82.3622 241.773C72.6369 207.735 77.4995 198.009 80.7393 197.199C83.9791 196.389 85.6039 202.062 88.0353 209.356C88.6826 211.298 89.847 213.24 91.3143 215.029M82.3622 241.773C92.0875 275.812 149.629 362.529 255.797 356.856C361.965 351.183 380.605 272.57 412.212 296.883M412.212 296.883C438.442 317.06 475.967 344.7 490.825 356.856M412.212 296.883C405.999 290.67 390.493 281.161 378.174 292.831C362.775 307.419 281.731 393.326 156.923 322.007M430.042 258.577C424.099 254.596 413.023 241.935 416.265 223.133C420.317 199.63 432.862 146.037 403.298 97.5146C369.719 42.4045 283.352 -35.398 157.734 31.0583M91.3143 215.029C95.358 219.959 101.702 223.728 105.864 223.133C108.399 222.771 111.743 222.085 114.884 217.46M91.3143 215.029L99.3817 233.669M114.884 217.46C118.773 211.735 122.35 199.973 123.695 175.317C125.049 150.49 119.148 138.889 113.159 134.223M114.884 217.46L109.107 233.669M92.8981 137.875C95.8966 133.875 99.9413 131.015 105.864 131.553C107.916 131.471 110.546 132.187 113.159 134.223M92.8981 137.875L100.192 119.397M113.159 134.223L109.107 120.207" stroke="#9AA6BE"/>
<path d="M505.413 332.544L431.663 279.054C420.046 270.14 398.435 247.771 404.918 229.617C411.402 211.464 413.024 191.256 413.024 183.422L417.887 176.939L413.024 171.266C412.214 140.469 395.518 70.6086 335.222 37.5426C259.85 -3.79 193.394 23.765 182.048 28.6277C172.971 32.5178 162.597 31.8695 158.545 31.059C149.83 37.2323 134.444 48.2869 119.895 65.0976M497.31 344.7C482.992 332.003 446.738 301.909 416.266 283.107C378.175 259.604 378.175 295.263 313.34 327.681C261.471 353.615 199.337 334.705 174.754 322.008H156.924C145.493 315.476 132.6 303.826 120.454 289.758M95.6023 103.188C89.098 118.051 84.6512 135.274 83.9844 155.057C84.5247 166.673 85.2811 191.689 83.9844 198.821C84.981 210.98 88.962 233.805 95.5069 251.499M95.6023 103.188C94.9714 109.402 96.141 121.667 105.866 121.018C118.023 120.208 113.16 104.809 113.16 94.2736C113.16 83.7378 113.663 71.9188 119.895 65.0976M95.6023 103.188C102.187 88.1424 110.88 75.5148 119.895 65.0976M95.5069 251.499C97.8322 257.786 100.481 263.425 103.435 267.708C108.757 275.426 114.516 282.881 120.454 289.758M95.5069 251.499C94.3675 244.746 94.6822 231.563 105.056 232.859C118.023 234.48 112.35 246.637 112.35 253.931C112.35 261.225 112.35 282.632 120.454 289.758" stroke="#9AA6BE"/>
<path fill-rule="evenodd" clip-rule="evenodd" d="M94.4804 157H0.00112156V159H94.457L454.229 175.831L0 176.341L0.00224312 178.341L450.774 177.835L94.4577 194H0.00112156V196H94.4804H94.5031L94.5257 195.999L484.859 178.291C485.596 184.538 490.909 189.383 497.353 189.383C504.302 189.383 509.935 183.75 509.935 176.801C509.935 169.852 504.302 164.219 497.353 164.219C490.925 164.219 485.623 169.039 484.864 175.263L94.5271 157.001L94.5038 157H94.4804Z" fill="#005FCD"/>
</svg>
