<svg width="1008" height="356" viewBox="0 0 1008 356" fill="none" xmlns="http://www.w3.org/2000/svg">
<path d="M160 8V5H158.547L157.646 6.14012L160 8ZM273 8H276V5H273V8ZM273 213H270V216H273V213ZM315.5 213H318.5V210H315.5V213ZM315.5 302.5V305.5H318.5V302.5H315.5ZM273 302.5V299.5H270V302.5H273ZM273 348V351H276V348H273ZM169 348H166V351H169V348ZM169 302.5H172V299.5H169V302.5ZM9.53674e-07 302.5H-3V305.5H9.53674e-07V302.5ZM9.53674e-07 210.5L-2.3539 208.64L-3 209.458V210.5H9.53674e-07ZM169 213V216H172V213H169ZM169 133.5H172V124.937L166.656 131.628L169 133.5ZM105.5 213L103.156 211.128L99.2643 216H105.5V213ZM160 11H273V5H160V11ZM270 8V213H276V8H270ZM273 216H315.5V210H273V216ZM312.5 213V302.5H318.5V213H312.5ZM315.5 299.5H273V305.5H315.5V299.5ZM270 302.5V348H276V302.5H270ZM273 345H169V351H273V345ZM172 348V302.5H166V348H172ZM169 299.5H9.53674e-07V305.5H169V299.5ZM3 302.5V210.5H-3V302.5H3ZM2.3539 212.36L162.354 9.85987L157.646 6.14012L-2.3539 208.64L2.3539 212.36ZM172 213V133.5H166V213H172ZM166.656 131.628L103.156 211.128L107.844 214.872L171.344 135.372L166.656 131.628ZM105.5 216H169V210H105.5V216ZM354.379 246.5L351.494 247.324L351.502 247.352L351.511 247.379L354.379 246.5ZM354.379 110L351.507 109.134L351.502 109.149L351.498 109.164L354.379 110ZM382.379 53.5L379.99 51.6847L379.979 51.7L379.967 51.7155L382.379 53.5ZM432.879 14.5L434.097 17.2414L434.107 17.237L434.117 17.2325L432.879 14.5ZM579.379 14.5L578.124 17.2251L578.142 17.2334L578.16 17.2414L579.379 14.5ZM629.379 53.5L626.967 55.2845L626.979 55.2999L626.99 55.3152L629.379 53.5ZM657.379 110L654.494 110.824L654.502 110.852L654.511 110.879L657.379 110ZM657.379 246.5L654.507 245.634L654.502 245.649L654.498 245.664L657.379 246.5ZM629.379 302.5L626.99 300.685L626.979 300.7L626.967 300.715L629.379 302.5ZM579.379 342L580.597 344.741L580.615 344.733L580.633 344.725L579.379 342ZM432.879 342L431.624 344.725L431.65 344.737L431.676 344.748L432.879 342ZM382.379 302.5L379.967 304.285L379.979 304.3L379.99 304.315L382.379 302.5ZM540.879 238L543.458 239.533L543.466 239.518L543.475 239.503L540.879 238ZM540.879 118.5L538.283 120.003L538.291 120.018L538.3 120.033L540.879 118.5ZM471.379 118L468.8 116.467L471.379 118ZM471.379 238L468.8 239.533L471.379 238ZM357.263 245.676C351.349 224.976 348.379 202.423 348.379 178H342.379C342.379 202.91 345.409 226.024 351.494 247.324L357.263 245.676ZM348.379 178C348.379 153.576 351.349 131.195 357.26 110.836L351.498 109.164C345.408 130.138 342.379 153.091 342.379 178H348.379ZM357.251 110.866C363.491 90.1772 372.674 71.6581 384.79 55.2845L379.967 51.7155C367.417 68.6752 357.934 87.8227 351.507 109.134L357.251 110.866ZM384.767 55.3152C397.099 39.0893 413.513 26.39 434.097 17.2414L431.66 11.7585C410.245 21.2766 392.992 34.5773 379.99 51.6847L384.767 55.3152ZM434.117 17.2325C454.997 7.77119 479.063 2.99998 506.379 2.99998V-3.00002C478.362 -3.00002 453.427 1.89544 431.641 11.7674L434.117 17.2325ZM506.379 2.99998C533.696 2.99998 557.588 7.77164 578.124 17.2251L580.633 11.7748C559.17 1.89499 534.395 -3.00002 506.379 -3.00002V2.99998ZM578.16 17.2414C598.739 26.3876 614.975 39.0784 626.967 55.2845L631.79 51.7155C619.116 34.5882 602.018 21.2791 580.597 11.7585L578.16 17.2414ZM626.99 55.3152C639.422 71.6724 648.592 90.1667 654.494 110.824L660.263 109.176C654.166 87.8333 644.669 68.6609 631.767 51.6847L626.99 55.3152ZM654.511 110.879C660.745 131.224 663.879 153.59 663.879 178H669.879C669.879 153.077 666.679 130.109 660.247 109.121L654.511 110.879ZM663.879 178C663.879 202.409 660.745 224.947 654.507 245.634L660.251 247.366C666.679 226.053 669.879 202.924 669.879 178H663.879ZM654.498 245.664C648.598 265.987 639.428 284.32 626.99 300.685L631.767 304.315C644.663 287.347 654.16 268.347 660.26 247.336L654.498 245.664ZM626.967 300.715C614.968 316.931 598.72 329.795 578.124 339.275L580.633 344.725C602.038 334.872 619.123 321.402 631.79 304.285L626.967 300.715ZM578.16 339.259C557.614 348.39 533.71 353 506.379 353V359C534.381 359 559.144 354.276 580.597 344.741L578.16 339.259ZM506.379 353C479.049 353 454.971 348.391 434.081 339.252L431.676 344.748C453.453 354.276 478.375 359 506.379 359V353ZM434.133 339.275C413.533 329.792 397.106 316.92 384.767 300.685L379.99 304.315C392.985 321.413 410.225 334.875 431.624 344.725L434.133 339.275ZM384.79 300.715C372.668 284.334 363.485 265.976 357.247 245.621L351.511 247.379C357.939 268.357 367.423 287.333 379.967 304.285L384.79 300.715ZM543.475 239.503C551.216 226.133 554.879 205.475 554.879 178H548.879C548.879 205.192 545.209 224.533 538.283 236.497L543.475 239.503ZM554.879 178C554.879 150.536 551.219 130.021 543.458 116.967L538.3 120.033C545.205 131.646 548.879 150.797 548.879 178H554.879ZM543.475 116.997C535.561 103.327 523.024 96.5 506.379 96.5V102.5C521.067 102.5 531.53 108.34 538.283 120.003L543.475 116.997ZM506.379 96.5C489.467 96.5 476.745 103.105 468.8 116.467L473.958 119.533C480.679 108.228 491.291 102.5 506.379 102.5V96.5ZM468.8 116.467C461.036 129.524 457.379 150.211 457.379 178H463.379C463.379 150.456 467.055 131.142 473.958 119.533L468.8 116.467ZM457.379 178C457.379 205.789 461.036 226.476 468.8 239.533L473.958 236.467C467.055 224.858 463.379 205.544 463.379 178H457.379ZM468.8 239.533C476.745 252.895 489.467 259.5 506.379 259.5V253.5C491.291 253.5 480.679 247.772 473.958 236.467L468.8 239.533ZM506.379 259.5C522.986 259.5 535.526 252.873 543.458 239.533L538.3 236.467C531.565 247.794 521.105 253.5 506.379 253.5V259.5ZM851.895 8V5H850.441L849.541 6.14012L851.895 8ZM964.895 8H967.895V5H964.895V8ZM964.895 213H961.895V216H964.895V213ZM1007.39 213H1010.39V210H1007.39V213ZM1007.39 302.5V305.5H1010.39V302.5H1007.39ZM964.895 302.5V299.5H961.895V302.5H964.895ZM964.895 348V351H967.895V348H964.895ZM860.895 348H857.895V351H860.895V348ZM860.895 302.5H863.895V299.5H860.895V302.5ZM691.895 302.5H688.895V305.5H691.895V302.5ZM691.895 210.5L689.541 208.64L688.895 209.458V210.5H691.895ZM860.895 213V216H863.895V213H860.895ZM860.895 133.5H863.895V124.937L858.55 131.628L860.895 133.5ZM797.395 213L795.05 211.128L791.159 216H797.395V213ZM851.895 11H964.895V5H851.895V11ZM961.895 8V213H967.895V8H961.895ZM964.895 216H1007.39V210H964.895V216ZM1004.39 213V302.5H1010.39V213H1004.39ZM1007.39 299.5H964.895V305.5H1007.39V299.5ZM961.895 302.5V348H967.895V302.5H961.895ZM964.895 345H860.895V351H964.895V345ZM863.895 348V302.5H857.895V348H863.895ZM860.895 299.5H691.895V305.5H860.895V299.5ZM694.895 302.5V210.5H688.895V302.5H694.895ZM694.248 212.36L854.248 9.85987L849.541 6.14012L689.541 208.64L694.248 212.36ZM863.895 213V133.5H857.895V213H863.895ZM858.55 131.628L795.05 211.128L799.739 214.872L863.239 135.372L858.55 131.628ZM797.395 216H860.895V210H797.395V216Z" fill="#005FCD"/>
</svg>
