<svg width="581" height="350" viewBox="0 0 581 350" fill="none" xmlns="http://www.w3.org/2000/svg">
<path d="M580.003 322.216L503.409 270.58C498.819 267.138 483.615 253.368 493.082 216.363C503.993 173.711 504.27 67.4787 382.925 -2.2299C261.581 -71.9385 155.727 29.6123 145.4 42.5213C135.072 55.4303 104.951 95.8785 94.6241 101.903C84.2969 107.927 62.7819 149.236 67.0849 185.381C71.3879 221.526 82.817 247.072 98.9271 260.253C117.86 275.744 130.769 303.283 145.399 318.774C159.63 333.842 215.108 383.319 277.932 381.598C340.756 379.877 389.81 366.968 425.095 333.404C460.379 299.841 508.573 365.246 534.391 381.598" stroke="#9AA6BE"/>
<path d="M572.255 334.265C547.197 318.688 502.419 287.868 484.477 266.048M113.555 126C134.21 21.0065 247.811 -27.1872 343.336 -4.81149C438.154 17.3988 474.147 116.533 481.892 144.072C489.638 171.612 476.729 226.69 476.729 250.787C476.729 254.894 479.619 260.141 484.477 266.048M113.555 126C111.261 138.335 107.254 157.128 113.555 158.703C118.155 159.852 120.066 146.417 126.467 137.877M113.555 126C116.425 113.951 118.721 93.2969 101.509 107.927C81.5663 124.879 75.6914 152.678 75.6914 177.636C75.6915 207.757 86.41 238.947 104.952 253.369C112.697 259.393 117.492 255.95 115.279 248.205M115.279 248.205C104.952 212.06 110.115 201.733 113.555 200.872C116.996 200.011 118.721 206.036 121.303 213.781C121.99 215.843 123.227 217.905 124.785 219.805M115.279 248.205C125.606 284.35 186.709 376.434 299.447 370.41C412.186 364.386 431.98 280.908 465.543 306.726M465.543 306.726C493.396 328.151 533.244 357.501 549.022 370.41M465.543 306.726C458.945 300.128 442.479 290.03 429.398 302.423C413.047 317.914 326.987 409.137 194.454 333.404M484.477 266.048C478.166 261.822 466.404 248.377 469.846 228.411C474.149 203.454 487.471 146.543 456.077 95.0181C420.42 36.4973 328.708 -46.1203 195.315 24.4489M124.785 219.805C129.079 225.041 135.816 229.043 140.235 228.411C142.927 228.027 146.478 227.298 149.814 222.387M124.785 219.805L133.352 239.599M149.814 222.387C153.943 216.307 157.741 203.818 159.169 177.636C160.607 151.272 154.342 138.953 147.982 133.998M149.814 222.387L143.679 239.599M126.467 137.877C129.651 133.629 133.946 130.592 140.235 131.163C142.414 131.076 145.207 131.836 147.982 133.998M126.467 137.877L134.212 118.254M147.982 133.998L143.679 119.115" stroke="#9AA6BE"/>
<path d="M564.511 344.592L486.196 287.792C473.861 278.326 450.911 254.573 457.796 235.296C464.681 216.018 466.403 194.561 466.404 186.242L471.567 179.357L466.404 173.333C465.543 140.63 447.815 66.4459 383.786 31.3335C303.75 -12.5572 233.181 16.7032 221.133 21.8669C211.494 25.9977 200.478 25.3093 196.175 24.4487C186.921 31.004 170.582 42.7428 155.133 60.5939M555.906 357.501C540.702 344.018 502.205 312.061 469.846 292.095C429.398 267.138 429.398 305.004 360.55 339.428C305.471 366.968 239.492 346.887 213.387 333.404H194.454C182.316 326.468 168.624 314.097 155.727 299.158M129.337 101.042C122.43 116.825 117.708 135.113 117 156.121C117.574 168.456 118.377 195.02 117 202.593C118.058 215.504 122.286 239.742 129.236 258.532M129.337 101.042C128.667 107.64 129.909 120.664 140.236 119.975C153.145 119.115 147.982 102.763 147.982 91.5755C147.982 80.3877 148.516 67.8372 155.133 60.5939M129.337 101.042C136.329 85.0648 145.56 71.6558 155.133 60.5939M129.236 258.532C131.705 265.208 134.518 271.196 137.654 275.744C143.306 283.939 149.422 291.855 155.727 299.158M129.236 258.532C128.026 251.36 128.36 237.361 139.376 238.738C153.145 240.459 147.121 253.368 147.121 261.114C147.121 268.859 147.121 291.591 155.727 299.158" stroke="#9AA6BE"/>
<path fill-rule="evenodd" clip-rule="evenodd" d="M103.335 159H0.00168419V161H103.295L323.891 178.841L0 179.386L0.00336838 181.386L322.054 180.844L103.296 198H0.00168419V200H103.335H103.374L103.413 199.997L348.154 180.803L375.693 183.03C377.336 188.548 382.448 192.572 388.5 192.572C393.79 192.572 398.361 189.498 400.526 185.039L464.921 190.247L466.002 190.334V189.25V170.636V169.555L464.923 169.639L401.061 174.648C399.196 169.516 394.276 165.851 388.5 165.851C381.993 165.851 376.573 170.502 375.382 176.662L348.157 178.797L103.416 159.003L103.375 159H103.335ZM375.15 178.686L360.75 179.815L375.257 180.989C375.179 180.407 375.139 179.814 375.139 179.211C375.139 179.035 375.143 178.86 375.15 178.686ZM401.288 183.094L464.002 188.166V171.718L401.608 176.611C401.774 177.452 401.861 178.322 401.861 179.211C401.861 180.562 401.66 181.865 401.288 183.094Z" fill="#005FCD"/>
</svg>
