<svg width="291" height="216" viewBox="0 0 291 216" fill="none" xmlns="http://www.w3.org/2000/svg">
<path d="M290 184.115L249.774 156.997C247.364 155.189 239.379 147.957 244.351 128.522C250.081 106.122 250.226 50.3304 186.498 13.7205C122.769 -22.8895 67.1764 30.4435 61.7527 37.2232C56.329 44.0028 40.5099 65.2456 35.0862 68.4095C29.6625 71.5733 18.3631 93.2681 20.623 112.251C22.8829 131.234 28.8853 144.65 37.3461 151.573C47.2895 159.708 54.0691 174.172 61.7527 182.307C69.2266 190.221 98.3627 216.205 131.357 215.301C164.351 214.397 190.114 207.618 208.645 189.991C227.176 172.364 252.486 206.714 266.045 215.301" stroke="#9AA6BE"/>
<path d="M285.933 190.443C272.773 182.262 249.256 166.076 239.833 154.616M45.0302 81.0648C55.8776 25.9238 115.54 0.61318 165.708 12.3646C215.505 24.0291 234.408 76.0931 238.476 90.5563C242.543 105.02 235.764 133.946 235.764 146.601C235.764 148.758 237.282 151.514 239.833 154.616M45.0302 81.0648C43.825 87.5431 41.7209 97.4128 45.0302 98.2399C47.4456 98.8435 48.4494 91.7876 51.8111 87.3024M45.0302 81.0648C46.5372 74.7371 47.7433 63.8897 38.7038 71.5733C28.2299 80.4761 25.1445 95.076 25.1445 108.183C25.1446 124.002 30.7738 140.383 40.5117 147.957C44.5794 151.121 47.0975 149.313 45.9353 145.245M45.9353 145.245C40.5116 126.262 43.2234 120.839 45.0302 120.387C46.837 119.935 47.7432 123.098 49.0991 127.166C49.4601 128.249 50.1095 129.332 50.9278 130.33M45.9353 145.245C51.359 164.228 83.4493 212.59 142.658 209.426C201.867 206.262 212.262 162.42 229.889 175.98M229.889 175.98C244.517 187.232 265.445 202.646 273.731 209.426M229.889 175.98C226.424 172.514 217.776 167.211 210.906 173.72C202.319 181.855 157.121 229.765 87.5171 189.991M239.833 154.616C236.518 152.397 230.341 145.336 232.149 134.85C234.409 121.743 241.405 91.854 224.918 64.7937C206.191 34.0594 158.025 -9.33026 87.9691 27.7317M50.9278 130.33C53.1829 133.08 56.721 135.181 59.0421 134.85C60.4556 134.648 62.3207 134.265 64.0725 131.686M50.9278 130.33L55.4269 140.726M64.0725 131.686C66.2411 128.493 68.236 121.934 68.986 108.183C69.7412 94.3376 66.4506 87.8677 63.1104 85.2654M64.0725 131.686L60.8506 140.726M51.8111 87.3024C53.4833 85.0713 55.739 83.4764 59.0421 83.7766C60.1863 83.7309 61.6531 84.13 63.1104 85.2654M51.8111 87.3024L55.8788 76.997M63.1104 85.2654L60.8506 77.449" stroke="#9AA6BE"/>
<path d="M281.866 195.867L240.736 166.036C234.258 161.065 222.205 148.59 225.821 138.466C229.437 128.342 230.342 117.072 230.342 112.703L233.054 109.087L230.342 105.924C229.89 88.7485 220.579 49.7883 186.952 31.3477C144.918 8.29694 107.856 23.6641 101.529 26.3759C96.4667 28.5454 90.6814 28.1839 88.4216 27.7319C83.5612 31.1747 74.9804 37.3397 66.867 46.7148M277.347 202.646C269.362 195.565 249.144 178.782 232.15 168.296C210.907 155.189 210.907 175.076 174.749 193.155C145.822 207.618 111.171 197.072 97.4611 189.991H87.5176C81.1427 186.348 73.9523 179.851 67.1787 172.006M53.319 67.9577C49.6916 76.2464 47.2117 85.8513 46.8398 96.8841C47.1412 103.362 47.563 117.313 46.8398 121.291C47.3957 128.072 49.6158 140.801 53.2658 150.669M53.319 67.9577C52.9672 71.4228 53.6195 78.2627 59.0432 77.9011C65.8228 77.4492 63.111 68.8616 63.111 62.986C63.111 57.1103 63.3915 50.5189 66.867 46.7148M53.319 67.9577C56.9912 59.5666 61.8394 52.5244 66.867 46.7148M53.2658 150.669C54.5626 154.175 56.04 157.32 57.6872 159.709C60.6554 164.012 63.8673 168.17 67.1787 172.006M53.2658 150.669C52.6304 146.903 52.8059 139.551 58.5912 140.274C65.8228 141.178 62.659 147.957 62.659 152.025C62.659 156.093 62.659 168.031 67.1787 172.006" stroke="#9AA6BE"/>
<path fill-rule="evenodd" clip-rule="evenodd" d="M52.6912 97.5254H0.00112156V99.5254H52.6678L234.843 108.048L0 108.312L0.00224312 110.312L231.388 110.052L52.6686 118.16H0.00112156V120.16H52.6912H52.7139L52.7365 120.159L270.467 110.281C271.065 113.55 273.928 116.027 277.37 116.027C281.245 116.027 284.386 112.886 284.386 109.01C284.386 105.135 281.245 101.994 277.37 101.994C273.938 101.994 271.081 104.458 270.472 107.713L52.738 97.5265L52.7146 97.5254H52.6912Z" fill="#005FCD"/>
</svg>
