<svg width="291" height="184" viewBox="0 0 291 184" fill="none" xmlns="http://www.w3.org/2000/svg">
<path d="M290.001 156.087L255.933 133.12C253.892 131.589 247.129 125.464 251.34 109.005C256.193 90.0336 256.316 42.7833 202.344 11.778C148.372 -19.2273 101.29 25.9409 96.6961 31.6827C92.1028 37.4244 78.7054 55.4151 74.112 58.0946C69.5187 60.7741 59.9491 79.1476 61.863 95.2244C63.7769 111.301 68.8604 122.664 76.0259 128.526C84.4471 135.417 90.1888 147.666 96.6961 154.556C103.026 161.258 127.701 183.264 155.644 182.499C183.588 181.733 205.406 175.991 221.1 161.063C236.794 146.134 258.23 175.226 269.713 182.499" stroke="#9AA6BE"/>
<path d="M286.555 161.446C275.41 154.518 255.493 140.809 247.513 131.104M82.5328 68.8128C91.7195 22.1134 142.248 0.677634 184.735 10.63C226.909 20.5088 242.918 64.6022 246.363 76.8512C249.808 89.1002 244.067 113.598 244.067 124.316C244.067 126.143 245.352 128.477 247.513 131.104M82.5328 68.8128C81.512 74.2993 79.73 82.658 82.5328 83.3585C84.5784 83.8697 85.4285 77.894 88.2755 74.0955M82.5328 68.8128C83.8091 63.4539 84.8305 54.2671 77.1749 60.7744C68.3045 68.3142 65.6914 80.679 65.6914 91.7797C65.6914 105.177 70.4589 119.05 78.706 125.464C82.151 128.144 84.2836 126.613 83.2993 123.168M83.2993 123.168C78.7059 107.091 81.0026 102.498 82.5328 102.115C84.063 101.732 84.8304 104.411 85.9787 107.857C86.2845 108.774 86.8344 109.691 87.5275 110.536M83.2993 123.168C87.8926 139.245 115.07 180.202 165.215 177.523C215.359 174.843 224.163 137.713 239.092 149.197M239.092 149.197C251.48 158.726 269.204 171.781 276.221 177.523M239.092 149.197C236.157 146.262 228.833 141.771 223.015 147.283C215.742 154.173 177.464 194.748 118.515 161.063M247.513 131.104C244.706 129.224 239.474 123.244 241.005 114.364C242.919 103.263 248.844 77.9503 234.881 55.0327C219.022 29.0035 178.229 -7.74355 118.898 23.6446M87.5275 110.536C89.4373 112.865 92.4338 114.645 94.3995 114.364C95.5967 114.193 97.1763 113.869 98.6599 111.684M87.5275 110.536L91.3378 119.34M98.6599 111.684C100.496 108.98 102.186 103.425 102.821 91.7797C103.461 80.0537 100.674 74.5743 97.8451 72.3704M98.6599 111.684L95.9312 119.34M88.2755 74.0955C89.6917 72.206 91.6021 70.8552 94.3995 71.1095C95.3686 71.0707 96.6108 71.4087 97.8451 72.3704M88.2755 74.0955L91.7206 65.3677M97.8451 72.3704L95.9312 65.7505" stroke="#9AA6BE"/>
<path d="M283.112 166.04L248.279 140.777C242.793 136.566 232.585 126.001 235.647 117.427C238.71 108.853 239.476 99.3085 239.476 95.6083L241.772 92.5461L239.476 89.8666C239.093 75.3209 231.208 42.3251 202.729 26.7076C167.13 7.18575 135.742 20.2003 130.383 22.497C126.096 24.3344 121.196 24.0282 119.282 23.6454C115.166 26.5611 107.899 31.7823 101.028 39.7222M279.285 171.782C272.523 165.785 255.399 151.571 241.007 142.69C223.016 131.59 223.016 148.432 192.394 163.743C167.896 175.992 138.549 167.061 126.938 161.064H118.517C113.118 157.979 107.028 152.476 101.292 145.832M89.5537 57.7129C86.4816 64.7327 84.3814 72.8672 84.0664 82.211C84.3216 87.6975 84.6789 99.5127 84.0664 102.881C84.5371 108.624 86.4174 119.405 89.5086 127.762M89.5537 57.7129C89.2557 60.6476 89.8081 66.4404 94.4015 66.1341C100.143 65.7514 97.8465 58.4785 97.8465 53.5023C97.8465 48.5262 98.0841 42.9439 101.028 39.7222M89.5537 57.7129C92.6637 50.6065 96.7696 44.6424 101.028 39.7222M89.5086 127.762C90.6069 130.731 91.8581 133.395 93.2532 135.418C95.7669 139.063 98.4871 142.584 101.292 145.832M89.5086 127.762C88.9705 124.572 89.1191 118.346 94.0187 118.958C100.143 119.724 97.4638 125.465 97.4638 128.91C97.4638 132.355 97.4638 142.466 101.292 145.832" stroke="#9AA6BE"/>
<path fill-rule="evenodd" clip-rule="evenodd" d="M53.0882 82.7646H0.000940384V84.7646H53.0686L228.888 91.6614L0 91.8766L0.00188077 93.8766L224.768 93.6653L53.0692 100.196H0.000940384V102.196H53.0882H53.1072L53.1262 102.196L273.51 93.8127C274.115 96.4534 276.479 98.4233 279.303 98.4233C282.585 98.4233 285.246 95.7627 285.246 92.4807C285.246 89.1987 282.585 86.5381 279.303 86.5381C276.387 86.5381 273.962 88.6381 273.457 91.4081L53.1274 82.7654L53.1078 82.7646H53.0882Z" fill="#005FCD"/>
</svg>
