<svg width="595" height="350" viewBox="0 0 595 350" fill="none" xmlns="http://www.w3.org/2000/svg">
<path d="M659.242 326.865L574.48 269.722C569.401 265.913 552.575 250.675 563.052 209.722C575.126 162.521 575.433 44.9596 441.147 -32.1836C306.86 -109.327 189.717 3.05463 178.288 17.3404C166.86 31.6262 133.526 76.3883 122.098 83.0549C110.669 89.7216 86.8594 135.436 91.6214 175.436C96.3833 215.436 109.031 243.707 126.86 258.294C147.812 275.437 162.098 305.913 178.288 323.056C194.037 339.731 255.431 394.485 324.956 392.58C394.48 390.675 448.766 376.389 487.813 339.246C526.861 302.103 580.195 374.485 608.766 392.58" stroke="#9AA6BE"/>
<path d="M650.668 340.199C622.937 322.961 573.383 288.854 553.527 264.707M143.047 109.722C165.904 -6.46894 291.621 -59.8026 397.334 -35.0405C502.264 -10.4614 542.096 99.2458 550.668 129.722C559.239 160.198 544.953 221.151 544.953 247.818C544.953 252.363 548.152 258.17 553.527 264.707M143.047 109.722C140.507 123.373 136.074 144.17 143.047 145.913C148.137 147.185 150.252 132.317 157.335 122.866M143.047 109.722C146.222 96.3886 148.764 73.5313 129.716 89.7219C107.646 108.481 101.144 139.246 101.145 166.865C101.145 200.199 113.006 234.715 133.526 250.675C142.097 257.342 147.403 253.532 144.954 244.961M144.954 244.961C133.525 204.96 139.24 193.532 143.047 192.579C146.854 191.627 148.764 198.294 151.621 206.865C152.381 209.147 153.75 211.429 155.474 213.532M144.954 244.961C156.383 284.961 224.002 386.866 348.765 380.199C473.527 373.533 495.432 281.151 532.575 309.723M532.575 309.723C563.398 333.433 607.496 365.913 624.956 380.199M532.575 309.723C525.273 302.421 507.051 291.246 492.575 304.961C474.479 322.104 379.241 423.057 232.574 339.247M553.527 264.707C546.543 260.03 533.527 245.151 537.337 223.056C542.099 195.437 556.841 132.457 522.099 75.4361C482.64 10.6739 381.146 -80.755 233.526 -2.65945M155.474 213.532C160.226 219.326 167.681 223.755 172.572 223.056C175.551 222.63 179.481 221.824 183.172 216.389M155.474 213.532L164.954 235.437M183.172 216.389C187.742 209.661 191.945 195.839 193.526 166.865C195.117 137.69 188.183 124.057 181.145 118.573M183.172 216.389L176.383 235.437M157.335 122.866C160.859 118.164 165.612 114.804 172.572 115.436C174.983 115.34 178.074 116.181 181.145 118.573M157.335 122.866L165.907 101.15M181.145 118.573L176.383 102.103" stroke="#9AA6BE"/>
<path d="M1 178H28.8104L147 167.169M1 156H28.8104L147 167.169M1 167.5L147 167.169" stroke="#005FCD" stroke-width="2"/>
<path opacity="0.5" d="M387 178H351.189L199 167.169M387 156H351.189L199 167.169M387 167.5L199 167.169" stroke="url(#paint0_linear_156_2119)" stroke-width="2"/>
<path d="M642.102 351.628L555.435 288.77C541.784 278.294 516.387 252.008 524.006 230.675C531.625 209.341 533.531 185.595 533.531 176.389L539.246 168.77L533.531 162.103C532.579 125.912 512.96 43.8169 442.103 4.95957C353.531 -43.612 275.435 -11.231 262.102 -5.51666C251.435 -0.945212 239.245 -1.7071 234.483 -2.65948C224.241 4.59501 206.16 17.5857 189.064 37.3407M632.579 365.913C615.754 350.993 573.151 315.627 537.341 293.532C492.579 265.913 492.579 307.818 416.388 345.913C355.436 376.39 282.419 354.167 253.53 339.247H232.578C219.145 331.571 203.994 317.88 189.721 301.349M160.516 82.1028C152.872 99.5685 147.647 119.807 146.863 143.055C147.498 156.706 148.387 186.103 146.863 194.484C148.034 208.773 152.713 235.595 160.404 256.389M160.516 82.1028C159.775 89.4044 161.149 103.817 172.578 103.055C186.863 102.103 181.149 84.0075 181.149 71.6265C181.149 59.2455 181.74 45.3565 189.064 37.3407M160.516 82.1028C168.254 64.4215 178.47 49.5824 189.064 37.3407M160.404 256.389C163.136 263.777 166.249 270.404 169.721 275.437C175.975 284.506 182.743 293.267 189.721 301.349M160.404 256.389C159.065 248.453 159.435 232.96 171.625 234.484C186.863 236.389 180.197 250.675 180.197 259.246C180.197 267.818 180.197 292.974 189.721 301.349" stroke="#9AA6BE"/>
<ellipse cx="170.331" cy="167.623" rx="18.8989" ry="47.2472" transform="rotate(1.75799 170.331 167.623)" fill="url(#paint1_radial_156_2119)"/>
<defs>
<linearGradient id="paint0_linear_156_2119" x1="199" y1="167" x2="387" y2="167" gradientUnits="userSpaceOnUse">
<stop stop-color="#9AA6BE"/>
<stop offset="1" stop-color="#9AA6BE" stop-opacity="0"/>
</linearGradient>
<radialGradient id="paint1_radial_156_2119" cx="0" cy="0" r="1" gradientUnits="userSpaceOnUse" gradientTransform="translate(161.657 162.217) rotate(86.4237) scale(59.5615 23.8246)">
<stop stop-color="#D9D9D9"/>
<stop offset="0.34413" stop-color="#C2C2C2" stop-opacity="0.8"/>
<stop offset="0.532877" stop-color="#B5B5B5"/>
<stop offset="1" stop-color="#ECECEC"/>
</radialGradient>
</defs>
</svg>
