<svg width="484" height="350" viewBox="0 0 484 350" fill="none" xmlns="http://www.w3.org/2000/svg">
<path d="M483.003 310.289L411.108 261.82C406.8 258.589 392.529 245.664 401.415 210.928C411.656 170.893 411.916 71.1779 298.016 5.7455C184.115 -59.6868 84.7546 35.6344 75.0609 47.7515C65.3672 59.8686 37.094 97.8355 27.4003 103.49C17.7066 109.145 -2.48856 147.919 1.55047 181.847C5.5895 215.775 16.3175 239.754 31.4393 252.127C49.211 266.667 61.3281 292.517 75.0608 307.057C88.4188 321.201 140.493 367.643 199.463 366.027C258.433 364.412 304.478 352.295 337.598 320.79C370.718 289.286 415.955 350.679 440.189 366.027" stroke="#9AA6BE"/>
<path d="M475.731 321.599C452.21 306.977 410.179 278.048 393.337 257.567M45.1702 126.109C64.5576 27.557 171.19 -17.6803 260.855 3.32276C349.856 24.1706 383.641 117.224 390.912 143.073C398.182 168.923 386.065 220.623 386.065 243.241C386.065 247.096 388.778 252.022 393.337 257.567M45.1702 126.109C43.0161 137.688 39.2555 155.328 45.1702 156.806C49.4872 157.885 51.2812 145.274 57.2895 137.258M45.1702 126.109C47.8636 114.8 50.0192 95.4127 33.8631 109.145C15.1434 125.057 9.62886 151.151 9.62891 174.578C9.62896 202.851 19.69 232.128 37.0943 245.665C44.3645 251.319 48.865 248.088 46.7878 240.818M46.7878 240.818C37.0941 206.89 41.941 197.196 45.1702 196.389C48.3995 195.581 50.019 201.235 52.4424 208.506C53.0877 210.441 54.2483 212.377 55.7108 214.16M46.7878 240.818C56.4815 274.746 113.836 361.181 219.659 355.526C325.481 349.872 344.061 271.515 375.565 295.749M375.565 295.749C401.709 315.859 439.113 343.409 453.923 355.526M375.565 295.749C369.372 289.556 353.916 280.077 341.637 291.71C326.289 306.25 245.508 391.878 121.106 320.791M393.337 257.567C387.413 253.599 376.373 240.979 379.604 222.238C383.643 198.812 396.148 145.393 366.679 97.0283C333.211 42.0974 247.124 -35.452 121.914 30.7881M55.7108 214.16C59.7413 219.075 66.0649 222.831 70.2134 222.238C72.7398 221.877 76.0732 221.194 79.2042 216.584M55.7108 214.16L63.752 232.74M79.2042 216.584C83.0799 210.877 86.6454 199.154 87.9859 174.578C89.3357 149.832 83.4544 138.268 77.4847 133.617M79.2042 216.584L73.4456 232.74M57.2895 137.258C60.2782 133.27 64.3098 130.42 70.2134 130.956C72.2584 130.874 74.8799 131.588 77.4847 133.617M57.2895 137.258L64.5598 118.839M77.4847 133.617L73.4456 119.647" stroke="#9AA6BE"/>
<path d="M468.464 331.293L394.954 277.978C383.375 269.092 361.834 246.796 368.296 228.702C374.759 210.607 376.375 190.465 376.376 182.657L381.223 176.194L376.376 170.54C375.568 139.843 358.927 70.2099 298.826 37.2514C223.7 -3.94673 157.46 23.5187 146.151 28.3655C137.103 32.243 126.764 31.5968 122.724 30.789C114.038 36.9422 98.7013 47.9608 84.2004 64.7169M460.388 343.41C446.116 330.755 409.981 300.758 379.607 282.017C341.64 258.59 341.64 294.134 277.016 326.446C225.316 352.296 163.384 333.447 138.881 320.792H121.109C109.715 314.281 96.8638 302.669 84.7576 288.647M59.9864 102.684C53.5032 117.498 49.0709 134.665 48.4062 154.383C48.9448 165.962 49.6987 190.896 48.4062 198.005C49.3996 210.124 53.3677 232.875 59.8913 250.512M59.9864 102.684C59.3576 108.877 60.5234 121.102 70.217 120.456C82.3341 119.648 77.4873 104.299 77.4873 93.7979C77.4873 83.2964 77.9887 71.5159 84.2004 64.7169M59.9864 102.684C66.5496 87.6867 75.2146 75.1002 84.2004 64.7169M59.8913 250.512C62.2091 256.779 64.8494 262.399 67.7936 266.669C73.0986 274.361 78.839 281.792 84.7576 288.647M59.8913 250.512C58.7556 243.781 59.0693 230.64 69.4092 231.933C82.3341 233.548 76.6795 245.666 76.6795 252.936C76.6795 260.206 76.6795 281.544 84.7576 288.647" stroke="#9AA6BE"/>
<path d="M287 59L275.846 61.9886L284.011 70.1536L287 59ZM217.707 129.707L281.343 66.0711L279.929 64.6569L216.293 128.293L217.707 129.707Z" fill="#005FCD"/>
<path d="M290 36C298.5 37 307 41.5 308 50" stroke="#005FCD" stroke-width="2" stroke-linecap="round"/>
<path d="M354.25 100.191C360.527 106.009 364.742 114.654 360.54 122.11" stroke="#005FCD" stroke-width="2" stroke-linecap="round"/>
<path d="M372.988 162C377.47 169.291 379.206 178.751 373.154 184.803" stroke="#005FCD" stroke-width="2" stroke-linecap="round"/>
<path d="M366.617 221.41C367.922 229.869 365.853 239.261 357.929 242.494" stroke="#005FCD" stroke-width="2" stroke-linecap="round"/>
<path d="M318.352 293.793C315.086 301.704 308.452 308.668 299.999 307.328" stroke="#005FCD" stroke-width="2" stroke-linecap="round"/>
<path d="M287 279.621L275.846 276.633L284.011 268.468L287 279.621ZM217.707 208.914L281.343 272.55L279.929 273.964L216.293 210.328L217.707 208.914Z" fill="#005FCD"/>
<path d="M334.622 116L323.468 113.011L326.457 124.165L334.622 116ZM239.259 142.588L326.187 119.295L325.67 117.363L238.741 140.656L239.259 142.588Z" fill="#005FCD"/>
<path d="M334.622 222.621L323.468 225.61L326.457 214.456L334.622 222.621ZM239.259 196.033L326.187 219.326L325.67 221.258L238.741 197.965L239.259 196.033Z" fill="#005FCD"/>
<path d="M341.997 171.497L331.997 165.724L331.997 177.271L341.997 171.497ZM243.003 172.497L332.997 172.497L332.997 170.497L243.003 170.497L243.003 172.497Z" fill="#005FCD"/>
</svg>
