<svg aria-hidden="true" xmlns="http://www.w3.org/2000/svg" xmlns:xlink="http://www.w3.org/1999/xlink"><symbol viewBox="0 0 12 6" id="arc" xmlns="http://www.w3.org/2000/svg">
<path fill-rule="evenodd" clip-rule="evenodd" d="M0.553005 0.105792C1.04698 -0.141197 1.64766 0.059027 1.89465 0.553005C3.5833 3.9303 8.39743 3.93617 10.0969 0.570615C10.2576 0.233322 10.6017 0.000219048 11.0002 0.000219048C11.5525 0.000219048 12.0002 0.447934 12.0002 1.00022V1.23629L11.8946 1.44743C9.46601 6.30471 2.53443 6.30471 0.105792 1.44743C-0.141197 0.953454 0.059027 0.352781 0.553005 0.105792Z"/>
</symbol><symbol viewBox="0 0 33 12" id="arc-thin" xmlns="http://www.w3.org/2000/svg">
<path fill-rule="evenodd" clip-rule="evenodd" d="M0.43934 0.43934C1.02513 -0.146447 1.97487 -0.146447 2.56066 0.43934L6.95406 4.83274C12.2261 10.1048 20.7739 10.1048 26.0459 4.83274L30.4393 0.43934C31.0251 -0.146447 31.9749 -0.146447 32.5607 0.43934C33.1464 1.02513 33.1464 1.97487 32.5607 2.56066L28.1673 6.95406C21.7236 13.3977 11.2764 13.3977 4.83274 6.95406L0.43934 2.56066C-0.146447 1.97487 -0.146447 1.02513 0.43934 0.43934Z"/>
</symbol><symbol viewBox="0 0 14 22" id="arrow" xmlns="http://www.w3.org/2000/svg">
<path fill-rule="evenodd" clip-rule="evenodd" d="M1.08583 0.292893C0.695309 0.683417 0.695309 1.31658 1.08583 1.70711L10.3787 11L1.08583 20.2929C0.695309 20.6834 0.695309 21.3166 1.08583 21.7071C1.47636 22.0976 2.10952 22.0976 2.50005 21.7071L13.2072 11L2.50005 0.292893C2.10952 -0.0976311 1.47636 -0.0976311 1.08583 0.292893Z"/>
</symbol><symbol viewBox="0 0 14 14" id="arrow-right-up" xmlns="http://www.w3.org/2000/svg">
<path fill-rule="evenodd" clip-rule="evenodd" d="M4.72847 0.359833H13.2803V8.54017H11.7803V2.92049L1.06066 13.6402L0 12.5795L10.7197 1.85983H4.72847V0.359833Z"/>
</symbol><symbol viewBox="0 0 24 21" id="check-mark" xmlns="http://www.w3.org/2000/svg">
<path d="M0 10.483L2.053 8.586C4.454 9.748 5.977 10.631 8.675 12.555C13.748 6.798 17.101 3.877 23.332 0L24 1.536C18.861 6.02 15.098 11.015 9.679 20.734C6.336 16.798 4.105 14.288 0 10.483Z"/>
</symbol><symbol viewBox="0 0 384 512" id="cross" xmlns="http://www.w3.org/2000/svg"><!--! Font Awesome Pro 6.4.0 by @fontawesome - https://fontawesome.com License - https://fontawesome.com/license (Commercial License) Copyright 2023 Fonticons, Inc. --><path d="M342.6 150.6c12.5-12.5 12.5-32.8 0-45.3s-32.8-12.5-45.3 0L192 210.7 86.6 105.4c-12.5-12.5-32.8-12.5-45.3 0s-12.5 32.8 0 45.3L146.7 256 41.4 361.4c-12.5 12.5-12.5 32.8 0 45.3s32.8 12.5 45.3 0L192 301.3 297.4 406.6c12.5 12.5 32.8 12.5 45.3 0s12.5-32.8 0-45.3L237.3 256 342.6 150.6z"/></symbol><symbol viewBox="0 0 63 60" id="dots" xmlns="http://www.w3.org/2000/svg">
<path fill-rule="evenodd" clip-rule="evenodd" d="M31.0188 0C37.2399 0 42.283 5.04314 42.283 11.2642C42.283 17.4852 37.2399 22.5283 31.0188 22.5283C24.7977 22.5283 19.7547 17.4852 19.7547 11.2642C19.7547 5.04314 24.7977 0 31.0188 0ZM12.2008 57.8479C7.16785 54.1914 6.05215 47.1471 9.70878 42.1141C13.3654 37.0812 20.4096 35.9655 25.4426 39.6222C30.4755 43.2787 31.5911 50.323 27.9347 55.356C24.278 60.3889 17.2337 61.5046 12.2008 57.8479ZM52.3654 42.1141C56.0221 47.1471 54.9064 54.1914 49.8735 57.8479C44.8405 61.5046 37.7962 60.3889 34.1397 55.356C30.483 50.323 31.5987 43.2787 36.6316 39.6222C41.6645 35.9655 48.7089 37.0812 52.3654 42.1141ZM0.55435 22.0789C2.47675 16.1624 8.83146 12.9245 14.748 14.8469C20.6646 16.7693 23.9025 23.1241 21.9801 29.0406C20.0577 34.957 13.7029 38.1949 7.78638 36.2725C1.86983 34.3501 -1.36805 27.9955 0.55435 22.0789ZM47.282 14.8469C53.1987 12.9245 59.5533 16.1624 61.4757 22.0789C63.3981 27.9955 60.1602 34.3501 54.2437 36.2725C48.327 38.1949 41.9725 34.957 40.0501 29.0406C38.1277 23.1241 41.3656 16.7693 47.282 14.8469Z"/>
</symbol><symbol viewBox="0 0 20 19" id="download" xmlns="http://www.w3.org/2000/svg">
<path fill-rule="evenodd" clip-rule="evenodd" d="M10 13.541C9.586 13.541 9.25 13.205 9.25 12.791V0.75C9.25 0.336 9.586 0 10 0C10.414 0 10.75 0.336 10.75 0.75V12.791C10.75 13.205 10.414 13.541 10 13.541Z"/>
<path fill-rule="evenodd" clip-rule="evenodd" d="M10.0013 13.541C9.80231 13.541 9.61031 13.462 9.47031 13.32L6.55431 10.393C6.26231 10.099 6.26331 9.62403 6.55631 9.33203C6.85031 9.04003 7.32431 9.04003 7.61631 9.33403L10.0013 11.729L12.3863 9.33403C12.6783 9.04003 13.1523 9.04003 13.4463 9.33203C13.7393 9.62403 13.7403 10.099 13.4483 10.393L10.5323 13.32C10.3923 13.462 10.2003 13.541 10.0013 13.541Z"/>
<mask id="hmask0_561_46" maskUnits="userSpaceOnUse" x="0" y="4" width="20" height="15">
<path fill-rule="evenodd" clip-rule="evenodd" d="M0 4.73254H19.9998V18.4765H0V4.73254Z"/>
</mask>
<g mask="url(#hmask0_561_46)">
<path fill-rule="evenodd" clip-rule="evenodd" d="M15.575 18.4765H4.435C1.99 18.4765 0 16.4875 0 14.0415V9.15654C0 6.71654 1.985 4.73254 4.426 4.73254H5.367C5.781 4.73254 6.117 5.06854 6.117 5.48254C6.117 5.89654 5.781 6.23254 5.367 6.23254H4.426C2.812 6.23254 1.5 7.54354 1.5 9.15654V14.0415C1.5 15.6605 2.816 16.9765 4.435 16.9765H15.575C17.187 16.9765 18.5 15.6635 18.5 14.0515V9.16754C18.5 7.54854 17.183 6.23254 15.566 6.23254H14.634C14.22 6.23254 13.884 5.89654 13.884 5.48254C13.884 5.06854 14.22 4.73254 14.634 4.73254H15.566C18.011 4.73254 20 6.72254 20 9.16754V14.0515C20 16.4915 18.014 18.4765 15.575 18.4765Z"/>
</g>
</symbol><symbol viewBox="0 0 24 16" id="eye" xmlns="http://www.w3.org/2000/svg">
<path fill-rule="evenodd" clip-rule="evenodd" d="M23.9905 8C23.9905 8 18.6222 15.5 12 15.5C5.37791 15.5 0.00958252 8 0.00958252 8C0.00958252 8 5.37791 0.5 12 0.5C18.6222 0.5 23.9905 8 23.9905 8ZM17.4725 8C17.4725 11.0137 15.0225 13.4568 12 13.4568C8.97758 13.4568 6.52748 11.0137 6.52748 8C6.52748 4.98634 8.97758 2.54324 12 2.54324C15.0225 2.54324 17.4725 4.98634 17.4725 8ZM12 11.1269C13.732 11.1269 15.136 9.72691 15.136 8C15.136 6.27309 13.732 4.87312 12 4.87312C10.2681 4.87312 8.86407 6.27309 8.86407 8C8.86407 9.72691 10.2681 11.1269 12 11.1269Z"/>
</symbol><symbol viewBox="0 0 50 50" id="instagram" xmlns="http://www.w3.org/2000/svg">
<path d="M30.8937 13.1292C29.3562 13.0583 28.8937 13.0458 25 13.0458C21.1062 13.0458 20.6458 13.0604 19.1083 13.1292C15.1521 13.3104 13.3104 15.1833 13.1292 19.1083C13.0604 20.6458 13.0437 21.1062 13.0437 25C13.0437 28.8937 13.0604 29.3542 13.1292 30.8937C13.3104 34.8083 15.1437 36.6917 19.1083 36.8729C20.6437 36.9417 21.1062 36.9583 25 36.9583C28.8958 36.9583 29.3562 36.9437 30.8937 36.8729C34.85 36.6937 36.6896 34.8146 36.8729 30.8937C36.9417 29.3562 36.9562 28.8937 36.9562 25C36.9562 21.1062 36.9417 20.6458 36.8729 19.1083C36.6896 15.1854 34.8458 13.3104 30.8937 13.1292ZM25 32.4896C20.8646 32.4896 17.5104 29.1375 17.5104 25C17.5104 20.8646 20.8646 17.5125 25 17.5125C29.1354 17.5125 32.4896 20.8646 32.4896 25C32.4896 29.1354 29.1354 32.4896 25 32.4896ZM32.7854 18.9667C31.8187 18.9667 31.0354 18.1833 31.0354 17.2167C31.0354 16.25 31.8187 15.4667 32.7854 15.4667C33.7521 15.4667 34.5354 16.25 34.5354 17.2167C34.5354 18.1812 33.7521 18.9667 32.7854 18.9667ZM29.8604 25C29.8604 27.6854 27.6833 29.8604 25 29.8604C22.3167 29.8604 20.1396 27.6854 20.1396 25C20.1396 22.3146 22.3167 20.1396 25 20.1396C27.6833 20.1396 29.8604 22.3146 29.8604 25ZM25 0C11.1937 0 0 11.1937 0 25C0 38.8062 11.1937 50 25 50C38.8062 50 50 38.8062 50 25C50 11.1937 38.8062 0 25 0ZM39.4958 31.0125C39.2562 36.3146 36.3042 39.2521 31.0146 39.4958C29.4583 39.5667 28.9604 39.5833 25 39.5833C21.0396 39.5833 20.5437 39.5667 18.9875 39.4958C13.6875 39.2521 10.7479 36.3104 10.5042 31.0125C10.4333 29.4583 10.4167 28.9604 10.4167 25C10.4167 21.0396 10.4333 20.5437 10.5042 18.9875C10.7479 13.6875 13.6896 10.7479 18.9875 10.5063C20.5437 10.4333 21.0396 10.4167 25 10.4167C28.9604 10.4167 29.4583 10.4333 31.0146 10.5063C36.3167 10.75 39.2583 13.6979 39.4958 18.9875C39.5667 20.5437 39.5833 21.0396 39.5833 25C39.5833 28.9604 39.5667 29.4583 39.4958 31.0125Z"/>
</symbol><symbol viewBox="0 0 16 16" id="location" xmlns="http://www.w3.org/2000/svg">
<path d="M0 6L16 0L10.0093 16L8 8L0 6Z"/>
</symbol><symbol viewBox="0 0 54 12" id="maker" xmlns="http://www.w3.org/2000/svg">
<path d="M13.9515 7.10267V0.761719H16.2286V7.0233C16.2286 8.49458 17.0833 9.50596 18.7123 9.50596C20.3413 9.50596 21.1787 8.49357 21.1787 7.0233V0.761719H23.4721V7.08741C23.4721 9.71251 21.9214 11.4992 18.7123 11.4992C15.5011 11.4992 13.9515 9.69623 13.9515 7.10267Z"/>
<path d="M28.883 9.82243L30.0999 8.1151C30.8437 8.89042 31.9975 9.53754 33.4525 9.53754C34.6867 9.53754 35.287 8.96877 35.287 8.36743C35.287 6.50137 29.2147 7.78238 29.2147 3.81318C29.2147 2.05803 30.7328 0.603027 33.2154 0.603027C34.8922 0.603027 36.2831 1.10872 37.3271 2.07431L36.0776 3.71856C35.225 2.92797 34.0854 2.56473 33.0099 2.56473C32.0453 2.56473 31.5081 2.99106 31.5081 3.62393C31.5081 5.29972 37.5642 4.17744 37.5642 8.1151C37.5642 10.0442 36.1885 11.4992 33.3426 11.4992C31.3188 11.4992 29.8638 10.8185 28.883 9.82243Z"/>
<path d="M42.8331 6.00051C42.8331 2.79544 45.1764 0.5 48.3815 0.5C51.6018 0.5 53.9451 2.79544 53.9451 6.00051C53.9451 9.20456 51.6018 11.5 48.3815 11.5C45.1764 11.5 42.8331 9.20456 42.8331 6.00051ZM51.6171 6.00051C51.6171 4.00828 50.3421 2.50953 48.3815 2.50953C46.4208 2.50953 45.1611 4.00828 45.1611 6.00051C45.1611 7.97748 46.4208 9.49149 48.3815 9.49149C50.3421 9.49149 51.6171 7.97748 51.6171 6.00051Z"/>
<path d="M6.16798 7.29192C7.30654 7.02331 8.47766 6.02719 8.47766 4.16113C8.47766 2.20044 7.13357 0.761719 4.93479 0.761719H0V2.73767H2.24558H2.41245H4.60309C5.50458 2.73767 6.18426 3.2749 6.18426 4.16113C6.18426 5.04634 5.50356 5.58458 4.60309 5.58458H2.41245H2.24558H0.00101731V11.3089H2.2466V7.56155H3.89187L5.96245 11.31H8.54075L6.16798 7.29192Z"/>
</symbol><symbol viewBox="0 0 50 50" id="ok" xmlns="http://www.w3.org/2000/svg">
<path fill-rule="evenodd" clip-rule="evenodd" d="M25 50C38.8071 50 50 38.8071 50 25C50 11.1929 38.8071 0 25 0C11.1929 0 0 11.1929 0 25C0 38.8071 11.1929 50 25 50ZM25.1523 7.0697C20.1918 7.0697 16.1706 11.091 16.1706 16.0514C16.1706 21.012 20.1918 25.0336 25.1523 25.0336C30.1129 25.0336 34.1341 21.012 34.1341 16.0514C34.1341 11.091 30.1129 7.0697 25.1523 7.0697ZM25.1523 19.7646C23.1018 19.7646 21.4395 18.1021 21.4395 16.0516C21.4395 14.0011 23.1018 12.3387 25.1523 12.3387C27.2028 12.3387 28.8652 14.0011 28.8652 16.0516C28.8652 18.1021 27.2028 19.7646 25.1523 19.7646ZM28.3233 32.1801C31.9191 31.4476 34.0738 29.7448 34.1878 29.6534C35.24 28.8096 35.409 27.2725 34.5652 26.2202C33.7215 25.168 32.1846 24.999 31.1322 25.8427C31.1099 25.8607 28.8117 27.6237 25.0304 27.6263C21.2491 27.6237 18.9024 25.8607 18.8801 25.8427C17.8277 24.999 16.2908 25.168 15.4471 26.2202C14.6032 27.2725 14.7723 28.8096 15.8245 29.6534C15.94 29.7461 18.1837 31.4932 21.8802 32.2085L16.7284 37.5926C15.7922 38.5635 15.8203 40.1096 16.7913 41.0458C17.2652 41.5027 17.876 41.7299 18.4863 41.7299C19.1261 41.7299 19.7653 41.4799 20.2445 40.9828L25.0305 35.8845L30.2999 41.0159C31.2547 41.9691 32.8007 41.9675 33.7536 41.0131C34.7066 40.0587 34.7054 38.5124 33.7509 37.5594L28.3233 32.1801Z"/>
</symbol><symbol viewBox="0 0 24 24" id="phone" xmlns="http://www.w3.org/2000/svg">
<path d="M20 22.621L16.479 15.826C16.471 15.83 14.505 16.796 14.415 16.837C12.175 17.923 7.61604 9.017 9.80604 7.843L11.889 6.817L8.39604 0L6.29004 1.039C-0.911963 4.794 10.523 27.021 17.89 23.654C18.011 23.599 19.992 22.625 20 22.621Z"/>
</symbol><symbol viewBox="0 0 20 17" id="show" xmlns="http://www.w3.org/2000/svg">
<path fill-rule="evenodd" clip-rule="evenodd" d="M9.99889 5.64111C8.66889 5.64111 7.58789 6.72311 7.58789 8.05311C7.58789 9.38211 8.66889 10.4631 9.99889 10.4631C11.3289 10.4631 12.4109 9.38211 12.4109 8.05311C12.4109 6.72311 11.3289 5.64111 9.99889 5.64111ZM9.99889 11.9631C7.84189 11.9631 6.08789 10.2091 6.08789 8.05311C6.08789 5.89611 7.84189 4.14111 9.99889 4.14111C12.1559 4.14111 13.9109 5.89611 13.9109 8.05311C13.9109 10.2091 12.1559 11.9631 9.99889 11.9631Z"/>
<mask id="omask0_561_37" maskUnits="userSpaceOnUse" x="0" y="0" width="20" height="17">
<path fill-rule="evenodd" clip-rule="evenodd" d="M0 0H19.9998V16.105H0V0Z"/>
</mask>
<g mask="url(#omask0_561_37)">
<path fill-rule="evenodd" clip-rule="evenodd" d="M1.57031 8.05224C3.43031 12.1612 6.56331 14.6042 10.0003 14.6052C13.4373 14.6042 16.5703 12.1612 18.4303 8.05224C16.5703 3.94424 13.4373 1.50124 10.0003 1.50024C6.56431 1.50124 3.43031 3.94424 1.57031 8.05224ZM10.0017 16.1053H9.99775H9.99675C5.86075 16.1023 2.14675 13.2033 0.06075 8.34826C-0.02025 8.15926 -0.02025 7.94526 0.06075 7.75626C2.14675 2.90226 5.86175 0.00326172 9.99675 0.000261719C9.99875 -0.000738281 9.99875 -0.000738281 9.99975 0.000261719C10.0017 -0.000738281 10.0017 -0.000738281 10.0028 0.000261719C14.1388 0.00326172 17.8527 2.90226 19.9387 7.75626C20.0208 7.94526 20.0208 8.15926 19.9387 8.34826C17.8537 13.2033 14.1388 16.1023 10.0028 16.1053H10.0017Z"/>
</g>
</symbol><symbol viewBox="0 0 1360 198" id="vision" xmlns="http://www.w3.org/2000/svg">
<path d="M1360 152.498V193.932H1182.8V4.34681H1355.9V45.7813H1244.6V77.7244H1342.66V117.803H1244.6V152.458H1360V152.498ZM924.204 4.34681H985.682V115.65L1076.83 4.34681H1135.48V193.932H1074V82.8689L983.177 193.932H924.204V4.34681ZM876.922 4.34681V193.932H814.489V119.996H729.35V193.932H666.917V4.34681H729.35V75.571H814.489V4.34681H876.922ZM631.287 152.498V193.932H454.049V4.34681H627.151V45.7813H515.846V77.7244H613.909V117.803H515.846V152.458H631.247L631.287 152.498ZM324.133 102.131C336.938 102.131 346.641 99.7378 353.123 94.9523C359.644 90.1668 362.905 83.3474 362.905 74.4942C362.905 65.6411 359.644 58.7818 353.123 53.9166C346.601 49.0513 336.938 46.6187 324.133 46.6187H289.457V102.131H324.133ZM327.911 4.34681C347.874 4.34681 365.212 7.17823 379.925 12.881C394.639 18.5837 405.972 26.6791 413.965 37.2471C421.958 47.8151 425.935 60.2175 425.935 74.4942C425.935 88.771 421.958 101.134 413.965 111.622C405.972 122.11 394.639 130.166 379.925 135.868C365.212 141.571 347.874 144.402 327.911 144.402H289.457V193.972H227.025V4.3867H327.951L327.911 4.34681ZM154.173 95.3511C166.381 99.339 175.925 105.281 182.884 113.217C189.804 121.153 193.303 130.285 193.303 140.574C193.303 152.299 188.69 162.508 179.425 171.201C170.159 179.855 157.673 186.515 141.885 191.101C126.098 195.687 108.76 198 89.8713 198C74.9591 198 59.7684 196.445 44.2994 193.414C28.8304 190.343 14.0772 185.717 0 179.616L18.6105 142.249C28.4725 146.596 39.0503 149.866 50.3041 152.139C61.5579 154.412 72.414 155.529 82.952 155.529C96.8304 155.529 108.164 153.575 116.992 149.706C125.82 145.838 130.234 140.375 130.234 133.316C130.234 127.733 127.49 123.546 122.042 120.874C116.594 118.162 109.198 116.806 99.9719 116.806H43.4643V77.5251H94.8819C103.312 77.5251 109.794 76.0894 114.447 73.1782C119.06 70.3069 121.366 66.3988 121.366 61.5335C121.366 55.3921 117.787 50.6465 110.629 47.2967C103.471 43.9468 94.2456 42.2719 82.8725 42.2719C73.6468 42.2719 63.8643 43.3885 53.5649 45.6616C43.2655 47.9347 33.483 51.1251 24.2573 55.2725L5.96491 14.6356C29.5064 4.90513 55.3544 0 83.5485 0C101.642 0 118.384 2.19334 133.853 6.61992C149.322 11.0465 161.609 17.4272 170.756 25.722C179.902 34.0169 184.475 43.867 184.475 55.2326C184.475 64.0858 181.811 71.9819 176.442 78.9208C171.074 85.8598 163.677 91.3232 154.213 95.3112L154.173 95.3511Z"/>
</symbol><symbol viewBox="0 0 50 50" id="vk" xmlns="http://www.w3.org/2000/svg">
<path d="M25 0C11.1937 0 0 11.1937 0 25C0 38.8062 11.1937 50 25 50C38.8062 50 50 38.8062 50 25C50 11.1937 38.8062 0 25 0ZM38.2167 33.6729H34.3271C32.1292 33.6729 31.7604 32.4208 29.9479 30.6125C28.3125 28.9771 27.4062 30.2312 27.4437 32.5604C27.4562 33.1792 27.15 33.6729 26.4125 33.6729C24.1104 33.6729 20.8 33.9979 17.4458 30.3812C14.0146 26.675 10.4167 19.2396 10.4167 18.5083C10.4167 18.075 10.775 17.8812 11.3729 17.8812H15.3271C16.375 17.8812 16.4625 18.4 16.7562 19.0646C17.9729 21.8375 20.8833 27.4021 21.6604 24.2958C22.1062 22.5125 22.2875 18.3813 20.3792 18.025C19.2958 17.825 21.2042 16.6667 23.9667 16.6667C24.6542 16.6667 25.4 16.7396 26.1625 16.9167C27.5646 17.2417 27.5708 17.8708 27.55 18.7875C27.4792 22.2583 27.0604 24.5917 27.975 25.1812C28.8479 25.7458 31.1437 22.0521 32.3583 19.2C32.6896 18.4125 32.7562 17.8833 33.6979 17.8833H38.5354C41.0687 17.8833 38.2042 21.525 36.0146 24.3667C34.25 26.6562 34.3437 26.7 36.3958 28.6042C37.8562 29.9604 39.5833 31.8125 39.5833 32.8604C39.5833 33.3562 39.1958 33.6729 38.2167 33.6729Z"/>
</symbol><symbol viewBox="0 0 40 40" id="whatsapp" xmlns="http://www.w3.org/2000/svg">
<path d="M20.0517 10.2867C14.75 10.2867 10.44 14.5967 10.4383 19.8967C10.4367 22.06 11.0717 23.68 12.1367 25.375L11.1667 28.9217L14.8033 27.9667C16.4333 28.9333 17.9883 29.5133 20.045 29.515C25.3417 29.515 29.6567 25.2033 29.6583 19.905C29.66 14.5933 25.3667 10.2883 20.0517 10.2867ZM25.705 24.0267C25.465 24.7017 24.31 25.3167 23.755 25.4C23.2567 25.475 22.6267 25.505 21.935 25.285C21.515 25.1517 20.9767 24.9733 20.2883 24.6767C17.39 23.425 15.4983 20.5067 15.3533 20.315C15.2083 20.1217 14.1733 18.7483 14.1733 17.3267C14.1733 15.905 14.92 15.205 15.185 14.9167C15.45 14.6283 15.7617 14.555 15.955 14.555L16.5083 14.565C16.685 14.5733 16.9233 14.4983 17.1583 15.0617C17.3983 15.64 17.9767 17.0617 18.0483 17.2067C18.12 17.3517 18.1683 17.52 18.0717 17.7133C17.975 17.9067 17.9267 18.0267 17.7833 18.195L17.35 18.7017C17.205 18.845 17.055 19.0017 17.2233 19.2917C17.3917 19.5817 17.9717 20.5267 18.83 21.2933C19.9333 22.2783 20.865 22.5833 21.1533 22.7267C21.4417 22.87 21.61 22.8467 21.78 22.655C21.9483 22.4617 22.5017 21.8117 22.695 21.5217C22.8883 21.2333 23.08 21.28 23.345 21.3767C23.61 21.4733 25.03 22.1717 25.3183 22.3167C25.6067 22.4617 25.8 22.5333 25.8717 22.6533C25.9467 22.7733 25.9467 23.3517 25.705 24.0267ZM20 0C8.955 0 0 8.955 0 20C0 31.045 8.955 40 20 40C31.045 40 40 31.045 40 20C40 8.955 31.045 0 20 0ZM20.0483 31.4667C18.1133 31.4667 16.2067 30.98 14.5183 30.06L8.39 31.6667L10.03 25.675C9.01833 23.9217 8.485 21.9317 8.48667 19.895C8.48833 13.52 13.675 8.33333 20.0483 8.33333C23.1417 8.335 26.045 9.53833 28.2267 11.7233C30.41 13.9083 31.6117 16.8133 31.61 19.9033C31.6083 26.2783 26.4217 31.4667 20.0483 31.4667Z"/>
</symbol></svg>