<svg width="633" height="350" viewBox="0 0 633 350" fill="none" xmlns="http://www.w3.org/2000/svg">
<path d="M633 318.418L553.652 264.925C548.897 261.358 533.147 247.094 542.954 208.757C554.257 164.571 554.544 54.5187 428.835 -17.6969C303.127 -89.9125 193.466 15.2905 182.767 28.6638C172.069 42.037 140.865 83.9399 130.166 90.1808C119.467 96.4216 97.1786 139.216 101.636 176.661C106.094 214.106 117.934 240.571 134.624 254.226C154.238 270.274 167.611 298.804 182.767 314.852C197.51 330.461 254.983 381.718 320.066 379.935C385.149 378.152 435.968 364.778 472.521 330.008C509.075 295.237 559.002 362.995 585.748 379.935" stroke="#9AA6BE"/>
<path d="M624.973 330.899C599.013 314.762 552.625 282.834 534.037 260.229M149.777 115.144C171.174 6.37507 288.861 -43.5518 387.821 -20.3715C486.049 2.63761 523.336 105.337 531.36 133.867C539.384 162.396 526.011 219.456 526.011 244.419C526.011 248.674 529.005 254.11 534.037 260.229M149.777 115.144C147.399 127.923 143.249 147.392 149.777 149.023C154.541 150.214 156.521 136.296 163.152 127.448M149.777 115.144C152.749 102.663 155.128 81.2653 137.297 96.4216C116.637 113.983 110.551 142.782 110.551 168.637C110.551 199.842 121.655 232.154 140.863 247.094C148.887 253.335 153.854 249.768 151.562 241.744M151.562 241.744C140.863 204.299 146.213 193.601 149.777 192.709C153.341 191.818 155.128 198.058 157.803 206.082C158.515 208.219 159.796 210.355 161.41 212.323M151.562 241.744C162.26 279.19 225.561 374.585 342.354 368.345C459.147 362.104 479.653 275.623 514.423 302.37M514.423 302.37C543.277 324.565 584.559 354.971 600.904 368.345M514.423 302.37C507.588 295.535 490.53 285.074 476.978 297.912C460.039 313.96 370.884 408.464 233.585 330.008M534.037 260.229C527.499 255.851 515.315 241.923 518.881 221.239C523.339 195.384 537.139 136.427 504.616 83.0484C467.678 22.4229 372.667 -63.1659 234.476 9.94123M161.41 212.323C165.858 217.747 172.837 221.893 177.416 221.239C180.204 220.84 183.883 220.086 187.339 214.998M161.41 212.323L170.285 232.829M187.339 214.998C191.616 208.7 195.551 195.761 197.031 168.637C198.521 141.326 192.03 128.563 185.441 123.43M187.339 214.998L180.983 232.829M163.152 127.448C166.451 123.047 170.9 119.901 177.416 120.494C179.673 120.403 182.566 121.191 185.441 123.43M163.152 127.448L171.176 107.12M185.441 123.43L180.983 108.012" stroke="#9AA6BE"/>
<path d="M616.952 341.598L535.821 282.756C523.042 272.949 499.268 248.342 506.4 228.371C513.532 208.4 515.317 186.171 515.317 177.553L520.667 170.42L515.317 164.179C514.426 130.3 496.06 53.4488 429.728 17.0736C346.814 -28.3955 273.707 1.91722 261.225 7.26652C251.24 11.546 239.828 10.8327 235.37 9.9412C225.783 16.7323 208.857 28.8932 192.853 47.3863M608.038 354.971C592.288 341.004 552.406 307.897 518.883 287.213C476.981 261.358 476.981 300.587 405.656 336.249C348.597 364.778 280.245 343.975 253.201 330.008H233.587C221.012 322.822 206.829 310.006 193.467 294.531M166.128 89.2892C158.973 105.639 154.081 124.585 153.348 146.348C153.942 159.127 154.774 186.647 153.348 194.492C154.444 207.868 158.823 232.977 166.023 252.443M166.128 89.2892C165.434 96.1244 166.721 109.617 177.42 108.903C190.793 108.012 185.443 91.0723 185.443 79.4821C185.443 67.892 185.997 54.8902 192.853 47.3863M166.128 89.2892C173.372 72.7373 182.935 58.846 192.853 47.3863M166.023 252.443C168.581 259.359 171.495 265.562 174.745 270.274C180.6 278.764 186.935 286.965 193.467 294.531M166.023 252.443C164.77 245.013 165.116 230.511 176.528 231.937C190.793 233.72 184.552 247.094 184.552 255.118C184.552 263.142 184.552 286.691 193.467 294.531" stroke="#9AA6BE"/>
<path opacity="0.2" d="M0 193.601V147.24C21.3972 147.24 337.898 154.372 502.835 154.372L389.608 169.529L506.401 182.01L418.137 187.36L502.835 202.516C375.343 197.167 145.323 191.818 0 193.601Z" fill="#005FCD"/>
<circle cx="506.584" cy="153.66" r="6.45919" fill="#005FCD"/>
<circle cx="506.584" cy="181.342" r="6.45919" fill="#005FCD"/>
<circle cx="504.74" cy="203.488" r="6.45919" fill="#005FCD"/>
</svg>
