<svg width="613" height="350" viewBox="0 0 613 350" fill="none" xmlns="http://www.w3.org/2000/svg">
<path d="M612.003 310.289L540.108 261.82C535.8 258.589 521.529 245.664 530.415 210.928C540.656 170.893 540.916 71.1779 427.016 5.7455C313.115 -59.6868 213.755 35.6344 204.061 47.7515C194.367 59.8686 166.094 97.8355 156.4 103.49C146.707 109.145 126.511 147.919 130.55 181.847C134.59 215.775 145.317 239.754 160.439 252.127C178.211 266.667 190.328 292.517 204.061 307.057C217.419 321.201 269.493 367.643 328.463 366.027C387.433 364.412 433.478 352.295 466.598 320.79C499.718 289.286 544.955 350.679 569.189 366.027" stroke="#9AA6BE"/>
<path d="M604.731 321.599C581.21 306.977 539.179 278.048 522.337 257.567M174.17 126.109C193.558 27.557 300.19 -17.6803 389.855 3.32276C478.856 24.1706 512.641 117.224 519.912 143.073C527.182 168.923 515.065 220.623 515.065 243.241C515.065 247.096 517.778 252.022 522.337 257.567M174.17 126.109C172.016 137.688 168.255 155.328 174.17 156.806C178.487 157.885 180.281 145.274 186.29 137.258M174.17 126.109C176.864 114.8 179.019 95.4127 162.863 109.145C144.143 125.057 138.629 151.151 138.629 174.578C138.629 202.851 148.69 232.128 166.094 245.665C173.365 251.319 177.865 248.088 175.788 240.818M175.788 240.818C166.094 206.89 170.941 197.196 174.17 196.389C177.399 195.581 179.019 201.235 181.442 208.506C182.088 210.441 183.248 212.377 184.711 214.16M175.788 240.818C185.481 274.746 242.836 361.181 348.659 355.526C454.481 349.872 473.061 271.515 504.565 295.749M504.565 295.749C530.709 315.859 568.113 343.409 582.923 355.526M504.565 295.749C498.372 289.556 482.916 280.077 470.637 291.71C455.289 306.25 374.508 391.878 250.106 320.791M522.337 257.567C516.413 253.599 505.373 240.979 508.604 222.238C512.643 198.812 525.148 145.393 495.679 97.0283C462.211 42.0974 376.124 -35.452 250.914 30.7881M184.711 214.16C188.741 219.075 195.065 222.831 199.213 222.238C201.74 221.877 205.073 221.194 208.204 216.584M184.711 214.16L192.752 232.74M208.204 216.584C212.08 210.877 215.645 199.154 216.986 174.578C218.336 149.832 212.454 138.268 206.485 133.617M208.204 216.584L202.446 232.74M186.29 137.258C189.278 133.27 193.31 130.42 199.213 130.956C201.258 130.874 203.88 131.588 206.485 133.617M186.29 137.258L193.56 118.839M206.485 133.617L202.446 119.647" stroke="#9AA6BE"/>
<path d="M597.464 331.293L523.954 277.978C512.375 269.092 490.834 246.796 497.296 228.702C503.759 210.607 505.375 190.465 505.376 182.657L510.223 176.194L505.376 170.54C504.568 139.843 487.927 70.2099 427.826 37.2514C352.7 -3.94673 286.46 23.5187 275.151 28.3655C266.103 32.243 255.764 31.5968 251.724 30.789C243.038 36.9422 227.701 47.9608 213.2 64.7169M589.388 343.41C575.116 330.755 538.981 300.758 508.607 282.017C470.64 258.59 470.64 294.134 406.016 326.446C354.316 352.296 292.384 333.447 267.881 320.792H250.109C238.715 314.281 225.864 302.669 213.758 288.647M188.986 102.684C182.503 117.498 178.071 134.665 177.406 154.383C177.945 165.962 178.699 190.896 177.406 198.005C178.4 210.124 182.368 232.875 188.891 250.512M188.986 102.684C188.358 108.877 189.523 121.102 199.217 120.456C211.334 119.648 206.487 104.299 206.487 93.7979C206.487 83.2964 206.989 71.5159 213.2 64.7169M188.986 102.684C195.55 87.6867 204.215 75.1002 213.2 64.7169M188.891 250.512C191.209 256.779 193.849 262.399 196.794 266.669C202.099 274.361 207.839 281.792 213.758 288.647M188.891 250.512C187.756 243.781 188.069 230.64 198.409 231.933C211.334 233.548 205.679 245.666 205.679 252.936C205.679 260.206 205.679 281.544 213.758 288.647" stroke="#9AA6BE"/>
<path fill-rule="evenodd" clip-rule="evenodd" d="M112.034 156.664H0.000940384V158.664H112.014H112.034L538.344 175.387L0 175.894L0.00188077 177.894L534.224 177.391L112.034 193.451H112.015H0.000940384V195.451H112.034H112.053L112.072 195.45L577.004 177.765C577.836 183.884 583.082 188.599 589.43 188.599C596.356 188.599 601.971 182.984 601.971 176.058C601.971 169.132 596.356 163.517 589.43 163.517C582.894 163.517 577.525 168.517 576.941 174.901L112.073 156.665L112.054 156.664H112.034Z" fill="#005FCD"/>
</svg>
