<svg width="311" height="233" viewBox="0 0 311 233" fill="none" xmlns="http://www.w3.org/2000/svg">
<path d="M337.001 197.965L293.734 168.796C291.141 166.852 282.553 159.073 287.9 138.169C294.064 114.076 294.22 54.0662 225.674 14.6884C157.127 -24.6893 97.3315 32.6758 91.4978 39.968C85.664 47.2601 68.649 70.109 62.8152 73.512C56.9815 76.915 44.8279 100.25 47.2586 120.668C49.6893 141.086 56.1455 155.517 65.2459 162.963C75.9411 171.713 83.2333 187.27 91.4977 196.021C99.5367 204.532 130.875 232.481 166.364 231.509C201.853 230.537 229.563 223.245 249.495 204.285C269.427 185.325 296.651 222.272 311.235 231.509" stroke="#9AA6BE"/>
<path d="M332.622 204.771C318.466 195.972 293.171 178.562 283.036 166.236M73.5063 87.124C85.1737 27.8143 149.346 0.590119 203.307 13.2299C256.869 25.7763 277.201 81.7764 281.576 97.333C285.952 112.89 278.659 144.003 278.659 157.615C278.659 159.935 280.292 162.899 283.036 166.236M73.5063 87.124C72.2099 94.092 69.9467 104.708 73.5063 105.597C76.1043 106.247 77.1839 98.6574 80.7997 93.8331M73.5063 87.124C75.1272 80.3179 76.4244 68.6504 66.7015 76.9149C55.4359 86.4907 52.1172 102.194 52.1172 116.293C52.1172 133.308 58.172 150.927 68.6461 159.073C73.0214 162.476 75.7298 160.532 74.4797 156.157M74.4797 156.157C68.646 135.738 71.5629 129.905 73.5063 129.419C75.4497 128.932 76.4243 132.335 77.8827 136.711C78.271 137.876 78.9695 139.041 79.8497 140.114M74.4797 156.157C80.3135 176.575 114.83 228.592 178.515 225.189C242.2 221.786 253.381 174.63 272.341 189.214M272.341 189.214C288.074 201.317 310.584 217.897 319.497 225.189M272.341 189.214C268.614 185.487 259.312 179.783 251.923 186.784C242.686 195.534 194.072 247.066 119.205 204.285M283.036 166.236C279.471 163.849 272.827 156.254 274.772 144.975C277.202 130.877 284.727 98.7288 266.993 69.6227C246.851 36.5649 195.044 -10.1051 119.691 29.7588M79.8497 140.114C82.2753 143.071 86.0808 145.332 88.5774 144.975C90.0979 144.758 92.104 144.347 93.9882 141.572M79.8497 140.114L84.6889 151.295M93.9882 141.572C96.3206 138.138 98.4664 131.083 99.2731 116.293C100.085 101.4 96.546 94.4412 92.9534 91.6422M93.9882 141.572L90.5226 151.295M80.7997 93.8331C82.5984 91.4334 85.0246 89.7178 88.5774 90.0408C89.8081 89.9916 91.3858 90.4209 92.9534 91.6422M80.7997 93.8331L85.175 82.7486M92.9534 91.6422L90.5226 83.2348" stroke="#9AA6BE"/>
<path d="M1 121.977H15.1958L75.5257 116.448M1 110.747H15.1958L75.5257 116.448M1 116.617L75.5257 116.448" stroke="#005FCD" stroke-width="2"/>
<path opacity="0.5" d="M198.035 121.977H179.756L102.071 116.448M198.035 110.747H179.756L102.071 116.448M198.035 116.617L102.071 116.448" stroke="url(#paint0_linear_276_17911)" stroke-width="2"/>
<path d="M328.252 210.605L284.012 178.519C277.044 173.172 264.08 159.754 267.97 148.864C271.859 137.975 272.832 125.854 272.832 121.154L275.749 117.265L272.832 113.862C272.346 95.3885 262.331 53.4828 226.162 33.6481C180.95 8.85469 141.087 25.3836 134.281 28.3005C128.836 30.634 122.613 30.2451 120.182 29.7589C114.955 33.462 105.725 40.0931 96.9983 50.177M323.391 217.897C314.802 210.281 293.056 192.229 274.776 180.95C251.928 166.852 251.928 188.242 213.036 207.688C181.923 223.245 144.652 211.901 129.905 204.285H119.21C112.353 200.367 104.619 193.378 97.3336 184.94M82.4261 73.0258C78.5244 81.9412 75.857 92.2722 75.457 104.139C75.7811 111.107 76.2349 126.113 75.457 130.391C76.0549 137.685 78.4429 151.376 82.3688 161.99M82.4261 73.0258C82.0476 76.753 82.7492 84.1099 88.5829 83.721C95.8751 83.2349 92.9583 73.9981 92.9583 67.6782C92.9583 61.3584 93.26 54.2687 96.9983 50.177M82.4261 73.0258C86.3758 64.0004 91.5905 56.4258 96.9983 50.177M82.3688 161.99C83.7637 165.761 85.3527 169.144 87.1245 171.713C90.3171 176.343 93.7717 180.814 97.3336 184.94M82.3688 161.99C81.6854 157.939 81.8741 150.031 88.0968 150.809C95.8751 151.781 92.4721 159.074 92.4721 163.449C92.4721 167.824 92.4721 180.665 97.3336 184.94" stroke="#9AA6BE"/>
<ellipse cx="87.4338" cy="116.68" rx="9.64695" ry="24.1174" transform="rotate(1.75799 87.4338 116.68)" fill="url(#paint1_radial_276_17911)"/>
<defs>
<linearGradient id="paint0_linear_276_17911" x1="102.071" y1="116.362" x2="198.035" y2="116.362" gradientUnits="userSpaceOnUse">
<stop stop-color="#9AA6BE"/>
<stop offset="1" stop-color="#9AA6BE" stop-opacity="0"/>
</linearGradient>
<radialGradient id="paint1_radial_276_17911" cx="0" cy="0" r="1" gradientUnits="userSpaceOnUse" gradientTransform="translate(83.0061 113.921) rotate(86.4237) scale(30.4032 12.1613)">
<stop stop-color="#D9D9D9"/>
<stop offset="0.34413" stop-color="#C2C2C2" stop-opacity="0.8"/>
<stop offset="0.532877" stop-color="#B5B5B5"/>
<stop offset="1" stop-color="#ECECEC"/>
</radialGradient>
</defs>
</svg>
