<svg width="281" height="249" viewBox="0 0 281 249" fill="none" xmlns="http://www.w3.org/2000/svg">
<path d="M312 212.185L265.61 180.91C262.83 178.825 253.621 170.485 259.355 148.072C265.963 122.239 266.131 57.8972 192.636 15.6767C119.141 -26.5439 55.028 34.9626 48.7731 42.7812C42.5182 50.5998 24.2747 75.0982 18.0198 78.7469C11.7649 82.3956 -1.26614 107.415 1.34007 129.307C3.94628 151.199 10.8686 166.672 20.626 174.655C32.0933 184.038 39.9119 200.717 48.773 210.1C57.3923 219.226 90.9936 249.193 129.044 248.15C167.095 247.108 196.806 239.289 218.177 218.961C239.547 198.632 268.737 238.247 284.374 248.15" stroke="#9AA6BE"/>
<path d="M307.31 219.481C292.132 210.047 265.011 191.38 254.144 178.165M29.4879 93.341C41.9977 29.7496 110.803 0.559982 168.659 14.1123C226.088 27.5645 247.888 87.6074 252.579 104.287C257.27 120.967 249.452 154.326 249.452 168.921C249.452 171.409 251.203 174.587 254.144 178.165M29.4879 93.341C28.0979 100.812 25.6714 112.194 29.4879 113.148C32.2735 113.844 33.431 105.707 37.3079 100.535M29.4879 93.341C31.2259 86.0436 32.6168 73.5338 22.1919 82.3949C10.1129 92.6621 6.55466 109.5 6.55469 124.616C6.55473 142.859 13.0467 161.75 24.2769 170.485C28.968 174.133 31.872 172.048 30.5317 167.357M30.5317 167.357C24.2768 145.465 27.4042 139.21 29.4879 138.689C31.5716 138.168 32.6166 141.816 34.1804 146.508C34.5967 147.757 35.3456 149.006 36.2893 150.156M30.5317 167.357C36.7866 189.249 73.7949 245.022 142.078 241.374C210.36 237.725 222.349 187.165 242.677 202.802M242.677 202.802C259.547 215.778 283.681 233.555 293.238 241.374M242.677 202.802C238.681 198.806 228.708 192.69 220.785 200.196C210.881 209.578 158.757 264.83 78.486 218.96M254.144 178.165C250.322 175.605 243.198 167.462 245.283 155.369C247.89 140.253 255.958 105.784 236.943 74.5763C215.347 39.1319 159.8 -10.9073 79.0073 31.8345M36.2893 150.156C38.89 153.327 42.9703 155.751 45.6471 155.369C47.2773 155.136 49.4282 154.695 51.4485 151.72M36.2893 150.156L41.4779 162.145M51.4485 151.72C53.9494 148.038 56.25 140.473 57.115 124.616C57.9859 108.648 54.191 101.187 50.339 98.1854M51.4485 151.72L47.7328 162.145M37.3079 100.535C39.2364 97.9616 41.8378 96.1222 45.6471 96.4685C46.9667 96.4157 48.6583 96.876 50.339 98.1854M37.3079 100.535L41.9991 88.6498M50.339 98.1854L47.7328 89.1711" stroke="#9AA6BE"/>
<path d="M302.619 225.738L255.186 191.336C247.715 185.603 233.815 171.216 237.985 159.541C242.155 147.865 243.198 134.869 243.198 129.83L246.326 125.66L243.198 122.011C242.677 102.204 231.94 57.273 193.159 36.0064C144.684 9.42303 101.942 27.1452 94.6445 30.2727C88.8066 32.7747 82.1347 32.3577 79.5285 31.8364C73.9232 35.8068 64.0274 42.9167 54.6706 53.7286M297.407 233.557C288.199 225.391 264.882 206.035 245.283 193.943C220.785 178.827 220.785 201.761 179.086 222.611C145.726 239.291 105.764 227.128 89.9533 218.962H78.486C71.1341 214.761 62.8417 207.268 55.0301 198.22M39.0464 78.2269C34.8631 87.7859 32.0031 98.8627 31.5742 111.586C31.9217 119.058 32.4082 135.147 31.5742 139.733C32.2152 147.554 34.7756 162.234 38.985 173.614M39.0464 78.2269C38.6406 82.2231 39.3928 90.1112 45.6477 89.6943C53.4664 89.173 50.3389 79.2694 50.3389 72.4933C50.3389 65.7171 50.6624 58.1157 54.6706 53.7286M39.0464 78.2269C43.2813 68.55 48.8725 60.4285 54.6706 53.7286M38.985 173.614C40.4806 177.658 42.1843 181.284 44.084 184.039C47.5071 189.002 51.2111 193.797 55.0301 198.22M38.985 173.614C38.2522 169.27 38.4546 160.792 45.1265 161.626C53.4664 162.668 49.8177 170.487 49.8177 175.178C49.8177 179.869 49.8177 193.637 55.0301 198.22" stroke="#9AA6BE"/>
<path d="M185.531 50.0391L174.378 53.0276L182.543 61.1926L185.531 50.0391ZM141.07 95.914L179.874 57.1101L178.46 55.6959L139.656 94.4998L141.07 95.914Z" fill="#005FCD"/>
<path d="M187.461 35.1992C192.946 35.8445 198.43 38.7481 199.076 44.2328" stroke="#005FCD" stroke-width="2" stroke-linecap="round"/>
<path d="M228.922 76.6172C232.972 80.371 235.692 85.9492 232.981 90.7604" stroke="#005FCD" stroke-width="2" stroke-linecap="round"/>
<path d="M241.012 116.502C243.904 121.207 245.023 127.311 241.119 131.216" stroke="#005FCD" stroke-width="2" stroke-linecap="round"/>
<path d="M236.902 154.836C237.744 160.294 236.41 166.355 231.296 168.44" stroke="#005FCD" stroke-width="2" stroke-linecap="round"/>
<path d="M205.758 201.541C203.651 206.646 199.37 211.139 193.916 210.274" stroke="#005FCD" stroke-width="2" stroke-linecap="round"/>
<path d="M185.531 192.396L174.378 189.408L182.543 181.243L185.531 192.396ZM141.07 146.522L179.874 185.325L178.46 186.74L139.656 147.936L141.07 146.522Z" fill="#005FCD"/>
<path d="M216.253 86.8183L205.1 83.8297L208.088 94.9833L216.253 86.8183ZM154.812 104.317L207.819 90.1136L207.301 88.1818L154.294 102.385L154.812 104.317Z" fill="#005FCD"/>
<path d="M216.253 155.617L205.1 158.606L208.088 147.452L216.253 155.617ZM154.812 138.119L207.819 152.322L207.301 154.254L154.294 140.051L154.812 138.119Z" fill="#005FCD"/>
<path d="M221.017 122.628L211.017 116.854L211.017 128.401L221.017 122.628ZM157.14 123.628L212.017 123.628L212.017 121.628L157.14 121.628L157.14 123.628Z" fill="#005FCD"/>
</svg>
