<svg width="284" height="280" viewBox="0 0 284 280" fill="none" xmlns="http://www.w3.org/2000/svg">
<path d="M389 264.472L331.124 225.454C327.656 222.853 316.167 212.448 323.32 184.485C331.565 152.256 331.774 71.9843 240.083 19.3104C148.391 -33.3635 68.4047 43.3713 60.6011 53.1258C52.7976 62.8802 30.0372 93.4441 22.2337 97.9961C14.4302 102.548 -1.82721 133.762 1.42427 161.075C4.67574 188.387 13.3119 207.691 25.4851 217.65C39.7916 229.356 49.546 250.165 60.6011 261.871C71.3544 273.256 113.275 310.643 160.746 309.342C208.218 308.041 245.285 298.287 271.947 272.926C298.609 247.564 335.026 296.986 354.534 309.342" stroke="#9AA6BE"/>
<path d="M383.144 273.576C364.209 261.806 330.373 238.518 316.816 222.03M36.537 116.205C52.1441 36.8689 137.985 0.452345 210.166 17.3601C281.813 34.1428 309.011 109.052 314.863 129.861C320.716 150.671 310.961 192.289 310.961 210.498C310.961 213.601 313.146 217.566 316.816 222.03M36.537 116.205C34.8029 125.526 31.7756 139.726 36.537 140.916C40.0122 141.785 41.4564 131.633 46.2932 125.179M36.537 116.205C38.7052 107.101 40.4405 91.4937 27.4346 102.549C12.365 115.358 7.92574 136.364 7.92578 155.223C7.92583 177.983 16.0251 201.551 30.0358 212.449C35.8884 217.001 39.5114 214.399 37.8392 208.547M37.8392 208.547C30.0356 181.234 33.9374 173.431 36.537 172.781C39.1366 172.13 40.4404 176.682 42.3912 182.535C42.9107 184.093 43.845 185.652 45.0223 187.087M37.8392 208.547C45.6427 235.859 91.8138 305.441 177.002 300.889C262.191 296.337 277.148 233.258 302.509 252.767M302.509 252.767C323.555 268.956 353.666 291.134 365.588 300.889M302.509 252.767C297.524 247.781 285.081 240.151 275.197 249.515C262.841 261.221 197.812 330.152 97.6665 272.926M316.816 222.03C312.047 218.836 303.16 208.677 305.761 193.59C309.012 174.731 319.078 131.728 295.356 92.7943C268.413 48.5742 199.112 -13.8541 98.3168 39.4701M45.0223 187.087C48.2669 191.043 53.3575 194.067 56.697 193.59C58.7309 193.299 61.4143 192.749 63.9348 189.038M45.0223 187.087L51.4955 202.044M63.9348 189.038C67.0548 184.444 69.9251 175.006 71.0042 155.223C72.0908 135.302 67.3562 125.993 62.5506 122.249M63.9348 189.038L59.2991 202.044M46.2932 125.179C48.6992 121.969 51.9446 119.675 56.697 120.107C58.3433 120.041 60.4537 120.615 62.5506 122.249M46.2932 125.179L52.1458 110.352M62.5506 122.249L59.2991 111.003" stroke="#9AA6BE"/>
<path d="M377.293 281.382L318.116 238.463C308.795 231.309 291.454 213.361 296.656 198.795C301.859 184.228 303.16 168.014 303.16 161.728L307.062 156.526L303.16 151.974C302.51 127.262 289.114 71.2069 240.732 44.6748C180.255 11.5098 126.93 33.6198 117.826 37.5216C110.543 40.643 102.219 40.1228 98.9678 39.4725C91.9747 44.4259 79.6288 53.296 67.9554 66.7849M370.791 291.137C359.303 280.949 330.213 256.801 305.762 241.714C275.198 222.856 275.198 251.469 223.174 277.48C181.555 298.29 131.699 283.116 111.974 272.928H97.6672C88.4951 267.687 78.1496 258.339 68.4039 247.051M48.4628 97.3487C43.2437 109.274 39.6757 123.094 39.1406 138.968C39.5742 148.289 40.1811 168.361 39.1406 174.084C39.9403 183.84 43.1346 202.155 48.3862 216.353M48.4628 97.3487C47.9566 102.334 48.8951 112.175 56.6986 111.655C66.453 111.005 62.5512 98.6493 62.5512 90.1955C62.5512 81.7417 62.9549 72.2582 67.9554 66.7849M48.4628 97.3487C53.7462 85.2759 60.7217 75.1436 67.9554 66.7849M48.3862 216.353C50.2521 221.397 52.3776 225.922 54.7477 229.359C59.0183 235.551 63.6394 241.533 68.4039 247.051M48.3862 216.353C47.472 210.934 47.7245 200.355 56.0483 201.396C66.453 202.697 61.901 212.451 61.901 218.304C61.901 224.156 61.901 241.333 68.4039 247.051" stroke="#9AA6BE"/>
<path d="M65.9953 55.8337C59.3963 60.3097 48.3486 73.6571 46.6766 79.641C43.9394 89.4321 32.9494 88.4728 32.8535 80.0009C32.7575 71.529 51.9075 50.8417 58.628 45.6803C68.2102 38.3211 75.5466 49.3552 65.9953 55.8337Z" fill="url(#paint0_radial_276_18574)"/>
<defs>
<radialGradient id="paint0_radial_276_18574" cx="0" cy="0" r="1" gradientUnits="userSpaceOnUse" gradientTransform="translate(51.9794 61.2318) rotate(122.043) scale(33.6984 12.7827)">
<stop stop-color="white"/>
<stop offset="0.21875" stop-color="#FFB800"/>
<stop offset="0.5625" stop-color="#D5BE86"/>
<stop offset="0.822917" stop-color="#B4891B"/>
<stop offset="1" stop-color="#B4891B" stop-opacity="0"/>
</radialGradient>
</defs>
</svg>
