<svg width="471" height="350" viewBox="0 0 471 350" fill="none" xmlns="http://www.w3.org/2000/svg">
<path d="M571.054 370.096L486.022 312.77C480.926 308.949 464.047 293.662 474.557 252.579C486.67 205.228 486.977 87.291 352.263 9.9019C217.549 -67.4872 100.032 45.2525 88.5667 59.5838C77.1016 73.9151 43.6619 118.82 32.1968 125.508C20.7318 132.196 -3.15377 178.056 1.62334 218.184C6.40045 258.311 19.0888 286.672 36.9739 301.305C57.9931 318.503 72.3244 349.076 88.5666 366.274C104.366 383.002 165.956 437.931 235.701 436.02C305.447 434.109 359.906 419.778 399.079 382.516C438.251 345.255 491.754 417.867 520.417 436.02" stroke="#9AA6BE"/>
<path d="M562.455 383.472C534.636 366.179 484.924 331.963 465.005 307.739M53.2156 152.26C76.1458 35.6988 202.264 -17.8049 308.313 7.0361C413.578 31.6935 453.537 141.751 462.136 172.324C470.735 202.897 456.403 264.044 456.403 290.796C456.403 295.356 459.612 301.181 465.005 307.739M53.2156 152.26C50.6679 165.955 46.2201 186.818 53.2156 188.566C58.3215 189.842 60.4433 174.927 67.5495 165.446M53.2156 152.26C56.4012 138.884 58.9508 115.954 39.8423 132.196C17.7019 151.016 11.1796 181.878 11.1797 209.585C11.1798 243.025 23.0793 277.652 43.6639 293.662C52.2627 300.35 57.5856 296.529 55.1288 287.93M55.1288 287.93C43.6638 247.802 49.3963 236.337 53.2156 235.382C57.035 234.426 58.9505 241.114 61.8168 249.713C62.5799 252.002 63.9526 254.292 65.6824 256.401M55.1288 287.93C66.5939 328.058 134.429 430.288 259.589 423.6C384.749 416.912 406.724 324.236 443.986 352.899M443.986 352.899C474.907 376.684 519.145 409.268 536.661 423.6M443.986 352.899C436.661 345.574 418.38 334.363 403.858 348.121C385.705 365.319 290.163 466.594 143.028 382.517M465.005 307.739C457.998 303.047 444.941 288.121 448.763 265.955C453.54 238.248 468.329 175.067 433.476 117.865C393.891 52.8963 292.074 -38.8242 143.983 39.5204M65.6824 256.401C70.4494 262.213 77.9285 266.656 82.835 265.955C85.8231 265.528 89.7657 264.72 93.4688 259.267M65.6824 256.401L75.1929 278.376M93.4688 259.267C98.0528 252.518 102.27 238.652 103.855 209.585C105.452 180.317 98.4957 166.641 91.4351 161.14M93.4688 259.267L86.658 278.376M67.5495 165.446C71.0844 160.729 75.8526 157.358 82.835 157.993C85.2538 157.896 88.3544 158.74 91.4351 161.14M67.5495 165.446L76.1483 143.661M91.4351 161.14L86.658 144.617" stroke="#9AA6BE"/>
<path d="M553.86 394.939L466.917 331.881C453.223 321.372 427.745 295.002 435.388 273.6C443.031 252.199 444.943 228.377 444.944 219.141L450.677 211.498L444.944 204.81C443.989 168.504 424.307 86.1468 353.224 47.1656C264.369 -1.56087 186.025 30.9235 172.649 36.656C161.948 41.242 149.719 40.4777 144.942 39.5223C134.667 46.7999 116.529 59.832 99.378 79.65M544.308 409.27C527.429 394.302 484.69 358.824 448.766 336.658C403.861 308.951 403.861 350.99 327.427 389.206C266.28 419.78 193.031 397.487 164.05 382.519H143.031C129.555 374.818 114.355 361.084 100.037 344.5M70.7392 124.555C63.0713 142.076 57.8291 162.38 57.043 185.702C57.6799 199.396 58.5716 228.887 57.043 237.294C58.2179 251.629 62.911 278.537 70.6267 299.397M70.7392 124.555C69.9955 131.88 71.3743 146.338 82.8393 145.574C97.1707 144.619 91.4381 126.466 91.4381 114.045C91.4381 101.625 92.0311 87.6914 99.378 79.65M70.7392 124.555C78.5017 106.817 88.7502 91.9307 99.378 79.65M70.6267 299.397C73.368 306.808 76.4909 313.456 79.9731 318.505C86.2474 327.603 93.0369 336.392 100.037 344.5M70.6267 299.397C69.2835 291.435 69.6545 275.894 81.8839 277.422C97.1707 279.333 90.4827 293.664 90.4827 302.263C90.4827 310.862 90.4827 336.099 100.037 344.5" stroke="#9AA6BE"/>
<path d="M96.4944 63.5619C86.7991 70.1381 70.5677 89.7482 68.1112 98.5399C64.0895 112.925 47.943 111.516 47.802 99.0687C47.661 86.6217 75.7965 56.2276 85.6702 48.6445C99.7485 37.8323 110.527 54.0437 96.4944 63.5619Z" fill="url(#paint0_radial_156_2331)"/>
<defs>
<radialGradient id="paint0_radial_156_2331" cx="0" cy="0" r="1" gradientUnits="userSpaceOnUse" gradientTransform="translate(75.902 71.4929) rotate(122.043) scale(49.5101 18.7806)">
<stop stop-color="white"/>
<stop offset="0.21875" stop-color="#FFB800"/>
<stop offset="0.5625" stop-color="#D5BE86"/>
<stop offset="0.822917" stop-color="#B4891B"/>
<stop offset="1" stop-color="#B4891B" stop-opacity="0"/>
</radialGradient>
</defs>
</svg>
