<svg width="249" height="40" viewBox="0 0 249 40" fill="none" xmlns="http://www.w3.org/2000/svg">
<path d="M18.5662 34.7051C13.471 32.0826 8.52995 28.48 3.85662 23.9065L2.72232 22.7904L0 20.0045L2.72232 17.2187L3.85662 16.1025C8.53448 11.529 13.471 7.9265 18.5662 5.30399C18.3394 5.50817 18.1216 5.71688 17.9083 5.93466C9.75045 14.0926 9.75045 25.9211 17.9083 34.0789C18.1216 34.2922 18.3439 34.5054 18.5662 34.7096" fill="#50B3D7"/>
<path d="M35.853 8.71143C34.1152 9.30581 32.5544 10.2949 31.284 11.5653C29.1243 13.725 27.7903 16.7105 27.7903 20.0045C27.7903 23.2985 29.1243 26.284 31.284 28.4437C32.5544 29.7142 34.1152 30.6987 35.853 31.2976C34.637 31.7151 33.3348 31.9419 31.9827 31.9419C28.6842 31.9419 25.7032 30.608 23.5435 28.4483C21.3838 26.2886 20.0499 23.3031 20.0499 20.0091C20.0499 16.7151 21.3883 13.725 23.5435 11.5699C25.7032 9.41016 28.6887 8.07623 31.9827 8.07623C33.3393 8.07623 34.6415 8.30309 35.853 8.72051" fill="#FF4646"/>
<path d="M76.7287 22.7858L75.5944 23.902C64.6234 34.6325 52.2096 40 39.7278 40C38.0626 40 36.3975 39.9047 34.7368 39.7142C39.1289 39.1062 43.0672 37.0644 46.0572 34.0744C47.0191 33.1125 47.8811 32.0508 48.6343 30.912C55.3539 29.2105 61.9646 25.5717 68.1534 20C61.9691 14.4283 55.3584 10.794 48.6343 9.08802C47.8857 7.94465 47.0191 6.88748 46.0572 5.92559C43.0672 2.93557 39.1289 0.893829 34.7368 0.285844C36.3975 0.0952813 38.0626 0 39.7278 0C52.2096 0 64.628 5.36751 75.5944 16.098L76.7287 17.2142L79.4555 20L76.7287 22.7858Z" fill="#005FCD"/>
<path d="M35.853 0.476411C37.1052 0.226865 38.3983 0.099823 39.7232 0.099823C45.2178 0.099823 50.1951 2.32759 53.7976 5.93013C57.4001 9.53267 59.6279 14.51 59.6279 20.0045H51.8829C51.8829 14.51 49.6551 9.53267 46.0526 5.93013C43.3212 3.19873 39.7913 1.25681 35.853 0.476411Z" fill="#005FCD"/>
<path fill-rule="evenodd" clip-rule="evenodd" d="M39.873 15.245C42.4955 15.245 44.6235 17.373 44.6235 19.9955C44.6235 22.618 42.4955 24.7459 39.873 24.7459C37.2505 24.7459 35.1226 22.618 35.1226 19.9955C35.1226 17.373 37.2505 15.245 39.873 15.245Z" fill="#50B3D7"/>
<path d="M248.904 25.9159V30.63H228.686V9.06017H248.437V13.7743H235.737V17.4086H246.926V21.9685H235.737V25.9114H248.904V25.9159ZM199.181 9.06017H206.195V21.7235L216.594 9.06017H223.287V30.63H216.272V17.9939L205.909 30.63H199.181V9.06017ZM193.786 9.06017V30.63H186.663V22.2181H176.948V30.63H169.825V9.06017H176.948V17.1636H186.663V9.06017H193.786ZM165.76 25.9159V30.63H145.537V9.06017H165.288V13.7743H152.588V17.4086H163.777V21.9685H152.588V25.9114H165.755L165.76 25.9159ZM130.714 20.1854C132.175 20.1854 133.282 19.9132 134.022 19.3687C134.766 18.8242 135.138 18.0484 135.138 17.0411C135.138 16.0339 134.766 15.2535 134.022 14.6999C133.278 14.1464 132.175 13.8696 130.714 13.8696H126.758V20.1854H130.714ZM131.145 9.06017C133.423 9.06017 135.401 9.38232 137.08 10.0311C138.759 10.68 140.052 11.601 140.964 12.8034C141.876 14.0057 142.33 15.4168 142.33 17.0411C142.33 18.6654 141.876 20.072 140.964 21.2653C140.052 22.4585 138.759 23.3751 137.08 24.0239C135.401 24.6727 133.423 24.9948 131.145 24.9948H126.758V30.6346H119.634V9.06471H131.15L131.145 9.06017ZM111.322 19.4141C112.715 19.8678 113.804 20.5438 114.598 21.4467C115.388 22.3496 115.787 23.3887 115.787 24.5593C115.787 25.8932 115.261 27.0547 114.203 28.0438C113.146 29.0284 111.722 29.7861 109.92 30.3079C108.119 30.8297 106.141 31.0928 103.986 31.0928C102.284 31.0928 100.551 30.9159 98.786 30.5711C97.021 30.2217 95.3377 29.6954 93.7315 29.0012L95.8549 24.7498C96.9802 25.2444 98.1871 25.6164 99.4711 25.8751C100.755 26.1337 101.994 26.2607 103.196 26.2607C104.78 26.2607 106.073 26.0384 107.08 25.5983C108.087 25.1582 108.591 24.5366 108.591 23.7335C108.591 23.0983 108.278 22.6219 107.656 22.3179C107.035 22.0094 106.191 21.8551 105.138 21.8551H98.6907V17.3859H104.557C105.519 17.3859 106.259 17.2226 106.79 16.8914C107.316 16.5647 107.579 16.1201 107.579 15.5665C107.579 14.8678 107.171 14.3279 106.354 13.9467C105.537 13.5656 104.485 13.3751 103.187 13.3751C102.134 13.3751 101.018 13.5021 99.8432 13.7607C98.668 14.0193 97.5519 14.3823 96.4992 14.8542L94.4121 10.2308C97.0981 9.1237 100.047 8.56562 103.264 8.56562C105.329 8.56562 107.239 8.81516 109.004 9.31879C110.769 9.82242 112.171 10.5484 113.214 11.4921C114.258 12.4359 114.78 13.5565 114.78 14.8496C114.78 15.8569 114.476 16.7553 113.863 17.5447C113.251 18.3342 112.407 18.9558 111.327 19.4095L111.322 19.4141Z" fill="#005FCD"/>
</svg>
