<svg width="188" height="43" viewBox="0 0 188 43" fill="none" xmlns="http://www.w3.org/2000/svg">
<path d="M9.96 1.2V-0.8H9.59117L9.2466 -0.668437L9.96 1.2ZM16.5 1.2H18.5V-0.8H16.5V1.2ZM16.5 34.26H14.5V36.26H16.5V34.26ZM23.34 34.26H25.34V32.26H23.34V34.26ZM23.34 42V44H25.34V42H23.34ZM0.0600002 42H-1.94V44H0.0600002V42ZM0.0600002 34.26V32.26H-1.94V34.26H0.0600002ZM7.74 34.26V36.26H9.74V34.26H7.74ZM7.74 10.2H9.74V7.314L7.03775 8.32734L7.74 10.2ZM0.0600002 13.08H-1.94V15.966L0.762247 14.9527L0.0600002 13.08ZM0.0600002 4.98L-0.653403 3.11156L-1.94 3.60281V4.98H0.0600002ZM9.96 3.2H16.5V-0.8H9.96V3.2ZM14.5 1.2V34.26H18.5V1.2H14.5ZM16.5 36.26H23.34V32.26H16.5V36.26ZM21.34 34.26V42H25.34V34.26H21.34ZM23.34 40H0.0600002V44H23.34V40ZM2.06 42V34.26H-1.94V42H2.06ZM0.0600002 36.26H7.74V32.26H0.0600002V36.26ZM9.74 34.26V10.2H5.74V34.26H9.74ZM7.03775 8.32734L-0.642247 11.2073L0.762247 14.9527L8.44225 12.0727L7.03775 8.32734ZM2.06 13.08V4.98H-1.94V13.08H2.06ZM0.773403 6.84843L10.6734 3.06844L9.2466 -0.668437L-0.653403 3.11156L0.773403 6.84843ZM35.5762 3.72L34.2823 2.19498V2.19498L35.5762 3.72ZM58.9163 3.84L57.6402 5.38004L57.6468 5.38548L57.6534 5.39087L58.9163 3.84ZM63.1763 11.88L65.1761 11.8583L65.1761 11.854L63.1763 11.88ZM58.0163 21.3L56.8192 19.6978L54.2109 21.6465L57.1283 23.0921L58.0163 21.3ZM60.3563 39.42L61.6083 40.9796L61.6109 40.9775L60.3563 39.42ZM34.4963 39.3L35.7534 37.7445L34.4963 39.3ZM31.8563 24.9L33.5374 25.9834L33.5428 25.975L33.5481 25.9666L31.8563 24.9ZM36.4762 20.4L37.5105 22.1118L40.1812 20.4982L37.5998 18.7454L36.4762 20.4ZM48.3563 25.2L47.6836 27.0835L47.7036 27.0906L47.7238 27.0974L48.3563 25.2ZM45.4163 24.24L44.8006 26.1429L44.8086 26.1455L44.8166 26.148L45.4163 24.24ZM42.2962 23.16L43.0211 21.296L41.9197 20.8676L41.0131 21.6258L42.2962 23.16ZM39.1162 29.58L41.1158 29.5365L41.1155 29.5255L41.1152 29.5145L39.1162 29.58ZM41.3963 34.08L40.1625 35.6541L40.1859 35.6725L40.2099 35.6901L41.3963 34.08ZM53.5763 34.5L52.5685 32.7724L53.5763 34.5ZM54.3563 28.02L52.942 29.4342L52.9836 29.4758L53.0275 29.5148L54.3563 28.02ZM52.6162 26.94L51.6848 28.7098L51.7393 28.7385L51.7955 28.7638L52.6162 26.94ZM50.6963 26.04L49.927 27.8862L49.9525 27.8968L49.9783 27.9067L50.6963 26.04ZM54.5363 12.54H52.5363V12.5764L52.5376 12.6127L54.5363 12.54ZM52.5563 8.88L51.3563 10.48L51.368 10.4888L51.3799 10.4975L52.5563 8.88ZM41.9963 8.7L43.1057 10.3641L43.1118 10.36L43.1179 10.3558L41.9963 8.7ZM40.6763 13.62L38.9115 14.5612L38.9253 14.5869L38.9398 14.6123L40.6763 13.62ZM43.4963 16.14L42.6364 17.9457L42.6721 17.9627L42.7084 17.9783L43.4963 16.14ZM45.4762 16.98L44.707 18.8262L44.7745 18.8543L44.8438 18.8774L45.4762 16.98ZM47.8763 17.76L47.2642 19.6641L47.3068 19.6778L47.35 19.6895L47.8763 17.76ZM49.7962 18.36L49.1638 20.2574L49.2165 20.2749L49.27 20.2895L49.7962 18.36ZM51.6562 18.84L51.2224 20.7924L52.2941 21.0305L53.0705 20.2542L51.6562 18.84ZM33.6162 11.64C33.6162 9.27279 34.6085 7.164 36.8702 5.24502L34.2823 2.19498C31.264 4.756 29.6162 7.9272 29.6162 11.64H33.6162ZM36.8702 5.24502C39.0057 3.43312 42.3807 2.36 47.3363 2.36V-1.64C41.8918 -1.64 37.4268 -0.473122 34.2823 2.19498L36.8702 5.24502ZM47.3363 2.36C51.9549 2.36 55.308 3.44766 57.6402 5.38004L60.1923 2.29995C56.9245 -0.407665 52.5576 -1.64 47.3363 -1.64V2.36ZM57.6534 5.39087C60.0819 7.36837 61.1455 9.52302 61.1764 11.906L65.1761 11.854C65.127 8.07697 63.3506 4.87162 60.1791 2.28913L57.6534 5.39087ZM61.1764 11.9017C61.2081 14.8229 59.8925 17.4017 56.8192 19.6978L59.2133 22.9022C63.1 19.9983 65.2244 16.2971 65.1761 11.8583L61.1764 11.9017ZM57.1283 23.0921C59.1234 24.0807 60.4925 25.2352 61.3647 26.5002C62.225 27.7481 62.6763 29.2097 62.6763 30.96H66.6763C66.6763 28.4703 66.0175 26.2019 64.6578 24.2298C63.31 22.2748 61.3491 20.7193 58.9042 19.5079L57.1283 23.0921ZM62.6763 30.96C62.6763 33.6006 61.5712 35.8731 59.1016 37.8625L61.6109 40.9775C64.9013 38.327 66.6763 34.9594 66.6763 30.96H62.6763ZM59.1042 37.8604C56.7738 39.7313 53.0093 40.84 47.4562 40.84V44.84C53.4232 44.84 58.2587 43.6687 61.6083 40.9796L59.1042 37.8604ZM47.4562 40.84C41.9655 40.84 38.1733 39.7003 35.7534 37.7445L33.2391 40.8555C36.6592 43.6197 41.507 44.84 47.4562 44.84V40.84ZM35.7534 37.7445C33.2475 35.7192 32.1162 33.3878 32.1162 30.66H28.1163C28.1163 34.7322 29.905 38.1608 33.2391 40.8555L35.7534 37.7445ZM32.1162 30.66C32.1162 29.0239 32.5747 27.4773 33.5374 25.9834L30.1751 23.8166C28.8178 25.9227 28.1163 28.2161 28.1163 30.66H32.1162ZM33.5481 25.9666C34.5368 24.3983 35.8483 23.1161 37.5105 22.1118L35.442 18.6882C33.2642 20.0039 31.4957 21.7217 30.1644 23.8334L33.5481 25.9666ZM37.5998 18.7454C34.8588 16.8842 33.6162 14.5599 33.6162 11.64H29.6162C29.6162 16.0001 31.6137 19.5158 35.3527 22.0546L37.5998 18.7454ZM49.0289 23.3165C48.4286 23.1021 47.4153 22.7718 46.0159 22.332L44.8166 26.148C46.2172 26.5882 47.1639 26.8979 47.6836 27.0835L49.0289 23.3165ZM46.0319 22.3371C44.6834 21.9008 43.6868 21.5549 43.0211 21.296L41.5714 25.024C42.3457 25.3251 43.4291 25.6992 44.8006 26.1429L46.0319 22.3371ZM41.0131 21.6258C38.4338 23.7831 37.0135 26.4792 37.1173 29.6455L41.1152 29.5145C41.059 27.8008 41.7587 26.2169 43.5794 24.6942L41.0131 21.6258ZM37.1167 29.6235C37.1701 32.0776 38.2227 34.1337 40.1625 35.6541L42.63 32.5059C41.6098 31.7063 41.1424 30.7624 41.1158 29.5365L37.1167 29.6235ZM40.2099 35.6901C42.2193 37.1707 44.9552 37.76 48.1163 37.76V33.76C45.3573 33.76 43.6132 33.2293 42.5826 32.4699L40.2099 35.6901ZM48.1163 37.76C50.5604 37.76 52.7554 37.2942 54.584 36.2276L52.5685 32.7724C51.5171 33.3858 50.0721 33.76 48.1163 33.76V37.76ZM54.584 36.2276C56.4761 35.1238 57.7363 33.4412 57.7363 31.2H53.7363C53.7363 31.6788 53.5564 32.1962 52.5685 32.7724L54.584 36.2276ZM57.7363 31.2C57.7363 30.2368 57.5357 29.3067 57.1051 28.4456L53.5274 30.2344C53.6569 30.4933 53.7363 30.8032 53.7363 31.2H57.7363ZM57.1051 28.4456C56.7438 27.7229 56.2828 27.0566 55.685 26.5252L53.0275 29.5148C53.1497 29.6234 53.3287 29.8371 53.5274 30.2344L57.1051 28.4456ZM55.7705 26.6058C55.1583 25.9936 54.3219 25.5144 53.437 25.1162L51.7955 28.7638C52.5106 29.0856 52.8342 29.3264 52.942 29.4342L55.7705 26.6058ZM53.5477 25.1702C52.7512 24.751 52.0351 24.4121 51.4142 24.1733L49.9783 27.9067C50.3974 28.0679 50.9613 28.329 51.6848 28.7098L53.5477 25.1702ZM51.4655 24.1938C50.9132 23.9637 50.074 23.6644 48.9887 23.3026L47.7238 27.0974C48.7985 27.4556 49.5193 27.7163 49.927 27.8862L51.4655 24.1938ZM56.5363 12.54C56.5363 10.3475 55.5084 8.554 53.7326 7.26253L51.3799 10.4975C52.2441 11.126 52.5363 11.7725 52.5363 12.54H56.5363ZM53.7563 7.28C51.9907 5.95585 49.6345 5.44 46.9762 5.44V9.44C49.198 9.44 50.5618 9.88414 51.3563 10.48L53.7563 7.28ZM46.9762 5.44C44.6468 5.44 42.5514 5.9082 40.8746 7.04416L43.1179 10.3558C43.9211 9.81179 45.1457 9.44 46.9762 9.44V5.44ZM40.8869 7.0359C39.2594 8.12085 38.1963 9.68987 38.1963 11.7H42.1963C42.1963 11.3101 42.3331 10.8791 43.1057 10.3641L40.8869 7.0359ZM38.1963 11.7C38.1963 12.7083 38.4371 13.6715 38.9115 14.5612L42.441 12.6788C42.2754 12.3685 42.1963 12.0517 42.1963 11.7H38.1963ZM38.9398 14.6123C39.3257 15.2876 39.7681 15.9003 40.282 16.4142L43.1105 13.5858C42.9044 13.3797 42.6668 13.0724 42.4127 12.6277L38.9398 14.6123ZM40.282 16.4142C40.8854 17.0175 41.7316 17.5148 42.6364 17.9457L44.3561 14.3343C43.5809 13.9651 43.2271 13.7025 43.1105 13.5858L40.282 16.4142ZM42.7084 17.9783C43.5507 18.3393 44.2179 18.6223 44.707 18.8262L46.2455 15.1338C45.7746 14.9377 45.1218 14.6607 44.2841 14.3017L42.7084 17.9783ZM44.8438 18.8774C45.3349 19.0411 46.1439 19.304 47.2642 19.6641L48.4883 15.8559C47.3686 15.496 46.5776 15.2389 46.1087 15.0826L44.8438 18.8774ZM47.35 19.6895C47.7351 19.7946 48.3328 19.9804 49.1638 20.2574L50.4287 16.4626C49.5797 16.1796 48.8974 15.9654 48.4025 15.8305L47.35 19.6895ZM49.27 20.2895C50.1491 20.5293 50.8107 20.7009 51.2224 20.7924L52.0901 16.8876C51.7818 16.8191 51.2034 16.6707 50.3225 16.4305L49.27 20.2895ZM53.0705 20.2542C55.3449 17.9798 56.6405 15.3704 56.5349 12.4673L52.5376 12.6127C52.592 14.1096 51.9676 15.7002 50.242 17.4258L53.0705 20.2542ZM102.769 19.8V17.8H100.901L100.774 19.664L102.769 19.8ZM101.749 28.92L99.7781 28.5812L99.776 28.5938L99.7739 28.6065L101.749 28.92ZM99.9492 36L101.825 36.6946L101.829 36.6835L99.9492 36ZM96.7092 40.92L95.4378 39.3761L96.7092 40.92ZM87.2292 41.76H85.2292V43.167L86.5535 43.6424L87.2292 41.76ZM87.2292 35.16L87.972 33.303L85.2292 32.2059V35.16H87.2292ZM93.3492 29.94L91.3983 29.4995L93.3492 29.94ZM95.0892 13.2V11.2H93.1734L93.0911 13.1141L95.0892 13.2ZM118.489 13.2H120.489V11.2H118.489V13.2ZM118.489 42V44H120.489V42H118.489ZM110.149 42H108.149V44H110.149V42ZM110.149 19.8H112.149V17.8H110.149V19.8ZM100.774 19.664C100.537 23.1383 100.203 26.1072 99.7781 28.5812L103.72 29.2588C104.175 26.6128 104.521 23.5017 104.765 19.936L100.774 19.664ZM99.7739 28.6065C99.3922 31.0115 98.8223 33.2467 98.0696 35.3165L101.829 36.6835C102.676 34.3533 103.306 31.8685 103.724 29.2335L99.7739 28.6065ZM98.0737 35.3054C97.3597 37.2331 96.4534 38.5397 95.4378 39.3761L97.9806 42.4639C99.685 41.0603 100.939 39.0869 101.825 36.6946L98.0737 35.3054ZM95.4378 39.3761C94.4689 40.1741 93.2899 40.6 91.7892 40.6V44.6C94.1285 44.6 96.2296 43.9059 97.9806 42.4639L95.4378 39.3761ZM91.7892 40.6C90.5654 40.6 89.2739 40.369 87.9049 39.8776L86.5535 43.6424C88.3045 44.271 90.053 44.6 91.7892 44.6V40.6ZM89.2292 41.76V35.16H85.2292V41.76H89.2292ZM86.4864 37.017C87.2867 37.3371 88.1187 37.52 88.9692 37.52V33.52C88.6997 33.52 88.3717 33.4629 87.972 33.303L86.4864 37.017ZM88.9692 37.52C90.7126 37.52 92.1471 36.698 93.1974 35.3599C94.1894 34.0962 94.8502 32.3728 95.3001 30.3805L91.3983 29.4995C91.0082 31.2272 90.5191 32.2938 90.051 32.8901C89.6413 33.412 89.3058 33.52 88.9692 33.52V37.52ZM95.3001 30.3805C96.1807 26.4805 96.7661 20.7554 97.0874 13.2859L93.0911 13.1141C92.7723 20.5246 92.1977 25.9595 91.3983 29.4995L95.3001 30.3805ZM95.0892 15.2H118.489V11.2H95.0892V15.2ZM116.489 13.2V42H120.489V13.2H116.489ZM118.489 40H110.149V44H118.489V40ZM112.149 42V19.8H108.149V42H112.149ZM110.149 17.8H102.769V21.8H110.149V17.8ZM128.316 20.7L130.133 21.5358L130.136 21.529L130.139 21.5222L128.316 20.7ZM131.916 15.9L130.702 14.3101L130.692 14.3179L130.682 14.3259L131.916 15.9ZM136.656 13.26L135.983 11.3765L135.976 11.3791L135.968 11.3818L136.656 13.26ZM149.196 13.98L148.274 15.755L148.281 15.7586L148.288 15.7621L149.196 13.98ZM153.876 18.18L152.147 19.1852L152.152 19.1941L152.157 19.203L153.876 18.18ZM155.916 23.94L153.943 24.2688L153.946 24.2898L153.95 24.3108L155.916 23.94ZM155.616 30.3V32.3H157.128L157.54 30.8446L155.616 30.3ZM135.336 30.3V28.3H132.848L133.382 30.7297L135.336 30.3ZM138.816 34.8L137.876 36.5657L137.891 36.5736L137.906 36.5812L138.816 34.8ZM154.176 34.5H156.176V31.4367L153.371 32.669L154.176 34.5ZM154.176 41.04L154.954 42.8823L156.176 42.3661V41.04H154.176ZM131.676 38.82L132.969 37.2947L131.676 38.82ZM148.116 24.9V26.9H149.835L150.093 25.1996L148.116 24.9ZM146.976 20.82L148.625 19.6889H148.625L146.976 20.82ZM137.316 20.4L138.582 21.9479L138.596 21.9366L138.61 21.925L137.316 20.4ZM135.276 24.9L133.276 24.8583L133.234 26.9H135.276V24.9ZM128.936 27.6C128.936 25.2369 129.353 23.2305 130.133 21.5358L126.499 19.8642C125.438 22.1695 124.936 24.7631 124.936 27.6H128.936ZM130.139 21.5222C130.951 19.721 131.968 18.4002 133.149 17.4741L130.682 14.3259C128.903 15.7198 127.52 17.599 126.492 19.8778L130.139 21.5222ZM133.129 17.4899C134.504 16.4404 135.909 15.6629 137.343 15.1382L135.968 11.3818C134.123 12.0571 132.367 13.0396 130.702 14.3101L133.129 17.4899ZM137.328 15.1435C138.801 14.6177 140.273 14.36 141.756 14.36V10.36C139.798 10.36 137.871 10.7023 135.983 11.3765L137.328 15.1435ZM141.756 14.36C144.387 14.36 146.537 14.8529 148.274 15.755L150.117 12.205C147.695 10.9471 144.884 10.36 141.756 10.36V14.36ZM148.288 15.7621C150.133 16.7021 151.375 17.8581 152.147 19.1852L155.605 17.1748C154.376 15.0619 152.498 13.4179 150.103 12.1979L148.288 15.7621ZM152.157 19.203C153.016 20.6453 153.619 22.3247 153.943 24.2688L157.888 23.6112C157.492 21.2353 156.736 19.0747 155.594 17.157L152.157 19.203ZM153.95 24.3108C154.292 26.12 154.209 27.9267 153.691 29.7554L157.54 30.8446C158.222 28.4333 158.34 26 157.881 23.5692L153.95 24.3108ZM155.616 28.3H135.336V32.3H155.616V28.3ZM133.382 30.7297C133.954 33.3278 135.503 35.3031 137.876 36.5657L139.755 33.0343C138.369 32.2969 137.597 31.2722 137.289 29.8703L133.382 30.7297ZM137.906 36.5812C140.121 37.7125 142.666 38.24 145.476 38.24V34.24C143.165 34.24 141.27 33.8075 139.725 33.0188L137.906 36.5812ZM145.476 38.24C148.886 38.24 152.063 37.6128 154.98 36.331L153.371 32.669C151.008 33.7072 148.385 34.24 145.476 34.24V38.24ZM152.176 34.5V41.04H156.176V34.5H152.176ZM153.397 39.1977C150.875 40.2633 147.639 40.84 143.616 40.84V44.84C147.992 44.84 151.796 44.2167 154.954 42.8823L153.397 39.1977ZM143.616 40.84C139.21 40.84 135.712 39.6206 132.969 37.2947L130.382 40.3453C133.96 43.3794 138.421 44.84 143.616 44.84V40.84ZM132.969 37.2947C130.331 35.0569 128.936 31.916 128.936 27.6H124.936C124.936 32.884 126.701 37.2231 130.382 40.3453L132.969 37.2947ZM150.093 25.1996C150.388 23.2529 149.791 21.389 148.625 19.6889L145.326 21.9511C146.08 23.051 146.243 23.9071 146.138 24.6004L150.093 25.1996ZM148.625 19.6889C147.164 17.5585 144.771 16.72 142.056 16.72V20.72C143.98 20.72 144.867 21.2815 145.326 21.9511L148.625 19.6889ZM142.056 16.72C139.774 16.72 137.727 17.4281 136.022 18.875L138.61 21.925C139.544 21.1319 140.657 20.72 142.056 20.72V16.72ZM136.049 18.8521C134.216 20.352 133.327 22.4358 133.276 24.8583L137.275 24.9417C137.305 23.5242 137.775 22.608 138.582 21.9479L136.049 18.8521ZM135.276 26.9H148.116V22.9H135.276V26.9ZM178.779 42V44H180.779V42H178.779ZM170.499 42H168.499V44H170.499V42ZM170.499 20.22H172.499V18.22H170.499V20.22ZM161.319 20.22H159.319V22.22H161.319V20.22ZM161.319 13.2V11.2H159.319V13.2H161.319ZM187.959 13.2H189.959V11.2H187.959V13.2ZM187.959 20.22V22.22H189.959V20.22H187.959ZM178.779 20.22V18.22H176.779V20.22H178.779ZM178.779 40H170.499V44H178.779V40ZM172.499 42V20.22H168.499V42H172.499ZM170.499 18.22H161.319V22.22H170.499V18.22ZM163.319 20.22V13.2H159.319V20.22H163.319ZM161.319 15.2H187.959V11.2H161.319V15.2ZM185.959 13.2V20.22H189.959V13.2H185.959ZM187.959 18.22H178.779V22.22H187.959V18.22ZM176.779 20.22V42H180.779V20.22H176.779Z" fill="white"/>
</svg>
